<svg viewBox="0 0 800 800" xmlns="http://www.w3.org/2000/svg">
  <!-- Cosmic 800: Highly detailed spiral galaxy cluster -->
  <defs>
    <radialGradient id="c800-gold">
      <stop offset="0%" stop-color="#fffbeb"/><stop offset="30%" stop-color="#fef9c3"/><stop offset="70%" stop-color="#fbbf24"/><stop offset="100%" stop-color="#92400e"/>
    </radialGradient>
    <radialGradient id="c800-blue">
      <stop offset="0%" stop-color="#eff6ff"/><stop offset="30%" stop-color="#dbeafe"/><stop offset="70%" stop-color="#3b82f6"/><stop offset="100%" stop-color="#1e3a8a"/>
    </radialGradient>
    <radialGradient id="c800-pink">
      <stop offset="0%" stop-color="#fdf2f8"/><stop offset="30%" stop-color="#fce7f3"/><stop offset="70%" stop-color="#ec4899"/><stop offset="100%" stop-color="#831843"/>
    </radialGradient>
    <radialGradient id="c800-violet">
      <stop offset="0%" stop-color="#f5f3ff"/><stop offset="30%" stop-color="#ede9fe"/><stop offset="70%" stop-color="#8b5cf6"/><stop offset="100%" stop-color="#4c1d95"/>
    </radialGradient>
    <radialGradient id="c800-emerald">
      <stop offset="0%" stop-color="#ecfdf5"/><stop offset="30%" stop-color="#d1fae5"/><stop offset="70%" stop-color="#10b981"/><stop offset="100%" stop-color="#065f46"/>
    </radialGradient>
    <radialGradient id="c800-ruby">
      <stop offset="0%" stop-color="#fff1f2"/><stop offset="30%" stop-color="#ffe4e6"/><stop offset="70%" stop-color="#f43f5e"/><stop offset="100%" stop-color="#9f1239"/>
    </radialGradient>
    <linearGradient id="c800-shimmer">
      <stop offset="0%" stop-color="#fde047"/><stop offset="16%" stop-color="#f9a8d4"/><stop offset="33%" stop-color="#93c5fd"/><stop offset="50%" stop-color="#c4b5fd"/><stop offset="66%" stop-color="#6ee7b7"/><stop offset="83%" stop-color="#fda4af"/><stop offset="100%" stop-color="#fde047"/>
    </linearGradient>
    <radialGradient id="c800-glow">
      <stop offset="0%" stop-color="#ffffff" stop-opacity="1"/><stop offset="50%" stop-color="#fef9c3" stop-opacity="0.6"/><stop offset="100%" stop-color="#fbbf24" stop-opacity="0"/>
    </radialGradient>
  </defs>

  <!-- Multiple layered outer boundaries -->
  <circle cx="400" cy="400" r="384" fill="none" stroke="url(#c800-blue)" stroke-width="8"/>
  <circle cx="400" cy="400" r="376" fill="none" stroke="url(#c800-shimmer)" stroke-width="3" opacity="0.8"/>
  <circle cx="400" cy="400" r="368" fill="none" stroke="url(#c800-violet)" stroke-width="5" opacity="0.7"/>
  <circle cx="400" cy="400" r="360" fill="none" stroke="url(#c800-pink)" stroke-width="2" opacity="0.6"/>
  <circle cx="400" cy="400" r="352" fill="none" stroke="url(#c800-emerald)" stroke-width="4" opacity="0.7"/>

  <!-- Massive spiral arms - primary layer -->
  <path d="M 400 120 Q 230 145, 155 205 Q 95 275, 100 360 Q 108 445, 152 515" fill="none" stroke="url(#c800-pink)" stroke-width="24" opacity="0.85" stroke-linecap="round"/>
  <path d="M 400 120 Q 233 145, 158 205 Q 98 275, 103 360 Q 111 445, 155 515" fill="none" stroke="url(#c800-ruby)" stroke-width="12" opacity="0.75" stroke-linecap="round"/>

  <path d="M 400 120 A 260 260 0 0 1 615 245 Q 655 345, 625 445 Q 585 525, 505 585" fill="none" stroke="url(#c800-blue)" stroke-width="24" opacity="0.85" stroke-linecap="round"/>
  <path d="M 400 120 A 258 258 0 0 1 613 245 Q 653 345, 623 445 Q 583 525, 503 585" fill="none" stroke="url(#c800-violet)" stroke-width="12" opacity="0.75" stroke-linecap="round"/>

  <path d="M 175 535 Q 245 575, 325 605 Q 405 625, 485 615 Q 545 605, 585 565" fill="none" stroke="url(#c800-emerald)" stroke-width="20" opacity="0.8" stroke-linecap="round"/>
  <path d="M 178 535 Q 248 575, 328 605 Q 405 624, 483 615 Q 543 605, 583 565" fill="none" stroke="url(#c800-blue)" stroke-width="10" opacity="0.75" stroke-linecap="round"/>

  <!-- Inner orbital rings -->
  <circle cx="400" cy="400" r="240" fill="none" stroke="url(#c800-violet)" stroke-width="6" opacity="0.75"/>
  <circle cx="400" cy="400" r="210" fill="none" stroke="url(#c800-gold)" stroke-width="5" opacity="0.7"/>
  <circle cx="400" cy="400" r="180" fill="none" stroke="url(#c800-pink)" stroke-width="4" opacity="0.7"/>
  <circle cx="400" cy="400" r="150" fill="none" stroke="url(#c800-emerald)" stroke-width="4" opacity="0.65"/>

  <!-- Central galactic core with extensive layering -->
  <circle cx="400" cy="400" r="96" fill="url(#c800-glow)"/>
  <circle cx="400" cy="400" r="88" fill="url(#c800-gold)"/>
  <circle cx="400" cy="400" r="76" fill="#ffffff"/>
  <circle cx="400" cy="400" r="64" fill="url(#c800-ruby)"/>
  <circle cx="400" cy="400" r="52" fill="url(#c800-blue)"/>
  <circle cx="400" cy="400" r="40" fill="#ffffff"/>
  <circle cx="400" cy="400" r="28" fill="url(#c800-emerald)"/>
  <circle cx="400" cy="400" r="16" fill="#ffffff"/>

  <!-- Major star clusters -->
  <circle cx="230" cy="205" r="18" fill="url(#c800-blue)" opacity="0.98"/><circle cx="230" cy="205" r="12" fill="#ffffff"/><circle cx="230" cy="205" r="6" fill="url(#c800-gold)"/>
  <circle cx="155" cy="355" r="16" fill="url(#c800-pink)" opacity="0.95"/><circle cx="155" cy="355" r="10" fill="#ffffff"/><circle cx="155" cy="355" r="5" fill="url(#c800-ruby)"/>
  <circle cx="265" cy="545" r="18" fill="url(#c800-emerald)" opacity="0.98"/><circle cx="265" cy="545" r="12" fill="#ffffff"/><circle cx="265" cy="545" r="6" fill="url(#c800-blue)"/>
  <circle cx="555" cy="275" r="17" fill="url(#c800-violet)" opacity="0.96"/><circle cx="555" cy="275" r="11" fill="#ffffff"/><circle cx="555" cy="275" r="5.5" fill="url(#c800-pink)"/>
  <circle cx="515" cy="515" r="16" fill="url(#c800-ruby)" opacity="0.95"/><circle cx="515" cy="515" r="10" fill="#ffffff"/><circle cx="515" cy="515" r="5" fill="url(#c800-emerald)"/>

  <!-- Extensive nebula clouds -->
  <ellipse cx="215" cy="235" rx="68" ry="42" fill="url(#c800-violet)" opacity="0.45" transform="rotate(-30 215 235)"/>
  <ellipse cx="185" cy="395" rx="62" ry="38" fill="url(#c800-pink)" opacity="0.45" transform="rotate(28 185 395)"/>
  <ellipse cx="305" cy="565" rx="58" ry="35" fill="url(#c800-blue)" opacity="0.45" transform="rotate(-18 305 565)"/>
  <ellipse cx="545" cy="305" rx="54" ry="32" fill="url(#c800-emerald)" opacity="0.45" transform="rotate(42 545 305)"/>
  <ellipse cx="525" cy="495" rx="58" ry="36" fill="url(#c800-ruby)" opacity="0.45" transform="rotate(-14 525 495)"/>

  <!-- Secondary star clusters -->
  <circle cx="275" cy="295" r="13" fill="url(#c800-gold)" opacity="0.9"/><circle cx="275" cy="295" r="8" fill="#ffffff"/>
  <circle cx="205" cy="465" r="12" fill="url(#c800-blue)" opacity="0.88"/><circle cx="205" cy="465" r="7.5" fill="#ffffff"/>
  <circle cx="455" cy="365" r="13" fill="url(#c800-violet)" opacity="0.9"/><circle cx="455" cy="365" r="8" fill="#ffffff"/>
  <circle cx="385" cy="555" r="12" fill="url(#c800-emerald)" opacity="0.88"/><circle cx="385" cy="555" r="7.5" fill="#ffffff"/>

  <!-- Stellar jets from core -->
  <line x1="400" y1="304" x2="400" y2="220" stroke="url(#c800-gold)" stroke-width="5" opacity="0.75"/>
  <line x1="496" y1="400" x2="580" y2="400" stroke="url(#c800-ruby)" stroke-width="5" opacity="0.75"/>
  <line x1="400" y1="496" x2="400" y2="580" stroke="url(#c800-blue)" stroke-width="5" opacity="0.75"/>
  <line x1="304" y1="400" x2="220" y2="400" stroke="url(#c800-emerald)" stroke-width="5" opacity="0.75"/>

  <!-- Micro stars scattered throughout -->
  <circle cx="250" cy="180" r="2.5" fill="#ffffff" opacity="0.85"/>
  <circle cx="490" cy="210" r="2.3" fill="#ffffff" opacity="0.85"/>
  <circle cx="575" cy="430" r="2.6" fill="#ffffff" opacity="0.85"/>
  <circle cx="315" cy="595" r="2.4" fill="#ffffff" opacity="0.85"/>
  <circle cx="215" cy="515" r="2.5" fill="#ffffff" opacity="0.85"/>
</svg>
