<svg viewBox="0 0 200 200" xmlns="http://www.w3.org/2000/svg">
  <!-- Cosmic 200: Adding detail - multiple spiral arms and nebulae -->
  <defs>
    <radialGradient id="c200-gold">
      <stop offset="0%" stop-color="#fef9c3"/>
      <stop offset="50%" stop-color="#fde047"/>
      <stop offset="100%" stop-color="#b45309"/>
    </radialGradient>
    <radialGradient id="c200-blue">
      <stop offset="0%" stop-color="#dbeafe"/>
      <stop offset="50%" stop-color="#60a5fa"/>
      <stop offset="100%" stop-color="#1e3a8a"/>
    </radialGradient>
    <radialGradient id="c200-pink">
      <stop offset="0%" stop-color="#fce7f3"/>
      <stop offset="50%" stop-color="#f472b6"/>
      <stop offset="100%" stop-color="#9f1239"/>
    </radialGradient>
    <radialGradient id="c200-violet">
      <stop offset="0%" stop-color="#ede9fe"/>
      <stop offset="50%" stop-color="#a78bfa"/>
      <stop offset="100%" stop-color="#5b21b6"/>
    </radialGradient>
    <radialGradient id="c200-emerald">
      <stop offset="0%" stop-color="#d1fae5"/>
      <stop offset="50%" stop-color="#34d399"/>
      <stop offset="100%" stop-color="#047857"/>
    </radialGradient>
  </defs>

  <!-- Outer galaxy boundary -->
  <circle cx="100" cy="100" r="96" fill="none" stroke="url(#c200-blue)" stroke-width="3"/>
  <circle cx="100" cy="100" r="88" fill="none" stroke="url(#c200-violet)" stroke-width="1.5" opacity="0.6"/>

  <!-- Multiple spiral arms -->
  <path d="M 100 30 Q 65 38, 45 55 Q 28 75, 30 98 Q 32 115, 45 130"
        fill="none" stroke="url(#c200-pink)" stroke-width="8" opacity="0.75" stroke-linecap="round"/>
  <path d="M 100 30 A 65 65 0 0 1 155 65 Q 165 90, 155 115 Q 145 135, 125 148"
        fill="none" stroke="url(#c200-blue)" stroke-width="8" opacity="0.75" stroke-linecap="round"/>
  <path d="M 50 145 Q 70 155, 90 160 Q 110 163, 130 158"
        fill="none" stroke="url(#c200-emerald)" stroke-width="7" opacity="0.7" stroke-linecap="round"/>

  <!-- Inner orbital rings -->
  <circle cx="100" cy="100" r="60" fill="none" stroke="url(#c200-violet)" stroke-width="2" opacity="0.6"/>
  <circle cx="100" cy="100" r="45" fill="none" stroke="url(#c200-gold)" stroke-width="1.5" opacity="0.5"/>

  <!-- Central galactic core -->
  <circle cx="100" cy="100" r="24" fill="url(#c200-gold)"/>
  <circle cx="100" cy="100" r="18" fill="#ffffff"/>
  <circle cx="100" cy="100" r="12" fill="url(#c200-gold)"/>
  <circle cx="100" cy="100" r="6" fill="#ffffff"/>

  <!-- Star clusters on spiral arms -->
  <circle cx="65" cy="55" r="6" fill="url(#c200-blue)" opacity="0.95"/>
  <circle cx="65" cy="55" r="3" fill="#ffffff"/>

  <circle cx="45" cy="95" r="5" fill="url(#c200-pink)" opacity="0.92"/>
  <circle cx="45" cy="95" r="2.5" fill="#ffffff"/>

  <circle cx="75" cy="145" r="5.5" fill="url(#c200-emerald)" opacity="0.93"/>
  <circle cx="75" cy="145" r="2.8" fill="#ffffff"/>

  <circle cx="140" cy="75" r="5" fill="url(#c200-violet)" opacity="0.92"/>
  <circle cx="140" cy="75" r="2.5" fill="#ffffff"/>

  <!-- Nebula clouds -->
  <ellipse cx="60" cy="65" rx="15" ry="10" fill="url(#c200-violet)" opacity="0.35" transform="rotate(-25 60 65)"/>
  <ellipse cx="130" cy="85" rx="14" ry="8" fill="url(#c200-pink)" opacity="0.35" transform="rotate(35 130 85)"/>
  <ellipse cx="85" cy="140" rx="12" ry="7" fill="url(#c200-blue)" opacity="0.35" transform="rotate(-15 85 140)"/>

  <!-- Background stars -->
  <circle cx="25" cy="30" r="1.5" fill="#ffffff" opacity="0.9"/>
  <circle cx="175" cy="35" r="1.3" fill="#dbeafe" opacity="0.8"/>
  <circle cx="170" cy="165" r="1.4" fill="#fce7f3" opacity="0.85"/>
  <circle cx="30" cy="170" r="1.2" fill="#d1fae5" opacity="0.8"/>
</svg>
