<svg viewBox="0 0 800 800" xmlns="http://www.w3.org/2000/svg">
  <!-- Fantasy 800: Highly detailed interlacing with extensive knotwork -->
  <defs>
    <radialGradient id="f800-emerald">
      <stop offset="0%" stop-color="#d1fae5"/>
      <stop offset="30%" stop-color="#6ee7b7"/>
      <stop offset="70%" stop-color="#10b981"/>
      <stop offset="100%" stop-color="#047857"/>
    </radialGradient>
    <radialGradient id="f800-sapphire">
      <stop offset="0%" stop-color="#dbeafe"/>
      <stop offset="30%" stop-color="#93c5fd"/>
      <stop offset="70%" stop-color="#3b82f6"/>
      <stop offset="100%" stop-color="#1e3a8a"/>
    </radialGradient>
    <radialGradient id="f800-gold">
      <stop offset="0%" stop-color="#fef9c3"/>
      <stop offset="30%" stop-color="#fde047"/>
      <stop offset="70%" stop-color="#eab308"/>
      <stop offset="100%" stop-color="#a16207"/>
    </radialGradient>
    <radialGradient id="f800-violet">
      <stop offset="0%" stop-color="#ede9fe"/>
      <stop offset="30%" stop-color="#c4b5fd"/>
      <stop offset="70%" stop-color="#8b5cf6"/>
      <stop offset="100%" stop-color="#5b21b6"/>
    </radialGradient>
    <radialGradient id="f800-turquoise">
      <stop offset="0%" stop-color="#ccfbf1"/>
      <stop offset="30%" stop-color="#5eead4"/>
      <stop offset="70%" stop-color="#14b8a6"/>
      <stop offset="100%" stop-color="#0f766e"/>
    </radialGradient>
    <radialGradient id="f800-rose">
      <stop offset="0%" stop-color="#fce7f3"/>
      <stop offset="30%" stop-color="#f9a8d4"/>
      <stop offset="70%" stop-color="#ec4899"/>
      <stop offset="100%" stop-color="#9f1239"/>
    </radialGradient>
    <linearGradient id="f800-shimmer" x1="0%" y1="0%" x2="100%" y2="100%">
      <stop offset="0%" stop-color="#6ee7b7"/>
      <stop offset="16%" stop-color="#93c5fd"/>
      <stop offset="33%" stop-color="#fde047"/>
      <stop offset="50%" stop-color="#c4b5fd"/>
      <stop offset="66%" stop-color="#5eead4"/>
      <stop offset="83%" stop-color="#f9a8d4"/>
      <stop offset="100%" stop-color="#6ee7b7"/>
    </linearGradient>
    <radialGradient id="f800-glow">
      <stop offset="0%" stop-color="#ffffff" stop-opacity="1"/>
      <stop offset="50%" stop-color="#fef9c3" stop-opacity="0.6"/>
      <stop offset="100%" stop-color="#fde047" stop-opacity="0"/>
    </radialGradient>
  </defs>

  <!-- Multiple layered outer circles -->
  <circle cx="400" cy="400" r="384" fill="none" stroke="url(#f800-emerald)" stroke-width="8"/>
  <circle cx="400" cy="400" r="376" fill="none" stroke="url(#f800-shimmer)" stroke-width="3" opacity="0.8"/>
  <circle cx="400" cy="400" r="368" fill="none" stroke="url(#f800-sapphire)" stroke-width="5" opacity="0.7"/>
  <circle cx="400" cy="400" r="360" fill="none" stroke="url(#f800-gold)" stroke-width="2" opacity="0.6"/>
  <circle cx="400" cy="400" r="352" fill="none" stroke="url(#f800-violet)" stroke-width="4" opacity="0.7"/>

  <!-- Large primary trinity circles with multiple strokes -->
  <circle cx="400" cy="240" r="140" fill="none" stroke="url(#f800-emerald)" stroke-width="16"/>
  <circle cx="400" cy="242" r="138" fill="none" stroke="#ffffff" stroke-width="3" opacity="0.6"/>
  <circle cx="400" cy="244" r="136" fill="none" stroke="url(#f800-turquoise)" stroke-width="2" opacity="0.5"/>

  <circle cx="280" cy="440" r="140" fill="none" stroke="url(#f800-sapphire)" stroke-width="16"/>
  <circle cx="282" cy="440" r="138" fill="none" stroke="#ffffff" stroke-width="3" opacity="0.6"/>
  <circle cx="284" cy="440" r="136" fill="none" stroke="url(#f800-violet)" stroke-width="2" opacity="0.5"/>

  <circle cx="520" cy="440" r="140" fill="none" stroke="url(#f800-gold)" stroke-width="16"/>
  <circle cx="520" cy="442" r="138" fill="none" stroke="#ffffff" stroke-width="3" opacity="0.6"/>
  <circle cx="520" cy="444" r="136" fill="none" stroke="url(#f800-rose)" stroke-width="2" opacity="0.5"/>

  <!-- Multiple interlocking rings at various scales -->
  <circle cx="400" cy="400" r="180" fill="none" stroke="url(#f800-violet)" stroke-width="8" opacity="0.8"/>
  <circle cx="400" cy="400" r="175" fill="none" stroke="#ffffff" stroke-width="1.5" opacity="0.5"/>
  <circle cx="400" cy="400" r="150" fill="none" stroke="url(#f800-turquoise)" stroke-width="7" opacity="0.75"/>
  <circle cx="400" cy="400" r="145" fill="none" stroke="#ffffff" stroke-width="1.5" opacity="0.5"/>
  <circle cx="400" cy="400" r="120" fill="none" stroke="url(#f800-gold)" stroke-width="6" opacity="0.75"/>
  <circle cx="400" cy="400" r="115" fill="none" stroke="#ffffff" stroke-width="1.5" opacity="0.5"/>
  <circle cx="400" cy="400" r="90" fill="none" stroke="url(#f800-rose)" stroke-width="5" opacity="0.7"/>

  <!-- Complex weave ellipses - primary layer -->
  <ellipse cx="400" cy="300" rx="100" ry="60" fill="none" stroke="url(#f800-emerald)" stroke-width="8" transform="rotate(30 400 300)"/>
  <ellipse cx="400" cy="300" rx="96" ry="56" fill="none" stroke="#ffffff" stroke-width="2" opacity="0.6" transform="rotate(30 400 300)"/>

  <ellipse cx="320" cy="420" rx="100" ry="60" fill="none" stroke="url(#f800-sapphire)" stroke-width="8" transform="rotate(-30 320 420)"/>
  <ellipse cx="320" cy="420" rx="96" ry="56" fill="none" stroke="#ffffff" stroke-width="2" opacity="0.6" transform="rotate(-30 320 420)"/>

  <ellipse cx="480" cy="420" rx="100" ry="60" fill="none" stroke="url(#f800-gold)" stroke-width="8" transform="rotate(30 480 420)"/>
  <ellipse cx="480" cy="420" rx="96" ry="56" fill="none" stroke="#ffffff" stroke-width="2" opacity="0.6" transform="rotate(30 480 420)"/>

  <!-- Secondary weave layer -->
  <ellipse cx="350" cy="350" rx="80" ry="50" fill="none" stroke="url(#f800-violet)" stroke-width="6" transform="rotate(45 350 350)" opacity="0.75"/>
  <ellipse cx="450" cy="350" rx="80" ry="50" fill="none" stroke="url(#f800-turquoise)" stroke-width="6" transform="rotate(-45 450 350)" opacity="0.75"/>
  <ellipse cx="350" cy="450" rx="80" ry="50" fill="none" stroke="url(#f800-turquoise)" stroke-width="6" transform="rotate(-45 350 450)" opacity="0.75"/>
  <ellipse cx="450" cy="450" rx="80" ry="50" fill="none" stroke="url(#f800-violet)" stroke-width="6" transform="rotate(45 450 450)" opacity="0.75"/>

  <!-- Tertiary weave layer - finer details -->
  <ellipse cx="370" cy="330" rx="60" ry="35" fill="none" stroke="url(#f800-emerald)" stroke-width="4" transform="rotate(60 370 330)" opacity="0.7"/>
  <ellipse cx="430" cy="330" rx="60" ry="35" fill="none" stroke="url(#f800-sapphire)" stroke-width="4" transform="rotate(-60 430 330)" opacity="0.7"/>
  <ellipse cx="370" cy="470" rx="60" ry="35" fill="none" stroke="url(#f800-gold)" stroke-width="4" transform="rotate(-60 370 470)" opacity="0.7"/>
  <ellipse cx="430" cy="470" rx="60" ry="35" fill="none" stroke="url(#f800-rose)" stroke-width="4" transform="rotate(60 430 470)" opacity="0.7"/>

  <!-- Quaternary weave - micro details -->
  <ellipse cx="300" cy="300" rx="50" ry="30" fill="none" stroke="url(#f800-violet)" stroke-width="3" transform="rotate(20 300 300)" opacity="0.65"/>
  <ellipse cx="500" cy="300" rx="50" ry="30" fill="none" stroke="url(#f800-turquoise)" stroke-width="3" transform="rotate(-20 500 300)" opacity="0.65"/>
  <ellipse cx="500" cy="500" rx="50" ry="30" fill="none" stroke="url(#f800-emerald)" stroke-width="3" transform="rotate(20 500 500)" opacity="0.65"/>
  <ellipse cx="300" cy="500" rx="50" ry="30" fill="none" stroke="url(#f800-sapphire)" stroke-width="3" transform="rotate(-20 300 500)" opacity="0.65"/>

  <!-- Primary trinity nodes with extensive layering -->
  <circle cx="400" cy="280" r="30" fill="url(#f800-glow)"/>
  <circle cx="400" cy="280" r="28" fill="url(#f800-emerald)"/>
  <circle cx="400" cy="280" r="20" fill="#ffffff" opacity="0.95"/>
  <circle cx="400" cy="280" r="12" fill="url(#f800-emerald)"/>
  <circle cx="400" cy="280" r="6" fill="#ffffff"/>

  <circle cx="310" cy="420" r="30" fill="url(#f800-glow)"/>
  <circle cx="310" cy="420" r="28" fill="url(#f800-sapphire)"/>
  <circle cx="310" cy="420" r="20" fill="#ffffff" opacity="0.95"/>
  <circle cx="310" cy="420" r="12" fill="url(#f800-sapphire)"/>
  <circle cx="310" cy="420" r="6" fill="#ffffff"/>

  <circle cx="490" cy="420" r="30" fill="url(#f800-glow)"/>
  <circle cx="490" cy="420" r="28" fill="url(#f800-gold)"/>
  <circle cx="490" cy="420" r="20" fill="#ffffff" opacity="0.95"/>
  <circle cx="490" cy="420" r="12" fill="url(#f800-gold)"/>
  <circle cx="490" cy="420" r="6" fill="#ffffff"/>

  <!-- Trinity connection threads - main beams -->
  <line x1="400" y1="280" x2="310" y2="420" stroke="url(#f800-shimmer)" stroke-width="6" opacity="0.7"/>
  <line x1="400" y1="280" x2="490" y2="420" stroke="url(#f800-shimmer)" stroke-width="6" opacity="0.7"/>
  <line x1="310" y1="420" x2="490" y2="420" stroke="url(#f800-shimmer)" stroke-width="6" opacity="0.7"/>

  <!-- Trinity glow threads -->
  <line x1="400" y1="280" x2="310" y2="420" stroke="#ffffff" stroke-width="2" opacity="0.5"/>
  <line x1="400" y1="280" x2="490" y2="420" stroke="#ffffff" stroke-width="2" opacity="0.5"/>
  <line x1="310" y1="420" x2="490" y2="420" stroke="#ffffff" stroke-width="2" opacity="0.5"/>

  <!-- Complex curved connection paths -->
  <path d="M 400 280 Q 380 330 360 380" fill="none" stroke="url(#f800-emerald)" stroke-width="3.5" opacity="0.7"/>
  <path d="M 400 280 Q 420 330 440 380" fill="none" stroke="url(#f800-gold)" stroke-width="3.5" opacity="0.7"/>
  <path d="M 310 420 Q 340 400 370 380" fill="none" stroke="url(#f800-sapphire)" stroke-width="3.5" opacity="0.7"/>
  <path d="M 490 420 Q 460 400 430 380" fill="none" stroke="url(#f800-gold)" stroke-width="3.5" opacity="0.7"/>

  <!-- Additional curved pathways -->
  <path d="M 400 280 Q 360 300 320 320" fill="none" stroke="url(#f800-turquoise)" stroke-width="2.5" opacity="0.6"/>
  <path d="M 400 280 Q 440 300 480 320" fill="none" stroke="url(#f800-violet)" stroke-width="2.5" opacity="0.6"/>
  <path d="M 310 420 Q 330 440 350 460" fill="none" stroke="url(#f800-rose)" stroke-width="2.5" opacity="0.6"/>
  <path d="M 490 420 Q 470 440 450 460" fill="none" stroke="url(#f800-emerald)" stroke-width="2.5" opacity="0.6"/>

  <!-- Central nexus with extensive layering -->
  <circle cx="400" cy="380" r="50" fill="url(#f800-glow)"/>
  <circle cx="400" cy="380" r="45" fill="url(#f800-violet)"/>
  <circle cx="400" cy="380" r="38" fill="#ffffff"/>
  <circle cx="400" cy="380" r="32" fill="url(#f800-gold)"/>
  <circle cx="400" cy="380" r="26" fill="url(#f800-sapphire)"/>
  <circle cx="400" cy="380" r="20" fill="#ffffff"/>
  <circle cx="400" cy="380" r="14" fill="url(#f800-emerald)"/>
  <circle cx="400" cy="380" r="8" fill="#ffffff"/>

  <!-- Central geometric pattern -->
  <circle cx="400" cy="380" r="35" fill="none" stroke="url(#f800-shimmer)" stroke-width="2" opacity="0.7"/>
  <line x1="375" y1="380" x2="425" y2="380" stroke="#ffffff" stroke-width="1.5" opacity="0.6"/>
  <line x1="400" y1="355" x2="400" y2="405" stroke="#ffffff" stroke-width="1.5" opacity="0.6"/>
  <line x1="382" y1="362" x2="418" y2="398" stroke="#ffffff" stroke-width="1" opacity="0.5"/>
  <line x1="418" y1="362" x2="382" y2="398" stroke="#ffffff" stroke-width="1" opacity="0.5"/>

  <!-- Radiating luminous threads to cardinal points -->
  <line x1="400" y1="280" x2="400" y2="120" stroke="url(#f800-emerald)" stroke-width="4" opacity="0.7"/>
  <line x1="310" y1="420" x2="180" y2="500" stroke="url(#f800-sapphire)" stroke-width="4" opacity="0.7"/>
  <line x1="490" y1="420" x2="620" y2="500" stroke="url(#f800-gold)" stroke-width="4" opacity="0.7"/>

  <!-- Additional radial threads -->
  <line x1="400" y1="380" x2="400" y2="180" stroke="url(#f800-shimmer)" stroke-width="2.5" opacity="0.6"/>
  <line x1="400" y1="380" x2="620" y2="380" stroke="url(#f800-shimmer)" stroke-width="2.5" opacity="0.6"/>
  <line x1="400" y1="380" x2="400" y2="620" stroke="url(#f800-shimmer)" stroke-width="2.5" opacity="0.6"/>
  <line x1="400" y1="380" x2="180" y2="380" stroke="url(#f800-shimmer)" stroke-width="2.5" opacity="0.6"/>

  <!-- Diagonal radial threads -->
  <line x1="400" y1="380" x2="540" y2="260" stroke="url(#f800-violet)" stroke-width="2" opacity="0.55"/>
  <line x1="400" y1="380" x2="540" y2="540" stroke="url(#f800-turquoise)" stroke-width="2" opacity="0.55"/>
  <line x1="400" y1="380" x2="260" y2="540" stroke="url(#f800-rose)" stroke-width="2" opacity="0.55"/>
  <line x1="400" y1="380" x2="260" y2="260" stroke="url(#f800-emerald)" stroke-width="2" opacity="0.55"/>

  <!-- Outer power nodes at cardinal points -->
  <circle cx="400" cy="60" r="20" fill="url(#f800-emerald)" opacity="0.95"/>
  <circle cx="400" cy="60" r="14" fill="#ffffff"/>
  <circle cx="400" cy="60" r="8" fill="url(#f800-emerald)"/>

  <circle cx="740" cy="400" r="20" fill="url(#f800-sapphire)" opacity="0.95"/>
  <circle cx="740" cy="400" r="14" fill="#ffffff"/>
  <circle cx="740" cy="400" r="8" fill="url(#f800-sapphire)"/>

  <circle cx="400" cy="740" r="20" fill="url(#f800-gold)" opacity="0.95"/>
  <circle cx="400" cy="740" r="14" fill="#ffffff"/>
  <circle cx="400" cy="740" r="8" fill="url(#f800-gold)"/>

  <circle cx="60" cy="400" r="20" fill="url(#f800-violet)" opacity="0.95"/>
  <circle cx="60" cy="400" r="14" fill="#ffffff"/>
  <circle cx="60" cy="400" r="8" fill="url(#f800-violet)"/>

  <!-- Intermediate power nodes at diagonals -->
  <circle cx="540" cy="260" r="16" fill="url(#f800-turquoise)" opacity="0.9"/>
  <circle cx="540" cy="260" r="10" fill="#ffffff"/>

  <circle cx="540" cy="540" r="16" fill="url(#f800-emerald)" opacity="0.9"/>
  <circle cx="540" cy="540" r="10" fill="#ffffff"/>

  <circle cx="260" cy="540" r="16" fill="url(#f800-sapphire)" opacity="0.9"/>
  <circle cx="260" cy="540" r="10" fill="#ffffff"/>

  <circle cx="260" cy="260" r="16" fill="url(#f800-gold)" opacity="0.9"/>
  <circle cx="260" cy="260" r="10" fill="#ffffff"/>

  <!-- Extensive decorative Celtic loops at multiple scales -->
  <ellipse cx="300" cy="300" rx="40" ry="24" fill="none" stroke="url(#f800-emerald)" stroke-width="4" transform="rotate(-45 300 300)" opacity="0.75"/>
  <ellipse cx="500" cy="300" rx="40" ry="24" fill="none" stroke="url(#f800-sapphire)" stroke-width="4" transform="rotate(45 500 300)" opacity="0.75"/>
  <ellipse cx="500" cy="500" rx="40" ry="24" fill="none" stroke="url(#f800-gold)" stroke-width="4" transform="rotate(-45 500 500)" opacity="0.75"/>
  <ellipse cx="300" cy="500" rx="40" ry="24" fill="none" stroke="url(#f800-violet)" stroke-width="4" transform="rotate(45 300 500)" opacity="0.75"/>

  <!-- Smaller Celtic decorations -->
  <ellipse cx="330" cy="330" rx="30" ry="18" fill="none" stroke="url(#f800-turquoise)" stroke-width="3" transform="rotate(15 330 330)" opacity="0.7"/>
  <ellipse cx="470" cy="330" rx="30" ry="18" fill="none" stroke="url(#f800-rose)" stroke-width="3" transform="rotate(-15 470 330)" opacity="0.7"/>
  <ellipse cx="470" cy="470" rx="30" ry="18" fill="none" stroke="url(#f800-emerald)" stroke-width="3" transform="rotate(15 470 470)" opacity="0.7"/>
  <ellipse cx="330" cy="470" rx="30" ry="18" fill="none" stroke="url(#f800-sapphire)" stroke-width="3" transform="rotate(-15 330 470)" opacity="0.7"/>

  <!-- Luminous particles scattered throughout -->
  <circle cx="370" cy="330" r="6" fill="#6ee7b7" opacity="0.9"/>
  <circle cx="430" cy="330" r="6" fill="#93c5fd" opacity="0.9"/>
  <circle cx="430" cy="430" r="6" fill="#fde047" opacity="0.9"/>
  <circle cx="370" cy="430" r="6" fill="#c4b5fd" opacity="0.9"/>

  <!-- Micro particles -->
  <circle cx="350" cy="360" r="4" fill="#5eead4" opacity="0.85"/>
  <circle cx="450" cy="360" r="4" fill="#f9a8d4" opacity="0.85"/>
  <circle cx="450" cy="440" r="4" fill="#6ee7b7" opacity="0.85"/>
  <circle cx="350" cy="440" r="4" fill="#93c5fd" opacity="0.85"/>

  <!-- Additional decorative nodes at various positions -->
  <circle cx="340" cy="280" r="10" fill="url(#f800-violet)" opacity="0.8"/>
  <circle cx="460" cy="280" r="10" fill="url(#f800-turquoise)" opacity="0.8"/>
  <circle cx="280" cy="380" r="10" fill="url(#f800-rose)" opacity="0.8"/>
  <circle cx="520" cy="380" r="10" fill="url(#f800-emerald)" opacity="0.8"/>
  <circle cx="340" cy="480" r="10" fill="url(#f800-sapphire)" opacity="0.8"/>
  <circle cx="460" cy="480" r="10" fill="url(#f800-gold)" opacity="0.8"/>
</svg>
