<svg viewBox="0 0 200 200" xmlns="http://www.w3.org/2000/svg">
  <!-- Complex quantum circuit architecture -->
  <defs>
    <clipPath id="tech-clip"><circle cx="100" cy="100" r="96"/></clipPath>
    <pattern id="grid" width="20" height="20" patternUnits="userSpaceOnUse">
      <path d="M 20 0 L 0 0 0 20" fill="none" stroke="#3a3a3a" stroke-width="0.5" opacity="0.3"/>
    </pattern>
  </defs>

  <!-- Outer technological frame -->
  <circle cx="100" cy="100" r="96" fill="none" stroke="#2a2a2a" stroke-width="3"/>
  <circle cx="100" cy="100" r="90" fill="none" stroke="#3a3a3a" stroke-width="1" stroke-dasharray="5,3"/>
  <circle cx="100" cy="100" r="84" fill="none" stroke="#2a2a2a" stroke-width="1"/>

  <!-- Grid background -->
  <circle cx="100" cy="100" r="80" fill="url(#grid)"/>

  <g clip-path="url(#tech-clip)">
    <!-- Central quantum processor -->
    <rect x="85" y="85" width="30" height="30" fill="none" stroke="#1a1a1a" stroke-width="3"/>
    <rect x="90" y="90" width="20" height="20" fill="#2a2a2a"/>
    <circle cx="100" cy="100" r="8" fill="none" stroke="#1a1a1a" stroke-width="2"/>
    <circle cx="100" cy="100" r="4" fill="#1a1a1a"/>

    <!-- Primary data highways -->
    <path d="M 100 115 L 100 150 M 95 150 L 105 150" stroke="#1a1a1a" stroke-width="3" fill="none"/>
    <path d="M 100 85 L 100 50 M 95 50 L 105 50" stroke="#1a1a1a" stroke-width="3" fill="none"/>
    <path d="M 115 100 L 150 100 M 150 95 L 150 105" stroke="#1a1a1a" stroke-width="3" fill="none"/>
    <path d="M 85 100 L 50 100 M 50 95 L 50 105" stroke="#1a1a1a" stroke-width="3" fill="none"/>

    <!-- Secondary pathways -->
    <path d="M 112 112 L 135 135" stroke="#2a2a2a" stroke-width="2" stroke-dasharray="4,2"/>
    <path d="M 88 88 L 65 65" stroke="#2a2a2a" stroke-width="2" stroke-dasharray="4,2"/>
    <path d="M 112 88 L 135 65" stroke="#2a2a2a" stroke-width="2" stroke-dasharray="4,2"/>
    <path d="M 88 112 L 65 135" stroke="#2a2a2a" stroke-width="2" stroke-dasharray="4,2"/>

    <!-- Circuit nodes with detail -->
    <g>
      <circle cx="100" cy="35" r="6" fill="none" stroke="#1a1a1a" stroke-width="2"/>
      <circle cx="100" cy="35" r="3" fill="#2a2a2a"/>
    </g>
    <g>
      <circle cx="165" cy="100" r="6" fill="none" stroke="#1a1a1a" stroke-width="2"/>
      <circle cx="165" cy="100" r="3" fill="#2a2a2a"/>
    </g>
    <g>
      <circle cx="100" cy="165" r="6" fill="none" stroke="#1a1a1a" stroke-width="2"/>
      <circle cx="100" cy="165" r="3" fill="#2a2a2a"/>
    </g>
    <g>
      <circle cx="35" cy="100" r="6" fill="none" stroke="#1a1a1a" stroke-width="2"/>
      <circle cx="35" cy="100" r="3" fill="#2a2a2a"/>
    </g>

    <!-- Diagonal nodes -->
    <circle cx="141" cy="59" r="4" fill="#2a2a2a"/>
    <circle cx="59" cy="59" r="4" fill="#2a2a2a"/>
    <circle cx="59" cy="141" r="4" fill="#2a2a2a"/>
    <circle cx="141" cy="141" r="4" fill="#2a2a2a"/>

    <!-- Micro-components -->
    <rect x="155" y="30" width="8" height="8" fill="none" stroke="#2a2a2a" stroke-width="1"/>
    <rect x="30" y="30" width="8" height="8" fill="none" stroke="#2a2a2a" stroke-width="1"/>
    <rect x="30" y="155" width="8" height="8" fill="none" stroke="#2a2a2a" stroke-width="1"/>
    <rect x="155" y="155" width="8" height="8" fill="none" stroke="#2a2a2a" stroke-width="1"/>

    <!-- Data flow arrows -->
    <path d="M 100 60 L 96 65 L 104 65 Z" fill="#1a1a1a"/>
    <path d="M 100 140 L 96 135 L 104 135 Z" fill="#1a1a1a"/>
    <path d="M 60 100 L 65 96 L 65 104 Z" fill="#1a1a1a"/>
    <path d="M 140 100 L 135 96 L 135 104 Z" fill="#1a1a1a"/>

    <!-- Connection traces -->
    <line x1="50" y1="40" x2="50" y2="160" stroke="#3a3a3a" stroke-width="0.5" opacity="0.5"/>
    <line x1="150" y1="40" x2="150" y2="160" stroke="#3a3a3a" stroke-width="0.5" opacity="0.5"/>
    <line x1="40" y1="50" x2="160" y2="50" stroke="#3a3a3a" stroke-width="0.5" opacity="0.5"/>
    <line x1="40" y1="150" x2="160" y2="150" stroke="#3a3a3a" stroke-width="0.5" opacity="0.5"/>

    <!-- Tech panel indicators -->
    <rect x="20" y="20" width="15" height="3" fill="#2a2a2a" opacity="0.5"/>
    <rect x="165" y="20" width="15" height="3" fill="#2a2a2a" opacity="0.5"/>
    <rect x="20" y="177" width="15" height="3" fill="#2a2a2a" opacity="0.5"/>
    <rect x="165" y="177" width="15" height="3" fill="#2a2a2a" opacity="0.5"/>
  </g>
</svg>
