<?xml version="1.0" encoding="UTF-8" standalone="no"?>
<!DOCTYPE svg PUBLIC "-//W3C//DTD SVG 1.1//EN" "http://www.w3.org/Graphics/SVG/1.1/DTD/svg11.dtd">
<svg width="100%" height="100%" viewBox="0 0 2731 462" version="1.1" xmlns="http://www.w3.org/2000/svg" xmlns:xlink="http://www.w3.org/1999/xlink" xml:space="preserve" xmlns:serif="http://www.serif.com/" style="fill-rule:evenodd;clip-rule:evenodd;stroke-linecap:round;stroke-linejoin:round;stroke-miterlimit:1.5;">
    <g transform="matrix(2.66667,0,0,2.66667,0,0)">
        <g transform="matrix(2.18803,0,0,2.18987,0,0)">
            <path d="M102,15L118,34L132,16L143,16L125,36L124,54L117,67L110,60L110,36C110,36 94.774,23.08 87,23L102,15Z" style="fill:white;stroke:white;stroke-width:1px;"/>
        </g>
        <g transform="matrix(2.18803,0,0,2.18987,0,0)">
            <path d="M72,16L84,16L84,60L73,60L73,27C73,27 68.905,22.652 66,23C66,23 70.847,16.23 72,16Z" style="fill:white;stroke:white;stroke-width:1px;"/>
        </g>
        <g transform="matrix(2.18803,0,0,2.18987,0,0)">
            <path d="M24,16L42,16C42,16 49.7,37.541 54,43C58.3,48.459 59.158,29.145 61,27L68,30L54,60C54,60 37.886,24.859 33,24C28.114,23.141 24,23 24,23L24,16Z" style="fill:white;stroke:white;stroke-width:1px;"/>
        </g>
        <g transform="matrix(2.18803,0,0,2.18987,0,0)">
            <path d="M24,28L35,28L35,60L25,60L24,28Z" style="fill:white;stroke:white;stroke-width:1px;"/>
        </g>
        <g transform="matrix(2.18803,0,0,2.18987,0,0)">
            <path d="M141,23L152,16L197,16C197,16 193.212,21.287 193,23L155,23C155,23 152.206,26.613 150,27C147.794,27.387 139.812,25.154 141,23" style="fill:white;stroke:white;stroke-width:1px;"/>
        </g>
        <g transform="matrix(2.18803,0,0,2.18987,0,0)">
            <path d="M164,27L179,27L180,54C180,54 172.034,62.948 172,67L164,60L164,27Z" style="fill:white;stroke:white;stroke-width:1px;"/>
        </g>
        <g transform="matrix(2.18803,0,0,2.18987,0,0)">
            <path d="M198,23L207,15L219,15L219,61L208,61L208,27C208,27 203.478,23.609 198,23Z" style="fill:white;stroke:white;stroke-width:1px;"/>
        </g>
        <g transform="matrix(2.18803,0,0,2.18987,0,0)">
            <path d="M226,42C226,42 222.252,46.673 223,49L237,49L237,60L253,60L253,16L238,16L238,42L226,42Z" style="fill:white;stroke:white;stroke-width:1px;"/>
        </g>
        <g transform="matrix(2.18803,0,0,2.18987,0,0)">
            <path d="M270,27L282,27L276,42L289,42L293,50L274,50L270,60L260,60L270,27Z" style="fill:white;stroke:white;stroke-width:1px;"/>
        </g>
        <g transform="matrix(2.18803,0,0,2.18987,0,0)">
            <path d="M272,22C272,22 281.848,16.132 285,16C288.152,15.868 297,16 297,16C297,16 312.44,57.827 312,60L300,60C300,60 287.589,25.098 282,24C276.411,22.902 272,22 272,22Z" style="fill:white;stroke:white;stroke-width:1px;"/>
        </g>
        <g transform="matrix(2.18803,0,0,2.18987,0,0)">
            <path d="M312,23L328,16L343,33L358,16L369,16L349,36C349,36 347.912,39.557 349,40C350.088,40.443 363.3,53.197 375,53L359,61L344,44L329,60L316,60C316,60 321.21,58.122 322,56C322.79,53.878 335.176,43.114 337,39C338.824,34.886 337.293,36.184 336,35C334.707,33.816 319.255,21.416 312,23Z" style="fill:white;stroke:white;stroke-width:1px;"/>
        </g>
        <g transform="matrix(2.18803,0,0,2.18987,0,0)">
            <path d="M381,16L396,16L396,54C396,54 389.256,62.704 389,67L381,61L381,16Z" style="fill:white;stroke:white;stroke-width:1px;"/>
        </g>
        <g transform="matrix(2.18803,0,0,2.18987,0,0)">
            <path d="M406,16L451,17C451,17 444.061,22.216 444,26L438,22L403,22C403,22 404.064,15.283 406,16Z" style="fill:white;stroke:white;stroke-width:1px;"/>
        </g>
        <g transform="matrix(2.18803,0,0,2.18987,0,0)">
            <path d="M403,27L414,27C414,27 448.152,48.366 446,56C443.848,63.634 441.852,60.532 440,61L393,60C393,60 405.098,50.849 405,50C405,50 407.355,52.742 410,53L429,53C429,53 434.168,50.949 430,48C425.832,45.051 409.085,28.619 403,27Z" style="fill:white;stroke:white;stroke-width:1px;"/>
        </g>
    </g>
</svg>
