<?xml version="1.0" standalone="no"?>
<!DOCTYPE svg PUBLIC "-//W3C//DTD SVG 20010904//EN"
 "http://www.w3.org/TR/2001/REC-SVG-20010904/DTD/svg10.dtd">
<svg version="1.0" xmlns="http://www.w3.org/2000/svg"
 width="949.000000pt" height="948.000000pt" viewBox="0 0 949.000000 948.000000"
 preserveAspectRatio="xMidYMid meet">

<g transform="translate(0.000000,948.000000) scale(0.100000,-0.100000)"
fill="#000000" stroke="none">
<path d="M4420 9469 c-2037 -137 -3765 -1576 -4271 -3557 -194 -761 -194
-1583 0 -2344 464 -1819 1963 -3196 3811 -3502 289 -48 442 -60 775 -60 379
-1 615 21 955 90 471 94 988 289 1405 529 634 365 1190 885 1592 1490 520 781
793 1687 793 2625 0 2044 -1304 3850 -3249 4500 -564 188 -1205 269 -1811 229z
m635 -249 c934 -69 1807 -414 2522 -998 807 -660 1361 -1576 1566 -2592 98
-485 114 -1008 46 -1505 -139 -1016 -635 -1974 -1379 -2663 -881 -816 -1986
-1237 -3170 -1209 -706 17 -1332 176 -1955 496 -407 209 -746 455 -1084 786
-759 744 -1207 1671 -1328 2747 -24 213 -24 703 0 916 104 926 446 1730 1036
2437 107 128 335 359 481 488 736 647 1685 1037 2675 1100 123 8 463 6 590 -3z"/>
<path d="M4480 8819 c-849 -54 -1660 -372 -2325 -914 -138 -112 -389 -357
-510 -498 -483 -560 -805 -1240 -930 -1964 -79 -459 -79 -947 0 -1406 201
-1161 901 -2183 1914 -2796 974 -590 2156 -744 3256 -426 217 63 414 139 632
245 213 103 327 168 513 294 959 645 1603 1679 1759 2822 54 391 54 737 0
1128 -142 1043 -695 2004 -1526 2653 -797 622 -1778 926 -2783 862z m685 -633
c155 -21 251 -37 265 -46 8 -5 2 -27 -23 -76 -81 -161 -128 -347 -164 -651
-22 -193 -25 -748 -4 -863 19 -106 55 -197 102 -259 22 -29 44 -64 49 -77 13
-32 -9 -100 -59 -182 -59 -98 -104 -202 -161 -374 -29 -84 -67 -193 -85 -243
-66 -179 -67 -282 -1 -367 53 -71 108 -98 230 -114 126 -16 202 -50 282 -126
55 -52 74 -99 74 -183 0 -54 42 -136 91 -179 24 -21 75 -53 113 -71 l69 -33 2
-54 c1 -41 10 -70 36 -119 32 -58 45 -71 138 -133 127 -85 147 -112 161 -227
22 -179 62 -281 144 -363 134 -133 220 -157 432 -121 141 24 205 48 439 165
268 134 349 159 541 167 72 3 148 3 169 -1 45 -9 46 -6 -32 -201 -308 -775
-897 -1422 -1643 -1804 -372 -191 -766 -309 -1205 -363 -146 -17 -604 -17
-750 0 -299 37 -599 109 -847 204 l-78 29 42 62 c125 183 316 320 584 415 233
83 390 177 517 311 82 86 99 129 100 260 1 157 -33 236 -176 403 -77 91 -87
126 -67 246 7 42 12 101 12 130 -2 69 -44 164 -89 201 l-35 29 17 48 c10 27
20 84 23 127 6 94 -13 151 -68 211 -78 85 -90 111 -90 196 0 100 27 189 79
260 59 81 71 105 82 166 20 106 -22 199 -118 265 -45 32 -202 100 -497 216
-77 30 -195 67 -267 84 -190 42 -201 50 -220 156 -26 138 -114 263 -318 450
-230 211 -485 405 -691 528 -141 83 -318 153 -468 186 l-53 11 27 46 c210 363
594 779 954 1033 498 352 1071 571 1645 628 61 6 126 13 145 15 77 9 541 -4
645 -18z"/>
</g>
</svg>
