<svg xmlns="http://www.w3.org/2000/svg" width="100" height="100" viewBox="0 0 100 100">
  <circle cx="50" cy="50" r="45" fill="none" stroke="#FF1493" stroke-width="3"/>
  <circle cx="50" cy="50" r="35" fill="none" stroke="#FF69B4" stroke-width="2"/>
  <!-- Brain outline -->
  <path d="M 35 40 Q 40 30 50 35 Q 60 30 65 40 Q 65 50 60 55 Q 55 60 50 58 Q 45 60 40 55 Q 35 50 35 40" fill="none" stroke="#00FFFF" stroke-width="2"/>
  <!-- Neural pathways -->
  <path d="M 40 42 L 45 38 L 50 42 L 55 38 L 60 42" fill="none" stroke="#00FFFF" stroke-width="1"/>
  <path d="M 40 48 L 45 52 L 50 48 L 55 52 L 60 48" fill="none" stroke="#00FFFF" stroke-width="1"/>
  <!-- Psi symbol (trident) -->
  <path d="M 50 25 L 50 35" stroke="#FFD700" stroke-width="2"/>
  <path d="M 46 29 L 50 25 L 54 29" fill="none" stroke="#FFD700" stroke-width="2"/>
  <!-- Energy waves -->
  <path d="M 25 45 Q 30 40 35 45 Q 30 50 25 45" fill="none" stroke="#FF1493" stroke-width="1"/>
  <path d="M 65 45 Q 70 40 75 45 Q 70 50 65 45" fill="none" stroke="#FF1493" stroke-width="1"/>
  <path d="M 45 75 Q 50 70 55 75 Q 50 80 45 75" fill="none" stroke="#FF1493" stroke-width="1"/>
</svg>