<?xml version="1.0" standalone="no"?>
<!DOCTYPE svg PUBLIC "-//W3C//DTD SVG 20010904//EN"
 "http://www.w3.org/TR/2001/REC-SVG-20010904/DTD/svg10.dtd">
<svg version="1.0" xmlns="http://www.w3.org/2000/svg"
 width="949.000000pt" height="948.000000pt" viewBox="0 0 949.000000 948.000000"
 preserveAspectRatio="xMidYMid meet">

<g transform="translate(0.000000,948.000000) scale(0.100000,-0.100000)"
fill="#000000" stroke="none">
<path d="M4420 9469 c-2037 -137 -3765 -1576 -4271 -3557 -194 -761 -194
-1583 0 -2344 464 -1819 1963 -3196 3811 -3502 289 -48 442 -60 775 -60 379
-1 615 21 955 90 471 94 988 289 1405 529 634 365 1190 885 1592 1490 520 781
793 1687 793 2625 0 2044 -1304 3850 -3249 4500 -564 188 -1205 269 -1811 229z
m635 -249 c934 -69 1807 -414 2522 -998 807 -660 1361 -1576 1566 -2592 98
-485 114 -1008 46 -1505 -139 -1016 -635 -1974 -1379 -2663 -881 -816 -1986
-1237 -3170 -1209 -706 17 -1332 176 -1955 496 -407 209 -746 455 -1084 786
-759 744 -1207 1671 -1328 2747 -24 213 -24 703 0 916 104 926 446 1730 1036
2437 107 128 335 359 481 488 736 647 1685 1037 2675 1100 123 8 463 6 590 -3z"/>
<path d="M4480 8819 c-849 -54 -1660 -372 -2325 -914 -138 -112 -389 -357
-510 -498 -483 -560 -805 -1240 -930 -1964 -79 -459 -79 -947 0 -1406 201
-1161 901 -2183 1914 -2796 974 -590 2156 -744 3256 -426 217 63 414 139 632
245 213 103 327 168 513 294 959 645 1603 1679 1759 2822 54 391 54 737 0
1128 -142 1043 -695 2004 -1526 2653 -797 622 -1778 926 -2783 862z m179 -669
c101 -28 207 -79 307 -146 80 -52 89 -56 201 -75 324 -56 670 -176 949 -330
155 -86 372 -234 493 -336 57 -48 113 -96 125 -105 11 -10 59 -25 105 -34 381
-71 633 -318 696 -681 10 -58 15 -155 15 -301 0 -233 12 -309 55 -339 11 -7
74 -49 140 -92 206 -134 373 -310 449 -472 61 -129 70 -179 70 -409 0 -132 -4
-226 -13 -265 -17 -80 -87 -226 -145 -302 -72 -94 -225 -233 -353 -320 l-115
-79 -63 -189 c-162 -496 -407 -889 -782 -1255 -166 -164 -262 -241 -453 -368
-136 -91 -377 -222 -500 -271 -40 -16 -63 -34 -85 -64 -45 -63 -163 -184 -226
-233 -116 -89 -236 -145 -366 -170 -208 -40 -424 15 -645 162 -78 53 -119 74
-142 74 -47 0 -299 38 -401 61 -240 53 -479 138 -706 251 -143 70 -164 78
-216 78 -32 0 -109 5 -172 11 -418 39 -703 239 -809 569 -32 98 -42 170 -49
330 l-6 145 -49 84 c-161 275 -289 608 -353 923 -24 118 -24 118 -83 186 -111
126 -181 254 -207 377 -20 96 -20 424 0 520 28 131 108 269 237 410 64 69 64
71 96 193 50 191 115 360 217 567 156 315 337 568 585 815 344 344 736 587
1195 742 142 48 153 54 212 108 151 141 313 225 488 254 63 10 231 -4 304 -24z"/>
<path d="M4610 7689 c0 -13 25 -269 55 -569 30 -300 55 -551 55 -558 0 -10 12
-7 43 11 211 123 478 252 712 344 80 31 145 60 145 64 0 13 -153 246 -223 339
-39 52 -132 156 -207 231 -157 158 -123 145 -407 156 l-173 6 0 -24z"/>
<path d="M4185 7680 c-135 -21 -245 -43 -322 -65 -41 -12 -60 -26 -96 -68
-187 -220 -366 -614 -468 -1031 -33 -139 -59 -266 -53 -266 3 0 65 11 140 25
264 49 640 92 957 111 l118 7 -6 41 c-5 35 -125 1248 -125 1261 0 7 -8 6 -145
-15z"/>
<path d="M5370 7625 c0 -3 29 -44 64 -93 76 -103 203 -311 266 -433 l44 -86
95 28 c128 38 311 76 450 93 62 8 115 17 117 19 6 6 -155 109 -266 172 -181
103 -429 206 -635 265 -60 17 -116 33 -122 35 -7 2 -13 2 -13 0z"/>
<path d="M3475 7486 c-680 -279 -1251 -803 -1581 -1451 -70 -136 -170 -372
-162 -381 2 -2 56 30 119 72 63 42 187 112 277 156 l162 81 0 46 c1 248 247
455 492 412 114 -20 232 -93 291 -180 14 -21 21 -23 59 -17 24 4 48 10 55 14
7 4 21 67 32 139 66 430 184 815 349 1136 6 12 -10 8 -93 -27z"/>
<path d="M6320 6879 c-118 -14 -453 -81 -468 -94 -1 -1 24 -71 57 -156 32 -85
71 -193 86 -241 l29 -86 45 -7 c112 -16 371 -70 536 -112 291 -73 515 -152
823 -289 l32 -14 -15 37 c-59 140 -210 391 -341 566 -98 131 -298 356 -341
384 -22 15 -55 18 -197 20 -94 1 -205 -3 -246 -8z"/>
<path d="M7080 6786 c0 -3 32 -49 71 -103 123 -169 254 -404 339 -606 l37 -88
7 47 c10 77 7 124 -14 214 -42 175 -148 342 -279 440 -65 49 -161 106 -161 96z"/>
<path d="M5580 6696 c-186 -69 -340 -135 -515 -223 l-140 -71 55 -5 c30 -4
129 -9 220 -12 174 -6 408 -26 599 -50 63 -8 117 -13 120 -10 11 12 -169 425
-186 425 -4 -1 -73 -25 -153 -54z"/>
<path d="M4767 6133 c-2 -5 13 -177 34 -383 21 -206 38 -382 39 -391 0 -11 17
-19 53 -28 155 -36 320 -167 390 -311 48 -99 67 -176 67 -277 0 -110 -14 -172
-62 -273 -51 -106 -158 -217 -258 -269 -36 -19 -66 -35 -68 -36 -1 -1 11 -140
28 -309 16 -168 30 -313 30 -321 0 -12 15 -15 74 -15 147 0 530 31 755 62 81
11 85 13 145 67 33 30 121 113 194 185 l132 131 2 55 1 55 6 -50 6 -50 113
124 c61 68 112 128 112 133 0 6 -9 22 -19 37 -58 81 -65 216 -17 315 69 141
246 214 394 163 l42 -15 68 107 c149 231 276 471 359 676 52 129 62 113 -106
183 -301 127 -620 223 -997 297 -96 19 -176 35 -178 35 -2 0 7 -42 20 -92 119
-463 207 -1166 203 -1610 l-2 -133 -8 155 c-17 325 -62 694 -124 1006 -55 276
-155 657 -178 681 -13 12 -347 55 -562 73 -115 9 -549 29 -647 30 -20 0 -39
-3 -41 -7z"/>
<path d="M4359 6059 c-370 -253 -675 -505 -1002 -828 l-189 -186 7 -90 c25
-352 89 -756 181 -1137 l45 -186 62 -11 c120 -22 424 -60 592 -75 193 -18 675
-39 684 -31 3 3 -8 141 -24 307 l-30 302 -75 18 c-212 51 -385 207 -451 409
-32 97 -34 273 -5 359 59 173 163 297 312 371 49 24 91 45 94 47 10 6 -74 802
-85 802 -7 0 -59 -32 -116 -71z"/>
<path d="M3945 6094 c-11 -2 -81 -10 -155 -19 -154 -18 -257 -34 -451 -71
l-137 -26 -5 -36 c-10 -64 -28 -271 -37 -427 -8 -136 -8 -128 -4 85 2 129 7
266 11 304 5 57 4 68 -8 64 -8 -2 -15 -15 -17 -29 -11 -85 -71 -200 -135 -256
-172 -151 -414 -149 -578 4 l-49 46 -47 -18 c-90 -34 -269 -122 -378 -186
-110 -64 -286 -189 -316 -225 -32 -37 -79 -364 -79 -544 0 -109 24 -352 38
-375 14 -25 157 -139 256 -204 101 -66 355 -201 378 -201 7 0 48 69 90 153
169 331 424 696 726 1037 67 76 102 124 103 140 1 19 3 20 6 7 4 -15 51 26
211 185 205 202 380 358 580 516 l103 82 -43 -1 c-24 -1 -52 -3 -63 -5z"/>
<path d="M7465 5473 c-74 -236 -180 -470 -318 -705 l-74 -127 31 -62 c60 -122
35 -268 -63 -366 -71 -70 -119 -88 -240 -89 l-104 0 -79 -95 c-44 -51 -129
-147 -189 -212 -62 -66 -109 -126 -109 -137 0 -24 -4 -25 260 41 224 56 439
124 624 198 170 68 423 197 430 219 13 44 46 208 62 312 25 157 25 452 1 610
-19 125 -53 280 -87 409 -21 76 -25 83 -61 101 -21 11 -40 20 -43 20 -2 0 -21
-53 -41 -117z"/>
<path d="M7673 5470 c44 -234 61 -506 54 -830 -4 -140 -11 -297 -17 -348 -6
-51 -10 -100 -8 -109 2 -11 27 2 92 49 222 157 388 360 440 538 15 50 15 59 0
110 -58 202 -259 428 -538 606 l-29 18 6 -34z"/>
<path d="M1509 5175 c-110 -133 -173 -262 -173 -355 0 -87 79 -239 191 -367
l28 -31 -3 269 c-2 148 1 331 7 406 6 75 9 138 8 140 -2 1 -28 -27 -58 -62z"/>
<path d="M3096 4964 c-213 -239 -372 -443 -521 -669 -107 -161 -229 -364 -223
-370 9 -8 244 -90 369 -128 201 -63 592 -157 604 -146 2 3 -11 79 -30 169 -68
330 -119 739 -132 1047 -3 84 -9 153 -12 152 -3 0 -28 -25 -55 -55z"/>
<path d="M1676 4024 c13 -53 82 -248 120 -339 45 -106 122 -260 184 -365 51
-87 42 -97 79 99 12 63 38 163 57 223 20 61 34 111 32 112 -2 2 -44 24 -93 50
-89 45 -257 151 -343 216 l-43 32 7 -28z"/>
<path d="M7488 3785 c-63 -34 -303 -136 -423 -180 -156 -57 -451 -141 -630
-180 -71 -16 -131 -29 -132 -29 0 -1 -6 -46 -13 -101 -42 -374 -135 -762 -251
-1053 -27 -69 -49 -127 -49 -129 0 -6 121 58 228 122 213 126 382 256 566 435
324 315 567 676 727 1083 20 51 18 54 -23 32z"/>
<path d="M2210 3633 c-72 -171 -140 -386 -140 -439 0 -38 201 -294 349 -447
197 -202 380 -351 601 -487 l84 -53 97 7 c54 3 158 17 231 31 130 24 356 80
367 90 3 3 -21 59 -53 123 l-58 118 -70 -4 c-61 -4 -76 -1 -133 27 -104 52
-155 135 -155 255 0 81 32 148 99 208 l51 46 -36 124 c-20 68 -40 127 -44 131
-4 5 -81 24 -170 43 -355 74 -674 172 -976 300 -7 3 -25 -27 -44 -73z"/>
<path d="M6280 3665 c-8 -9 -8 -15 -2 -15 12 0 26 19 19 26 -2 2 -10 -2 -17
-11z"/>
<path d="M6092 3359 l-163 -29 -97 -83 c-190 -163 -426 -343 -625 -477 -86
-58 -96 -68 -97 -95 0 -41 79 -817 84 -822 14 -14 400 91 530 144 l69 28 68
114 c130 218 241 502 319 815 42 168 92 437 81 435 -3 -1 -79 -14 -169 -30z"/>
<path d="M3491 3346 c0 -6 17 -56 37 -111 l37 -100 63 -7 c227 -25 335 -272
196 -453 l-35 -47 66 -116 c37 -64 71 -121 75 -125 13 -15 258 81 500 195 128
61 359 184 377 202 8 8 6 65 -12 234 -12 122 -24 224 -26 226 -2 2 -128 8
-281 15 -364 15 -744 51 -950 90 -34 6 -48 5 -47 -3z"/>
<path d="M5380 3274 c-85 -7 -194 -13 -242 -13 -49 -1 -88 -5 -88 -10 0 -23
31 -295 33 -298 6 -6 425 286 472 328 5 6 3 8 -5 7 -8 0 -85 -7 -170 -14z"/>
<path d="M2036 2940 c34 -192 87 -310 193 -438 46 -56 159 -141 237 -180 62
-31 184 -76 190 -70 1 2 -41 44 -94 92 -176 161 -341 350 -470 539 -54 79 -61
86 -56 57z"/>
<path d="M4760 2493 c-108 -63 -458 -234 -570 -279 -52 -20 -98 -40 -103 -44
-11 -9 140 -186 238 -278 82 -76 90 -81 142 -88 65 -8 430 0 440 10 7 7 -54
668 -65 702 -7 19 -11 18 -82 -23z"/>
<path d="M3865 2094 c-22 -8 -103 -32 -179 -53 -159 -43 -158 -40 -6 -89 146
-47 440 -117 440 -106 0 2 -24 37 -53 77 -30 39 -71 98 -92 130 -40 61 -48 64
-110 41z"/>
</g>
</svg>
