<?xml version="1.0" standalone="no"?>
<!DOCTYPE svg PUBLIC "-//W3C//DTD SVG 20010904//EN"
 "http://www.w3.org/TR/2001/REC-SVG-20010904/DTD/svg10.dtd">
<svg version="1.0" xmlns="http://www.w3.org/2000/svg"
 width="600.000000pt" height="600.000000pt" viewBox="0 0 600.000000 600.000000"
 preserveAspectRatio="xMidYMid meet">
<g transform="translate(0.000000,600.000000) scale(0.050000,-0.050000)"
fill="#000000" stroke="none">
<path d="M5501 11977 c-4179 -343 -6730 -4839 -4881 -8606 2154 -4389 8414
-4477 10687 -151 2190 4170 -1107 9143 -5806 8757z m1347 -356 c4172 -640
6221 -5446 3791 -8892 -2166 -3070 -6720 -3216 -9057 -289 -2846 3566 -624
8760 3948 9228 229 23 1050 -6 1318 -47z"/>
<path d="M5614 11160 c-2321 -181 -4248 -1896 -4684 -4167 -615 -3207 1808
-6142 5070 -6142 515 0 613 8 1040 92 3034 594 4856 3805 3840 6767 -748 2182
-2958 3630 -5266 3450z m783 -1340 c2853 -301 4384 -3533 2806 -5924 -1615
-2448 -5308 -2239 -6620 375 -1360 2710 808 5865 3814 5549z m3344 -955 c17
-4 49 12 72 33 57 53 72 32 36 -53 -37 -88 -37 -85 14 -85 41 0 42 -2 9 -38
-20 -22 -39 -86 -46 -155 -6 -64 -28 -147 -48 -183 -21 -37 -38 -80 -38 -96 0
-21 -12 -27 -38 -19 -27 9 -40 0 -49 -33 -13 -51 -45 -32 -56 34 -5 25 -26 43
-57 47 -28 4 -80 29 -116 57 -37 28 -79 44 -97 38 -26 -11 -29 -1 -18 58 10
54 3 85 -28 129 -50 70 -51 80 -6 69 60 -15 118 139 76 203 -39 60 -19 64 42
6 55 -52 212 -22 250 48 20 39 22 38 44 -7 13 -26 38 -50 54 -53z m-7901
-3504 c0 -47 7 -57 33 -47 27 10 29 6 12 -25 -14 -24 -14 -54 -2 -86 22 -59
18 -283 -6 -283 -9 0 -17 -15 -17 -33 0 -30 -3 -30 -35 -2 -21 20 -81 35 -150
38 -97 6 -115 13 -115 44 0 20 -23 56 -52 78 -28 22 -43 46 -33 53 43 28 42
128 -2 165 -43 35 -42 35 19 13 71 -26 166 25 167 89 1 44 15 44 57 2 30 -30
35 -29 63 10 43 58 61 53 61 -16z m608 -1704 c-10 -16 -1 -20 29 -12 47 12 58
-22 20 -60 -16 -16 -17 -31 -3 -49 12 -14 27 -62 35 -106 8 -44 25 -87 38 -95
15 -10 7 -19 -24 -28 -41 -11 -95 -93 -86 -132 2 -8 -6 -15 -17 -15 -11 0 -20
10 -20 22 0 13 -14 16 -35 8 -19 -9 -52 -17 -73 -19 -20 -2 -49 -30 -65 -62
l-27 -59 11 75 c10 66 5 77 -38 94 -27 10 -55 29 -63 41 -8 13 -35 18 -63 11
-44 -11 -47 -8 -28 27 32 61 26 75 -44 96 l-65 20 65 29 c50 23 59 35 41 53
-19 19 -14 24 19 24 24 0 85 28 135 62 51 35 119 64 150 66 32 1 64 9 72 17
24 24 52 17 36 -8z m5772 -1387 c19 -23 32 -25 53 -8 21 18 27 16 27 -8 0 -17
18 -37 41 -44 50 -16 232 -190 198 -190 -18 0 -18 -7 1 -30 21 -25 19 -30 -11
-30 -20 0 -50 -13 -67 -29 -18 -15 -56 -51 -86 -78 -45 -41 -58 -45 -77 -21
-15 17 -45 24 -81 18 -45 -8 -54 -4 -45 20 6 17 -3 35 -21 42 -18 7 -32 24
-32 37 0 16 -20 23 -55 18 l-55 -7 53 21 c53 21 92 147 53 171 -20 13 -21 49
-1 46 53 -9 69 6 60 52 -11 56 8 65 45 20z"/>
<path d="M5740 8569 c-27 -5 -113 -19 -190 -31 -1658 -265 -2613 -2152 -1856
-3668 786 -1573 2852 -1927 4103 -704 1467 1435 757 3896 -1257 4357 -163 37
-678 67 -800 46z m-1213 -1314 c-10 -66 80 -150 148 -138 17 3 21 -13 13 -54
-11 -51 -5 -60 45 -73 l57 -15 -64 -27 c-48 -20 -61 -37 -52 -61 9 -24 5 -29
-12 -18 -15 9 -66 -7 -123 -38 -54 -29 -125 -56 -158 -60 -33 -5 -69 -14 -80
-21 -12 -7 -21 -3 -21 9 0 11 -18 21 -40 21 -42 0 -54 29 -21 49 23 14 4 211
-24 246 -14 17 -5 30 32 44 30 11 57 41 65 70 12 51 37 66 56 34 21 -34 127 1
149 49 31 67 42 60 30 -17z m1744 -165 c820 -209 1124 -1215 554 -1833 -624
-675 -1727 -375 -1917 523 -169 795 575 1510 1363 1310z"/>
<path d="M5534 6240 c-7 -26 -27 -40 -58 -40 -26 0 -68 -15 -93 -32 -44 -31
-49 -30 -108 25 l-62 57 44 -73 c42 -70 42 -73 5 -82 -21 -6 -42 -32 -45 -58
-5 -34 -19 -47 -52 -45 -41 1 -42 -2 -15 -32 16 -18 30 -43 30 -55 0 -12 10
-25 23 -29 18 -6 18 -24 1 -74 -22 -62 -21 -66 16 -56 22 6 40 3 40 -6 0 -24
136 -100 179 -100 22 0 42 -19 49 -50 16 -62 43 -64 61 -5 8 27 18 35 24 20
16 -38 47 -30 47 13 0 20 13 47 28 60 32 27 72 172 72 264 0 36 15 81 33 101
31 35 31 37 -9 37 -40 0 -41 3 -13 69 42 101 36 124 -19 73 -52 -49 -132 -44
-132 8 0 45 -35 53 -46 10z"/>
</g>
</svg>
