<?xml version="1.0" standalone="no"?>
<!DOCTYPE svg PUBLIC "-//W3C//DTD SVG 20010904//EN"
 "http://www.w3.org/TR/2001/REC-SVG-20010904/DTD/svg10.dtd">
<svg version="1.0" xmlns="http://www.w3.org/2000/svg"
 width="949.000000pt" height="949.000000pt" viewBox="0 0 949.000000 949.000000"
 preserveAspectRatio="xMidYMid meet">

<g transform="translate(0.000000,949.000000) scale(0.100000,-0.100000)"
fill="#000000" stroke="none">
<path d="M4410 9469 c-907 -61 -1823 -408 -2545 -964 -331 -254 -664 -591
-916 -925 -1083 -1438 -1247 -3397 -420 -5005 363 -705 904 -1316 1556 -1757
672 -455 1412 -719 2240 -800 191 -18 692 -15 888 5 449 49 880 153 1282 312
158 62 531 246 670 330 1201 726 2019 1913 2249 3265 52 303 60 420 61 810 0
390 -9 504 -61 810 -146 856 -539 1673 -1125 2335 -971 1098 -2404 1683 -3879
1584z m656 -249 c582 -46 1106 -185 1619 -430 461 -219 923 -551 1276 -917
737 -763 1169 -1713 1259 -2768 17 -191 14 -581 -5 -780 -95 -996 -503 -1907
-1185 -2645 -419 -453 -964 -834 -1540 -1078 -891 -376 -1901 -453 -2845 -216
-1321 332 -2432 1261 -2993 2505 -493 1090 -530 2337 -105 3449 528 1380 1699
2412 3135 2764 226 56 518 100 778 119 110 8 489 6 606 -3z"/>
<path d="M4469 8820 c-852 -63 -1627 -367 -2289 -896 -174 -139 -486 -451
-623 -624 -515 -648 -817 -1402 -886 -2215 -16 -176 -13 -548 4 -731 146
-1532 1139 -2852 2572 -3417 1004 -397 2146 -376 3138 59 867 380 1589 1066
2016 1915 208 416 345 876 406 1369 14 112 18 217 18 460 0 338 -11 468 -61
740 -155 838 -565 1605 -1175 2195 -662 639 -1487 1027 -2409 1130 -165 18
-554 27 -711 15z m834 -895 c328 -19 760 -146 933 -275 48 -36 55 -47 134
-222 45 -100 89 -197 96 -214 l13 -32 -146 49 c-80 27 -151 49 -157 49 -6 0
39 -22 99 -48 666 -290 1188 -742 1340 -1162 32 -89 45 -243 25 -304 -24 -74
-103 -127 -254 -170 -293 -85 -885 -87 -1523 -5 -80 10 -93 14 -93 30 0 22 14
23 115 8 315 -45 871 -70 1125 -50 341 27 547 93 586 188 14 32 14 40 0 77 -9
23 -30 57 -47 76 -18 22 -26 27 -19 13 12 -27 13 -90 1 -97 -5 -3 -105 43
-223 102 -117 60 -255 127 -305 150 -85 38 -93 44 -93 70 0 15 -7 38 -16 50
-9 13 -14 25 -13 27 7 5 312 -121 469 -193 82 -39 150 -69 150 -67 0 2 -30 25
-67 53 -216 158 -608 334 -1073 478 -180 57 -542 155 -547 150 -3 -2 6 -7 19
-11 58 -18 169 -71 229 -111 71 -47 95 -80 85 -116 -7 -25 -328 -295 -374
-315 -109 -45 -481 -7 -750 78 -112 35 -250 99 -273 126 -17 19 -215 394 -225
425 -8 26 38 63 94 78 26 7 108 16 182 19 l135 6 -165 22 c-419 57 -726 78
-1065 70 -337 -7 -539 -40 -668 -109 -125 -67 -131 -143 -21 -259 200 -209
699 -432 1437 -643 31 -9 57 -20 57 -24 -1 -32 -21 -30 -215 28 -643 190
-1128 417 -1312 614 -34 35 -66 81 -73 101 -19 57 -7 126 35 213 47 94 177
229 300 310 262 174 675 310 1090 358 l140 17 190 178 c154 145 199 182 238
195 50 17 206 33 267 28 19 -2 79 -6 133 -9z m-1353 -1073 l55 -7 -55 -13
c-30 -7 -75 -24 -99 -37 -40 -23 -53 -25 -180 -25 -129 0 -377 -12 -561 -26
-80 -7 -84 -6 -71 10 31 38 149 84 241 96 69 9 596 10 670 2z m-104 -284 c10
-11 52 -43 92 -69 l73 -48 -38 -10 c-21 -5 -101 -25 -178 -45 -77 -19 -184
-49 -239 -66 -54 -16 -106 -30 -115 -30 -20 0 -179 84 -256 135 -39 26 -53 40
-43 45 24 14 578 104 669 109 9 1 24 -9 35 -21z m782 -354 l53 -16 -47 -86
c-81 -150 -95 -172 -113 -172 -21 0 -350 89 -370 100 -17 9 55 59 231 160
l101 58 46 -14 c25 -8 70 -21 99 -30z m53 -71 c-12 -20 -14 -14 -5 12 4 9 9
14 11 11 3 -2 0 -13 -6 -23z m203 -57 c-9 -26 -18 -45 -20 -43 -2 2 3 25 12
51 9 26 18 45 20 43 2 -2 -3 -25 -12 -51z m-228 -3 c-8 -15 -15 -25 -16 -21 0
12 23 58 27 54 3 -2 -2 -17 -11 -33z m444 -40 c-11 -17 -11 -17 -6 0 3 10 6
24 7 30 0 9 2 9 5 0 3 -7 0 -20 -6 -30z m647 -30 c-3 -10 -5 -2 -5 17 0 19 2
27 5 18 2 -10 2 -26 0 -35z m-1116 10 c-12 -20 -14 -14 -5 12 4 9 9 14 11 11
3 -2 0 -13 -6 -23z m-25 -60 c-8 -15 -15 -25 -16 -21 0 12 23 58 27 54 3 -2
-2 -17 -11 -33z m1303 -2 c7 -9 42 -74 78 -146 55 -111 62 -131 47 -134 -19
-3 -227 17 -256 25 -16 5 -18 21 -18 144 l0 139 68 -6 c44 -3 72 -11 81 -22z
m929 -55 c70 -46 171 -116 226 -157 85 -62 96 -74 78 -80 -11 -4 -93 -13 -182
-19 l-161 -12 -77 71 c-42 40 -123 112 -179 161 l-102 89 57 6 c31 3 80 10
107 14 96 16 99 15 233 -73z m-1101 -8 c-2 -13 -4 -3 -4 22 0 25 2 35 4 23 2
-13 2 -33 0 -45z m-1168 -27 c-12 -28 -24 -50 -26 -48 -2 2 6 27 18 56 12 28
24 50 26 48 2 -2 -6 -27 -18 -56z m1158 -93 c-2 -13 -4 -3 -4 22 0 25 2 35 4
23 2 -13 2 -33 0 -45z m-2013 -1964 c-455 -1094 -831 -1995 -837 -2002 -6 -7
-14 -9 -19 -4 -4 4 371 907 834 2005 463 1098 843 1996 845 1994 1 -2 -369
-899 -823 -1993z m1783 1879 c-3 -10 -5 -4 -5 12 0 17 2 24 5 18 2 -7 2 -21 0
-30z m220 -40 c-2 -16 -4 -3 -4 27 0 30 2 43 4 28 2 -16 2 -40 0 -55z m-976
34 c-10 -9 -11 -8 -5 6 3 10 9 15 12 12 3 -3 0 -11 -7 -18z m247 -55 c-6 -24
-13 -41 -15 -38 -2 2 1 23 7 46 6 23 13 40 15 38 2 -2 -1 -23 -7 -46z m499 -9
c-3 -10 -5 -2 -5 17 0 19 2 27 5 18 2 -10 2 -26 0 -35z m220 -90 c-2 -16 -4
-3 -4 27 0 30 2 43 4 28 2 -16 2 -40 0 -55z m-230 20 c-3 -10 -5 -2 -5 17 0
19 2 27 5 18 2 -10 2 -26 0 -35z m-260 -35 c-3 -8 -6 -5 -6 6 -1 11 2 17 5 13
3 -3 4 -12 1 -19z m-10 -50 c-3 -7 -5 -2 -5 12 0 14 2 19 5 13 2 -7 2 -19 0
-25z m324 -2083 c-199 -2419 -179 -2195 -197 -2195 -8 0 -14 6 -14 13 -2 34
375 4298 378 4277 1 -14 -74 -956 -167 -2095z m-354 1943 c-3 -8 -6 -5 -6 6
-1 11 2 17 5 13 3 -3 4 -12 1 -19z m-286 -39 c-5 -13 -10 -19 -10 -12 -1 15
10 45 15 40 3 -2 0 -15 -5 -28z m268 -51 c-6 -34 -15 -67 -19 -71 -4 -5 -1 26
8 68 8 41 17 74 19 71 2 -2 -1 -33 -8 -68z m278 40 c-3 -8 -6 -5 -6 6 -1 11 2
17 5 13 3 -3 4 -12 1 -19z m-577 -105 c-12 -43 -27 -85 -32 -93 -8 -12 -9 -12
-4 2 3 10 15 53 27 98 12 44 24 78 26 76 3 -2 -5 -39 -17 -83z m567 40 c-3
-10 -5 -2 -5 17 0 19 2 27 5 18 2 -10 2 -26 0 -35z m-857 -28 c-17 -50 -39
-97 -40 -85 0 3 9 30 20 60 12 30 23 61 25 68 2 6 7 12 9 12 3 0 -4 -25 -14
-55z m550 -130 c-7 -36 -14 -64 -17 -62 -2 3 2 34 8 71 7 36 14 64 17 61 2 -2
-1 -34 -8 -70z m283 0 c-3 -9 -8 -14 -10 -11 -3 3 -2 9 2 15 9 16 15 13 8 -4z
m-308 -115 c-9 -41 -17 -33 -9 9 4 17 9 30 11 27 3 -2 2 -19 -2 -36z m-326
-94 c-18 -64 -34 -114 -37 -112 -2 3 11 57 28 121 18 64 34 114 37 112 2 -2
-11 -57 -28 -121z m-288 91 c-10 -9 -11 -8 -5 6 3 10 9 15 12 12 3 -3 0 -11
-7 -18z m906 1 c-3 -8 -6 -5 -6 6 -1 11 2 17 5 13 3 -3 4 -12 1 -19z m-28
-192 c-7 -47 -14 -84 -17 -82 -2 3 1 44 8 91 7 47 14 84 17 82 2 -3 -1 -44 -8
-91z m-974 -91 c-21 -58 -39 -104 -42 -102 -2 2 13 52 34 110 20 59 38 105 41
102 2 -2 -12 -52 -33 -110z m668 83 c-3 -18 -10 -37 -15 -43 -6 -6 -7 -5 -4 5
2 8 7 27 10 43 9 38 17 34 9 -5z m-13 -73 c0 -8 -4 -15 -10 -15 -5 0 -7 7 -4
15 4 8 8 15 10 15 2 0 4 -7 4 -15z m-54 -245 c-17 -82 -34 -150 -37 -150 -3 0
7 62 23 138 29 141 35 162 41 162 2 0 -10 -67 -27 -150z m-672 29 c-23 -60
-39 -75 -19 -19 25 72 25 73 31 68 3 -3 -3 -25 -12 -49z m325 -68 c-7 -28 -16
-51 -20 -51 -3 0 1 25 9 55 19 69 29 65 11 -4z m658 -33 c-3 -8 -6 -5 -6 6 -1
11 2 17 5 13 3 -3 4 -12 1 -19z m-1024 -13 c-3 -9 -8 -14 -10 -11 -3 3 -2 9 2
15 9 16 15 13 8 -4z m998 -186 c-8 -38 -9 -40 -10 -12 -1 17 2 39 5 48 11 29
14 10 5 -36z m-1087 -73 c-3 -14 -10 -26 -15 -26 -4 0 -3 14 3 31 12 36 22 33
12 -5z m1060 -117 c-10 -67 -20 -116 -22 -110 -5 16 29 244 35 237 3 -3 -3
-60 -13 -127z m-700 76 c-4 -8 -8 -15 -10 -15 -2 0 -4 7 -4 15 0 8 4 15 10 15
5 0 7 -7 4 -15z m301 -282 c-53 -250 -65 -298 -65 -262 0 26 114 551 118 540
2 -6 -22 -131 -53 -278z m-702 207 c-3 -12 -8 -19 -11 -16 -5 6 5 36 12 36 2
0 2 -9 -1 -20z m-50 -148 c-9 -29 -20 -52 -24 -52 -7 0 1 29 26 99 3 8 7 12
10 9 2 -2 -3 -27 -12 -56z m393 21 c-16 -66 -48 -165 -52 -161 -3 4 19 93 42
171 9 28 17 19 10 -10z m715 -173 c-8 -60 -19 -110 -24 -110 -4 0 -6 8 -3 18
2 9 10 59 17 110 7 50 16 92 19 92 3 0 -1 -49 -9 -110z m-1210 -137 c-8 -15
-10 -15 -11 -2 0 17 10 32 18 25 2 -3 -1 -13 -7 -23z m1134 -380 c-15 -98 -29
-180 -31 -182 -8 -9 -3 44 16 172 28 185 31 200 37 194 2 -3 -7 -86 -22 -184z
m-398 65 c-3 -8 -6 -5 -6 6 -1 11 2 17 5 13 3 -3 4 -12 1 -19z m-420 -25 c-2
-5 -24 -78 -47 -163 -24 -85 -45 -149 -47 -143 -6 17 79 313 89 313 5 0 7 -3
5 -7z m-492 -163 c-4 -12 -9 -19 -12 -17 -3 3 -2 15 2 27 4 12 9 19 12 17 3
-3 2 -15 -2 -27z m893 -40 c107 0 150 -155 58 -211 -85 -52 -176 1 -176 101 0
36 6 48 43 84 23 24 44 39 45 34 2 -4 16 -8 30 -8z m365 -198 c-9 -61 -20
-112 -25 -112 -5 0 -7 8 -5 18 3 9 10 55 17 102 12 90 18 115 25 109 2 -2 -4
-55 -12 -117z m-885 41 l93 -56 112 26 c85 19 116 23 132 15 23 -12 196 -165
207 -183 9 -15 58 -229 58 -255 0 -33 -99 -219 -126 -236 -17 -12 -28 -13 -43
-5 -35 19 -33 44 14 144 l46 97 -17 55 c-10 30 -21 55 -24 55 -4 0 -50 -47
-103 -103 l-96 -104 -128 -48 c-70 -26 -131 -50 -135 -54 -4 -4 -15 -58 -24
-121 -8 -63 -20 -127 -25 -141 -13 -34 -51 -52 -83 -39 -46 17 -48 36 -29 225
l17 175 76 40 75 40 -85 -7 -85 -6 -110 -94 c-91 -77 -115 -93 -139 -91 -37 4
-71 47 -63 80 7 27 225 227 265 244 15 6 93 21 174 34 l148 22 50 64 c27 35
50 66 50 68 0 3 -31 2 -68 -1 l-69 -6 -106 72 c-87 58 -107 76 -107 96 0 20
31 55 49 55 3 0 48 -25 99 -57z m-57 -260 c-10 -17 -10 -16 -11 3 0 23 13 41
18 25 2 -6 -1 -18 -7 -28z m-491 -48 c0 -8 -4 -15 -10 -15 -5 0 -7 7 -4 15 4
8 8 15 10 15 2 0 4 -7 4 -15z m1377 -77 c-3 -8 -6 -5 -6 6 -1 11 2 17 5 13 3
-3 4 -12 1 -19z m-481 -145 c-10 -10 -19 5 -10 18 6 11 8 11 12 0 2 -7 1 -15
-2 -18z m430 -230 c-10 -10 -19 5 -10 18 6 11 8 11 12 0 2 -7 1 -15 -2 -18z"/>
<path d="M4790 7714 c-57 -65 -21 -124 44 -73 31 24 57 75 49 96 -10 27 -60
14 -93 -23z"/>
<path d="M5146 7715 c-22 -20 -27 -32 -24 -63 3 -35 5 -37 39 -40 30 -3 41 2
58 24 56 72 -7 140 -73 79z"/>
<path d="M5496 7671 c-22 -24 -25 -86 -5 -105 47 -47 119 -14 119 53 0 24 -7
44 -18 54 -25 23 -75 21 -96 -2z"/>
<path d="M5859 7584 c-19 -23 -16 -80 6 -104 24 -27 71 -26 86 1 34 64 -48
156 -92 103z"/>
<path d="M6197 7474 c-14 -14 -6 -80 13 -112 16 -27 26 -33 48 -30 25 3 27 6
26 46 0 26 -9 53 -21 70 -20 27 -52 39 -66 26z"/>
<path d="M4693 6783 c-13 -2 -23 -7 -23 -10 0 -3 30 -87 67 -185 l67 -179 60
7 c34 4 63 8 65 10 2 2 -12 83 -31 181 l-34 178 -75 1 c-41 1 -84 0 -96 -3z"/>
<path d="M4928 6608 c19 -101 35 -184 36 -184 2 -3 191 -22 193 -20 1 0 6 80
12 175 8 127 8 177 0 181 -10 7 -211 30 -256 30 -19 0 -19 -4 15 -182z"/>
<path d="M4593 6758 c-13 -6 -23 -15 -23 -21 0 -8 166 -334 177 -346 2 -3 8 0
15 7 8 8 -6 57 -57 191 -37 100 -73 181 -79 180 -6 0 -21 -5 -33 -11z"/>
<path d="M5206 6677 c-4 -45 -8 -127 -9 -181 l-2 -99 90 -18 c50 -10 97 -18
106 -18 11 -1 31 44 73 164 32 91 56 168 54 171 -4 4 -183 41 -275 58 l-31 5
-6 -82z"/>
<path d="M5497 6528 c-32 -90 -57 -167 -57 -173 0 -5 33 -20 74 -32 41 -13 81
-26 89 -29 11 -4 43 35 116 145 56 83 101 155 101 160 0 9 -69 34 -185 67 -33
9 -65 19 -71 21 -6 2 -34 -63 -67 -159z"/>
<path d="M5751 6433 c-57 -87 -98 -159 -92 -161 6 -2 32 -15 58 -28 l48 -24
103 107 c56 60 116 125 133 145 l30 37 -68 34 c-113 57 -95 67 -212 -110z"/>
<path d="M5921 6343 c-100 -107 -131 -147 -123 -155 9 -9 16 -8 29 3 55 47
279 233 281 235 8 5 -19 44 -36 52 -14 7 -43 -19 -151 -135z"/>
</g>
</svg>
