<?xml version="1.0" standalone="no"?>
<!DOCTYPE svg PUBLIC "-//W3C//DTD SVG 20010904//EN"
 "http://www.w3.org/TR/2001/REC-SVG-20010904/DTD/svg10.dtd">
<svg version="1.0" xmlns="http://www.w3.org/2000/svg"
 width="949.000000pt" height="949.000000pt" viewBox="0 0 949.000000 949.000000"
 preserveAspectRatio="xMidYMid meet">

<g transform="translate(0.000000,949.000000) scale(0.100000,-0.100000)"
fill="#000000" stroke="none">
<path d="M4505 9484 c-224 -17 -329 -28 -450 -45 -872 -128 -1682 -492 -2370
-1067 -123 -103 -473 -455 -574 -577 -626 -758 -991 -1631 -1087 -2600 -22
-231 -22 -661 0 -890 45 -446 154 -903 311 -1300 64 -163 229 -500 316 -648
715 -1212 1911 -2041 3284 -2277 686 -118 1403 -83 2066 99 1004 277 1899 885
2526 1717 552 732 871 1581 943 2503 13 172 13 528 0 702 -69 907 -392 1768
-930 2484 -156 208 -252 318 -445 511 -384 384 -762 657 -1247 899 -509 254
-1044 408 -1628 470 -145 15 -604 28 -715 19z m720 -269 c1263 -147 2361 -774
3118 -1781 463 -616 753 -1340 859 -2139 20 -149 22 -215 23 -540 0 -397 -9
-506 -61 -795 -190 -1049 -733 -1981 -1549 -2662 -979 -816 -2242 -1172 -3515
-992 -1626 230 -3010 1355 -3576 2906 -375 1028 -360 2168 42 3184 145 368
316 679 553 1004 248 342 606 702 957 962 678 502 1473 797 2339 868 163 13
645 4 810 -15z"/>
<path d="M4487 8829 c-608 -36 -1236 -223 -1763 -524 -155 -89 -396 -253 -544
-371 -173 -138 -485 -450 -624 -624 -483 -607 -769 -1287 -873 -2075 -26 -201
-26 -768 0 -970 121 -921 501 -1716 1127 -2359 888 -911 2104 -1353 3365
-1221 1899 199 3412 1699 3630 3600 9 77 19 239 22 360 34 1255 -505 2444
-1473 3249 -423 352 -944 629 -1469 781 -450 130 -926 183 -1398 154z m-1877
-1929 c178 -22 383 -93 540 -186 185 -111 346 -255 602 -543 261 -292 293
-321 360 -321 25 0 62 12 105 35 78 41 105 43 138 10 20 -19 25 -34 25 -74 0
-97 -45 -180 -208 -382 -219 -272 -402 -400 -668 -470 -76 -20 -113 -24 -254
-24 -182 0 -294 19 -455 76 -100 35 -220 88 -213 94 2 2 55 -11 116 -30 375
-115 677 -108 937 20 50 25 104 56 120 69 l30 25 -61 -19 c-93 -28 -197 -48
-322 -60 -359 -36 -713 88 -980 344 -138 131 -233 269 -303 440 l-37 89 -4
-44 c-7 -79 10 -252 32 -322 12 -38 19 -71 16 -74 -23 -23 -84 88 -117 212
-31 115 -31 336 0 450 27 102 77 206 130 273 107 134 336 247 541 268 39 4 72
10 75 14 2 4 -37 17 -88 30 -185 46 -431 37 -578 -20 -56 -22 -69 -24 -69 -10
0 13 151 84 222 105 113 32 236 41 368 25z m4657 -21 c102 -26 264 -101 249
-116 -2 -3 -33 5 -68 17 -157 54 -354 65 -530 30 -55 -12 -114 -27 -132 -35
l-31 -13 52 -1 c121 -2 309 -62 427 -135 201 -126 301 -319 313 -606 8 -186
-27 -342 -98 -440 -44 -61 -53 -39 -23 55 20 62 27 109 31 213 4 88 3 132 -4
132 -6 0 -14 -12 -18 -27 -12 -49 -80 -186 -129 -260 -176 -268 -451 -466
-752 -543 -210 -54 -495 -44 -728 25 -70 21 -76 19 -33 -11 70 -47 201 -104
297 -128 225 -57 464 -40 743 51 60 19 111 33 114 30 17 -18 -244 -115 -401
-149 -152 -33 -394 -31 -527 4 -52 14 -128 40 -168 57 -158 67 -331 204 -433
345 -28 39 -75 98 -103 131 -79 92 -124 164 -145 234 -26 81 -26 125 0 151 37
37 69 37 142 -3 74 -41 129 -48 176 -23 36 19 148 135 314 326 266 304 450
461 673 572 267 134 558 177 792 117z m-3443 -483 c91 -38 102 -146 12 -116
-48 16 -96 62 -96 93 0 38 29 46 84 23z m243 -171 c50 -21 71 -41 100 -98 66
-131 -37 -158 -154 -42 -39 40 -53 61 -53 82 0 31 16 57 40 66 24 9 28 8 67
-8z m1039 -160 c25 -38 29 -99 10 -149 -9 -24 -23 -47 -30 -49 -39 -15 -94 83
-82 146 7 40 39 77 66 77 11 0 27 -11 36 -25z m2182 -661 c4 -25 -32 -59 -53
-51 -20 8 -19 36 2 59 21 23 47 19 51 -8z m-98 -89 c18 -21 1 -56 -42 -88 -62
-46 -108 -43 -108 7 0 63 114 125 150 81z m-4781 -9 c38 -20 101 -92 101 -115
0 -43 -67 -29 -133 29 -66 58 -75 100 -21 100 14 0 37 -6 53 -14z m2414 -237
c43 -12 97 -56 126 -102 10 -18 36 -79 56 -137 45 -126 63 -160 87 -160 20 0
38 36 38 77 0 38 22 15 56 -60 24 -52 29 -75 29 -144 0 -72 -3 -84 -24 -107
-60 -64 -168 -61 -305 8 -50 25 -100 46 -111 46 -11 0 -62 -21 -113 -47 -81
-41 -101 -47 -155 -47 -97 1 -152 39 -163 115 -7 48 13 78 81 125 69 47 98 91
115 178 17 89 45 147 94 195 40 39 99 70 136 71 8 0 32 -5 53 -11z m2723 -627
c54 -43 58 -113 13 -198 -41 -80 -56 -94 -96 -94 -94 0 -157 77 -151 187 l3
57 50 19 c43 16 140 45 155 46 3 0 15 -7 26 -17z m-5493 -47 c46 -47 70 -113
64 -175 -9 -78 -43 -183 -68 -206 -21 -19 -21 -19 -40 5 -53 65 -88 304 -55
369 21 41 62 44 99 7z m5046 -121 c96 -86 145 -217 146 -384 0 -127 -11 -162
-76 -238 -27 -31 -70 -94 -96 -139 -32 -54 -54 -82 -66 -83 -55 -1 -128 74
-154 158 -34 110 -16 415 32 552 8 24 35 71 60 106 41 57 50 64 80 64 26 0 45
-9 74 -36z m-4695 -128 c30 -12 35 -21 46 -68 6 -29 14 -98 17 -153 8 -167
-28 -292 -113 -383 l-44 -47 -40 43 c-58 64 -82 137 -83 247 -1 209 3 259 26
300 38 67 117 92 191 61z m431 -100 c74 -45 201 -240 231 -356 40 -150 14
-460 -52 -625 -28 -69 -89 -147 -135 -170 -34 -18 -99 -19 -122 -2 -20 14
-150 386 -177 507 -27 118 -27 309 0 414 25 100 50 153 91 200 54 62 99 71
164 32z m3809 -127 c18 -14 33 -45 52 -107 14 -48 49 -157 77 -242 49 -146 52
-161 52 -260 0 -116 -14 -157 -73 -213 -67 -64 -101 -19 -138 186 -13 72 -45
197 -70 277 -74 235 -71 324 10 361 52 24 58 23 90 -2z m-363 -30 c44 -57 188
-362 226 -479 98 -299 95 -557 -6 -759 -35 -68 -42 -75 -103 -90 -73 -17 -110
-13 -176 20 -84 42 -151 119 -213 244 -171 349 -151 834 42 1027 61 61 80 69
153 65 48 -3 62 -8 77 -28z m-474 -111 c16 -17 16 -24 -1 -145 -30 -201 -32
-447 -7 -625 37 -260 25 -367 -44 -384 -74 -19 -112 32 -155 206 -45 183 -103
362 -176 541 -75 186 -80 224 -36 285 35 47 91 87 169 120 49 21 71 24 145 22
67 -2 91 -7 105 -20z m-2366 -141 c23 -15 37 -35 43 -59 8 -33 5 -43 -25 -93
-41 -69 -165 -202 -196 -210 -16 -4 -30 1 -48 19 -22 22 -25 33 -25 99 0 40 7
97 15 125 17 55 64 118 99 132 41 17 102 11 137 -13z m1689 -83 c203 -110 325
-466 375 -1089 21 -263 -84 -485 -252 -535 -92 -28 -173 22 -253 155 -53 88
-92 128 -115 119 -20 -8 -38 -40 -70 -124 -24 -63 -40 -86 -99 -146 -81 -81
-146 -116 -255 -139 -40 -8 -114 -32 -165 -54 -121 -50 -154 -56 -220 -37 -61
18 -101 56 -142 139 -38 74 -53 91 -146 160 -47 35 -126 111 -183 174 -55 62
-125 131 -155 154 -78 58 -111 140 -131 331 -34 334 128 765 325 865 93 47
212 18 271 -66 30 -42 30 -44 29 -169 0 -112 -4 -143 -36 -267 -44 -171 -58
-258 -58 -369 0 -93 5 -116 26 -116 24 0 45 71 75 263 34 222 53 303 86 374
48 104 108 120 195 51 43 -35 61 -43 95 -43 41 0 47 4 135 97 88 91 96 97 143
103 84 10 87 12 185 90 134 107 152 116 226 111 43 -2 77 -12 114 -32z m-1910
-456 c30 -84 20 -405 -16 -511 -19 -56 -52 -72 -125 -64 -95 11 -161 73 -181
168 -22 105 14 173 146 278 34 27 79 74 100 105 21 31 44 56 51 56 7 0 18 -15
25 -32z m2835 -487 c100 -58 131 -106 104 -164 -16 -34 -46 -49 -101 -49 -60
1 -122 34 -139 73 -25 62 16 169 64 169 12 0 45 -13 72 -29z m-275 -152 c49
-30 190 -159 190 -174 0 -40 -137 -120 -258 -150 -84 -22 -122 -17 -141 17
-34 60 34 264 102 307 41 26 63 26 107 0z"/>
</g>
</svg>
