<?xml version="1.0" standalone="no"?>
<!DOCTYPE svg PUBLIC "-//W3C//DTD SVG 20010904//EN"
 "http://www.w3.org/TR/2001/REC-SVG-20010904/DTD/svg10.dtd">
<svg version="1.0" xmlns="http://www.w3.org/2000/svg"
 width="949.000000pt" height="949.000000pt" viewBox="0 0 949.000000 949.000000"
 preserveAspectRatio="xMidYMid meet">

<g transform="translate(0.000000,949.000000) scale(0.100000,-0.100000)"
fill="#000000" stroke="none">
<path d="M4390 9469 c-1460 -111 -2785 -887 -3597 -2109 -228 -343 -430 -761
-559 -1157 -248 -762 -295 -1619 -133 -2413 339 -1658 1546 -3015 3154 -3548
1163 -385 2444 -301 3550 232 575 277 1109 687 1526 1171 671 779 1061 1720
1140 2755 15 197 6 677 -15 860 -115 976 -491 1838 -1123 2576 -128 150 -403
421 -553 546 -774 642 -1694 1013 -2700 1088 -154 11 -534 11 -690 -1z m705
-249 c1097 -92 2090 -556 2851 -1332 346 -352 609 -722 825 -1160 254 -517
400 -1042 449 -1623 16 -186 13 -590 -5 -780 -139 -1448 -947 -2717 -2203
-3458 -1335 -789 -3021 -820 -4392 -82 -570 307 -1088 753 -1471 1267 -704
943 -1007 2100 -858 3268 122 955 552 1848 1224 2539 382 393 769 676 1249
912 527 260 1047 401 1671 452 97 8 551 6 660 -3z"/>
<path d="M4440 8820 c-870 -72 -1654 -391 -2317 -942 -141 -117 -410 -386
-519 -518 -505 -613 -808 -1307 -915 -2095 -29 -215 -37 -669 -15 -895 50
-530 183 -991 418 -1460 486 -969 1327 -1699 2348 -2041 381 -127 715 -190
1112 -208 777 -36 1540 145 2213 527 125 71 379 242 500 336 782 613 1321
1502 1499 2476 50 271 60 403 61 740 0 337 -11 465 -61 740 -199 1088 -834
2051 -1760 2668 -541 360 -1135 576 -1809 658 -153 18 -602 27 -755 14z m551
-990 c460 -46 870 -189 1229 -429 621 -414 1016 -1046 1131 -1804 26 -175 36
-490 20 -678 -72 -847 -466 -1669 -1192 -2484 -220 -247 -672 -673 -872 -822
-81 -60 -187 -109 -306 -140 -80 -21 -120 -26 -241 -27 -155 -1 -236 10 -354
50 -79 27 -183 82 -241 128 -210 165 -560 490 -755 700 -736 796 -1141 1560
-1272 2396 -19 126 -22 185 -23 445 0 314 8 400 56 620 171 779 668 1423 1369
1775 277 139 627 240 935 269 130 12 396 13 516 1z"/>
<path d="M2772 5306 c-94 -18 -202 -51 -278 -86 l-60 -27 8 -89 c59 -615 437
-1170 963 -1415 310 -143 684 -180 1003 -98 41 10 77 20 78 22 8 7 -20 227
-42 337 -119 595 -504 1098 -979 1281 -167 65 -254 82 -445 85 -119 2 -198 -1
-248 -10z"/>
<path d="M6255 5301 c-375 -78 -706 -315 -939 -673 -74 -114 -166 -306 -210
-440 -64 -192 -124 -560 -96 -578 7 -5 61 -19 119 -32 92 -20 133 -23 311 -23
229 0 296 10 479 71 340 113 637 347 845 666 154 237 261 548 282 822 l7 83
-75 31 c-156 65 -255 84 -453 88 -147 3 -196 0 -270 -15z"/>
</g>
</svg>
