<svg xmlns="http://www.w3.org/2000/svg" width="200" height="200" viewBox="0 0 200 200">
  <circle cx="100" cy="100" r="90" fill="none" stroke="#2F2F2F" stroke-width="6"/>
  <circle cx="100" cy="100" r="70" fill="none" stroke="#696969" stroke-width="4"/>
  <!-- Thorns/barbed wire -->
  <path d="M 40 60 L 60 70 L 50 80 L 70 90 L 60 100 L 80 110 L 70 120 L 90 130" fill="none" stroke="#A9A9A9" stroke-width="4"/>
  <path d="M 160 60 L 140 70 L 150 80 L 130 90 L 140 100 L 120 110 L 130 120 L 110 130" fill="none" stroke="#A9A9A9" stroke-width="4"/>
  <!-- Dark raven/crow silhouette -->
  <path d="M 80 80 Q 90 70 100 80 Q 110 70 120 80 Q 110 90 100 84 Q 90 90 80 80" fill="#000000"/>
  <path d="M 96 84 L 92 100 L 100 96 L 108 100 L 104 84" fill="#000000"/>
  <!-- Shadowy wisps -->
  <path d="M 50 120 Q 60 130 70 120 Q 60 140 50 130" fill="none" stroke="#2F2F2F" stroke-width="3"/>
  <path d="M 150 120 Q 140 130 130 120 Q 140 140 150 130" fill="none" stroke="#2F2F2F" stroke-width="3"/>
</svg>