<svg xmlns="http://www.w3.org/2000/svg" width="100" height="100" viewBox="0 0 100 100">
  <circle cx="50" cy="50" r="45" fill="none" stroke="#2F2F2F" stroke-width="3"/>
  <circle cx="50" cy="50" r="35" fill="none" stroke="#696969" stroke-width="2"/>
  <!-- Thorns/barbed wire -->
  <path d="M 20 30 L 30 35 L 25 40 L 35 45 L 30 50 L 40 55 L 35 60 L 45 65" fill="none" stroke="#A9A9A9" stroke-width="2"/>
  <path d="M 80 30 L 70 35 L 75 40 L 65 45 L 70 50 L 60 55 L 65 60 L 55 65" fill="none" stroke="#A9A9A9" stroke-width="2"/>
  <!-- Dark raven/crow silhouette -->
  <path d="M 40 40 Q 45 35 50 40 Q 55 35 60 40 Q 55 45 50 42 Q 45 45 40 40" fill="#000000"/>
  <path d="M 48 42 L 46 50 L 50 48 L 54 50 L 52 42" fill="#000000"/>
  <!-- Shadowy wisps -->
  <path d="M 25 60 Q 30 65 35 60 Q 30 70 25 65" fill="none" stroke="#2F2F2F" stroke-width="1.5"/>
  <path d="M 75 60 Q 70 65 65 60 Q 70 70 75 65" fill="none" stroke="#2F2F2F" stroke-width="1.5"/>
</svg>