<?xml version="1.0" standalone="no"?>
<!DOCTYPE svg PUBLIC "-//W3C//DTD SVG 20010904//EN"
 "http://www.w3.org/TR/2001/REC-SVG-20010904/DTD/svg10.dtd">
<svg version="1.0" xmlns="http://www.w3.org/2000/svg"
 width="949.000000pt" height="949.000000pt" viewBox="0 0 949.000000 949.000000"
 preserveAspectRatio="xMidYMid meet">

<g transform="translate(0.000000,949.000000) scale(0.100000,-0.100000)"
fill="#000000" stroke="none">
<path d="M4515 9483 c-677 -39 -1269 -191 -1850 -473 -1826 -889 -2882 -2847
-2625 -4867 66 -515 213 -1004 445 -1478 608 -1242 1722 -2152 3065 -2504 858
-225 1821 -195 2665 84 238 78 377 135 610 250 289 142 515 279 755 459 346
258 697 610 956 956 847 1130 1143 2582 809 3965 -253 1051 -888 2012 -1760
2665 -752 563 -1624 882 -2565 940 -151 9 -381 11 -505 3z m530 -253 c1104
-81 2102 -537 2877 -1314 274 -274 535 -616 720 -941 536 -943 713 -2041 502
-3105 -245 -1235 -1001 -2310 -2083 -2965 -1104 -668 -2455 -827 -3686 -434
-271 86 -611 235 -856 374 -116 67 -375 238 -487 322 -314 238 -624 548 -871
872 -977 1283 -1184 3015 -539 4501 221 508 515 943 913 1349 790 807 1813
1273 2950 1344 123 8 432 6 560 -3z"/>
<path d="M4555 8833 c-38 -2 -140 -10 -225 -18 -836 -83 -1626 -423 -2261
-973 -125 -108 -368 -355 -466 -472 -911 -1097 -1188 -2567 -738 -3917 441
-1326 1539 -2338 2898 -2673 339 -83 607 -114 982 -114 300 0 450 13 716 59
1262 222 2359 1042 2935 2195 221 443 350 881 410 1395 22 183 25 650 6 825
-60 543 -195 1004 -431 1465 -205 402 -449 736 -769 1052 -809 801 -1911 1225
-3057 1176z m-2049 -1503 c607 -830 1264 -1620 1998 -2408 94 -101 172 -187
173 -190 2 -4 -91 -104 -205 -222 l-208 -214 -125 149 c-628 755 -1130 1587
-1480 2455 -32 80 -59 140 -59 134 0 -5 22 -80 50 -166 284 -886 787 -1730
1464 -2458 l125 -135 -37 -38 -37 -39 -88 94 c-507 536 -883 1069 -1196 1696
-225 449 -408 954 -512 1407 -17 72 -32 139 -36 150 -8 31 2 18 173 -215z
m4589 -7 c-321 -1295 -1057 -2497 -2086 -3409 -416 -369 -870 -676 -1373 -931
l-190 -95 -127 133 c-71 74 -127 137 -126 140 1 3 94 91 207 195 406 375 994
952 1369 1344 615 643 1196 1316 1746 2020 137 175 510 672 584 778 24 34 46
60 48 58 3 -2 -21 -107 -52 -233z m-1720 -3294 c76 -78 570 -547 750 -713 88
-81 161 -151 162 -154 2 -4 -55 -67 -125 -141 l-127 -134 -215 110 c-315 160
-606 339 -880 541 -63 46 -118 88 -123 91 -4 4 50 55 120 114 71 58 184 158
253 221 69 64 127 116 130 116 3 0 28 -23 55 -51z m-2129 -1070 c231 -243 420
-445 422 -450 8 -19 -78 -61 -135 -66 l-59 -5 -367 386 c-202 212 -367 392
-367 400 0 66 50 176 80 176 4 0 196 -199 426 -441z m3448 411 c29 -35 49 -98
44 -139 -2 -21 -70 -99 -267 -307 -145 -154 -310 -326 -365 -383 l-101 -103
-51 4 c-58 5 -127 37 -132 61 -2 10 156 184 415 457 229 242 420 440 424 440
4 0 19 -14 33 -30z m-3646 -602 l60 -63 -16 -27 c-9 -16 -19 -28 -22 -28 -3 0
-37 32 -75 71 l-70 70 24 20 c13 10 27 19 31 19 5 0 35 -28 68 -62z m3484 44
l27 -17 -71 -73 c-73 -75 -88 -79 -104 -30 -5 16 7 34 52 79 32 33 61 59 64
59 3 0 17 -8 32 -18z m-3491 -210 c-38 -64 -34 -65 -134 36 l-92 94 40 24 40
24 78 -80 c64 -66 76 -83 68 -98z m3584 156 c19 -13 34 -26 32 -30 -3 -11
-169 -178 -176 -178 -3 0 -16 15 -28 34 l-21 33 75 82 c41 44 77 81 79 81 2 0
20 -10 39 -22z m-3736 -143 l92 -95 -27 -35 c-14 -19 -30 -35 -34 -35 -9 0
-193 195 -197 208 -3 7 56 52 68 52 3 0 47 -43 98 -95z m3837 74 c19 -11 34
-25 34 -30 0 -10 -189 -209 -199 -209 -3 0 -18 15 -33 33 l-26 34 90 96 c49
54 92 97 95 97 3 0 21 -9 39 -21z m-3926 -162 l104 -108 -40 -39 -39 -38 -110
115 -110 115 40 34 c22 19 43 33 46 31 3 -1 52 -51 109 -110z m4059 59 c11
-13 -4 -33 -95 -131 l-108 -115 -38 37 c-44 43 -50 31 81 165 l94 97 27 -19
c15 -11 32 -26 39 -34z m-4160 -153 l111 -117 -32 -33 c-18 -18 -37 -33 -42
-32 -6 1 -60 53 -119 116 l-109 115 33 34 c18 19 36 34 40 34 4 0 57 -53 118
-117z m4241 82 l33 -34 -108 -113 c-59 -62 -111 -114 -114 -116 -4 -1 -22 13
-40 32 l-34 35 107 116 c60 63 111 115 115 115 4 0 22 -16 41 -35z m-4261
-321 c-18 -19 -36 -33 -39 -32 -3 2 -54 54 -114 116 l-108 114 33 35 34 35
113 -117 114 -117 -33 -34z m4356 235 c14 -17 25 -35 23 -39 -2 -4 -51 -58
-110 -120 l-106 -112 -36 34 -36 33 111 118 c61 64 114 117 119 117 4 0 20
-14 35 -31z m-4425 -287 c0 -4 -16 -20 -36 -36 l-36 -28 -65 63 c-35 35 -82
85 -103 110 l-39 46 32 38 31 38 108 -112 c59 -62 108 -115 108 -119z m4538
148 c-2 -4 -47 -54 -102 -110 l-98 -101 -39 27 c-22 15 -38 31 -37 35 2 5 50
58 107 120 l105 112 34 -37 c18 -21 32 -41 30 -46z m-4673 -257 c-31 -21 -39
-23 -49 -12 -7 8 -47 51 -90 96 l-79 82 24 36 24 36 104 -106 104 -106 -38
-26z m4744 172 c0 -5 -39 -52 -88 -104 l-88 -94 -31 23 c-18 13 -32 27 -32 31
0 4 43 53 97 109 l96 101 23 -28 c13 -15 23 -32 23 -38z m-4953 -56 l19 -22
-30 7 c-36 9 -39 12 -30 25 9 16 20 13 41 -10z m4994 6 c10 -12 10 -15 -1 -15
-8 0 -25 -3 -39 -7 -25 -6 -25 -6 -6 15 23 26 29 27 46 7z m-4980 -71 c15 -9
35 -29 44 -44 17 -29 23 -115 7 -106 -5 3 -41 42 -81 86 l-72 80 37 0 c20 0
49 -7 65 -16z m4992 -21 c-17 -21 -54 -60 -82 -88 l-52 -50 5 54 c4 47 10 59
41 88 28 26 44 33 77 33 l41 0 -30 -37z m-4873 -80 c-14 -16 -14 -16 -23 22
-7 29 -7 29 13 11 16 -15 18 -22 10 -33z m4711 35 c0 -22 -17 -41 -30 -33 -8
5 -7 12 6 26 20 22 24 23 24 7z"/>
<path d="M6810 6868 c-221 -544 -498 -1064 -845 -1588 -270 -408 -534 -746
-915 -1171 l-75 -84 124 115 c151 140 362 364 525 559 531 635 940 1361 1187
2105 33 99 58 183 57 188 -2 5 -28 -51 -58 -124z"/>
</g>
</svg>
