<?xml version="1.0" standalone="no"?>
<!DOCTYPE svg PUBLIC "-//W3C//DTD SVG 20010904//EN"
 "http://www.w3.org/TR/2001/REC-SVG-20010904/DTD/svg10.dtd">
<svg version="1.0" xmlns="http://www.w3.org/2000/svg"
 width="949.000000pt" height="949.000000pt" viewBox="0 0 949.000000 949.000000"
 preserveAspectRatio="xMidYMid meet">

<g transform="translate(0.000000,949.000000) scale(0.100000,-0.100000)"
fill="#000000" stroke="none">
<path d="M4345 9469 c-880 -76 -1725 -398 -2433 -929 -1468 -1099 -2170 -2939
-1807 -4735 246 -1217 959 -2287 1990 -2984 638 -432 1333 -689 2125 -786 182
-23 673 -31 878 -16 1120 85 2156 551 2956 1331 1074 1047 1586 2517 1396
4007 -115 893 -478 1721 -1071 2438 -115 140 -470 491 -614 608 -768 624
-1658 985 -2630 1067 -142 12 -647 11 -790 -1z m795 -249 c837 -74 1625 -375
2295 -876 827 -618 1423 -1511 1669 -2499 88 -355 123 -617 133 -995 36 -1444
-614 -2792 -1777 -3684 -518 -398 -1166 -691 -1815 -821 -1553 -311 -3139 205
-4203 1365 -559 609 -936 1352 -1096 2160 -105 529 -114 1089 -25 1620 245
1470 1219 2734 2580 3348 526 238 1036 359 1664 396 94 6 448 -3 575 -14z"/>
<path d="M4354 8815 c-824 -85 -1561 -392 -2212 -921 -144 -116 -453 -430
-576 -584 -118 -147 -282 -389 -371 -544 -467 -818 -635 -1794 -470 -2735 289
-1646 1574 -2963 3210 -3291 312 -62 446 -74 815 -74 369 0 503 12 815 74
1161 233 2172 972 2757 2018 592 1058 678 2354 231 3485 -441 1119 -1352 1987
-2493 2375 -252 86 -500 143 -795 183 -196 27 -712 35 -911 14z m-29 -959
c125 -32 241 -74 256 -92 9 -12 -25 -50 -176 -197 -103 -100 -195 -186 -204
-192 -9 -5 -79 -10 -156 -11 -162 -1 -239 -19 -367 -86 -97 -50 -198 -144
-198 -183 0 -22 79 -107 448 -479 551 -557 780 -781 809 -790 12 -4 33 -2 45
5 13 6 119 106 235 222 l213 212 180 -180 c99 -99 180 -183 180 -186 0 -7
-779 -791 -818 -824 l-23 -19 -1014 1014 c-558 558 -1015 1020 -1015 1026 0 5
116 125 258 265 189 188 280 270 343 312 232 153 472 220 759 213 114 -4 166
-10 245 -30z m1338 19 c194 -29 414 -121 572 -239 44 -34 187 -167 319 -297
207 -205 237 -238 228 -255 -6 -10 -141 -147 -302 -303 -288 -281 -291 -284
-317 -270 -31 17 -333 327 -333 342 0 6 43 54 95 108 121 123 123 136 34 221
-40 39 -90 73 -152 103 -131 64 -197 79 -347 79 -113 0 -134 -3 -218 -31 -174
-58 -200 -79 -605 -482 l-367 -365 -180 179 c-99 99 -180 184 -180 190 0 15
666 679 746 744 151 123 303 199 490 247 182 46 345 55 517 29z m136 -1219
l515 -515 -179 -180 c-98 -100 -184 -181 -189 -181 -6 0 -253 242 -549 538
l-538 538 129 125 c129 125 221 188 272 189 19 0 133 -109 539 -514z m-3135
-215 l299 -299 -21 -28 c-33 -47 -327 -334 -341 -334 -7 0 -59 45 -116 100
-57 55 -109 100 -116 100 -49 0 -141 -105 -205 -231 -113 -226 -97 -523 42
-736 22 -33 189 -211 397 -419 310 -312 358 -364 349 -380 -6 -11 -88 -95
-182 -189 l-172 -169 -377 379 c-395 397 -435 445 -520 613 -91 180 -132 356
-132 567 0 269 74 511 224 735 33 49 140 166 306 333 140 141 257 257 260 257
4 0 141 -135 305 -299z m4746 43 c266 -270 329 -350 403 -514 147 -323 161
-696 39 -1006 -47 -121 -41 -119 -113 -39 -34 39 -120 128 -191 198 -71 71
-133 138 -137 150 -4 12 -4 39 1 62 21 87 -9 273 -62 391 -48 108 -146 235
-190 249 -11 3 -32 -1 -47 -9 -15 -8 -301 -288 -635 -623 -490 -490 -608 -613
-608 -634 0 -40 41 -88 250 -293 l192 -189 -178 -178 c-99 -99 -183 -179 -189
-179 -6 0 -196 186 -424 414 -361 361 -412 416 -403 432 6 11 463 471 1015
1023 l1005 1004 29 -21 c15 -11 125 -118 243 -238z m-3892 -416 c83 -85 152
-161 152 -169 0 -8 -241 -255 -536 -549 l-536 -534 -127 129 c-133 137 -199
234 -187 278 3 12 235 251 515 531 l509 509 29 -21 c15 -11 97 -90 181 -174z
m467 -948 l420 -420 -1022 -1022 -1023 -1023 -240 243 c-132 133 -267 278
-300 323 -269 362 -328 861 -151 1272 23 53 41 59 66 20 10 -14 94 -104 186
-198 l169 -172 0 -127 c0 -158 18 -243 76 -361 42 -87 124 -194 165 -216 14
-7 30 -7 52 0 23 8 218 197 640 619 565 566 607 610 607 642 0 31 -20 54 -222
257 l-223 223 180 180 c99 99 184 180 190 180 6 0 199 -189 430 -420z m3301
48 c390 -393 429 -438 516 -613 77 -154 111 -274 128 -453 20 -218 -26 -476
-120 -667 -86 -177 -138 -243 -385 -493 -126 -129 -243 -243 -259 -255 l-28
-20 -294 294 c-162 162 -294 300 -294 308 0 15 232 255 310 321 l45 38 99 -93
c54 -51 109 -96 123 -99 82 -21 231 200 273 405 25 117 25 170 1 284 -24 116
-59 200 -117 283 -26 37 -205 226 -398 420 l-350 352 179 180 c99 99 185 180
190 180 6 0 178 -168 381 -372z m-98 -891 c13 -26 25 -61 28 -79 5 -32 -10
-48 -503 -540 -301 -301 -516 -508 -527 -508 -20 0 -356 334 -356 353 0 7 241
255 536 552 l535 540 132 -136 c78 -80 142 -155 155 -182z m-1895 -461 c748
-736 1487 -1483 1487 -1503 0 -10 -112 -129 -254 -269 -181 -179 -279 -268
-338 -307 -224 -148 -453 -217 -718 -217 -153 0 -269 18 -412 66 -180 59 -185
38 55 264 l205 195 149 0 c140 0 153 2 236 31 108 39 183 83 259 153 99 90
148 26 -560 733 -577 578 -619 618 -652 618 -31 0 -53 -19 -250 -215 -118
-118 -220 -215 -225 -215 -6 0 -91 81 -190 180 l-180 180 415 415 c228 228
420 415 427 415 7 0 253 -236 546 -524z m-1189 -725 l538 -538 -128 -127
c-100 -97 -145 -134 -200 -162 -57 -29 -75 -34 -90 -26 -11 6 -248 241 -529
521 l-510 511 180 180 c99 99 184 180 190 180 6 0 252 -242 549 -539z m-580
-380 l159 -160 -101 -104 c-76 -79 -102 -111 -102 -131 0 -52 124 -157 254
-216 99 -45 159 -55 311 -55 131 1 146 3 227 31 164 59 207 93 594 480 194
195 358 354 366 354 17 0 358 -342 358 -360 0 -8 -163 -177 -362 -375 -388
-385 -464 -449 -633 -530 -293 -142 -664 -165 -975 -60 -108 36 -264 117 -344
177 -82 62 -556 530 -556 549 0 8 132 146 294 308 l294 294 29 -21 c15 -11
100 -93 187 -181z"/>
</g>
</svg>
