<?xml version="1.0" standalone="no"?>
<!DOCTYPE svg PUBLIC "-//W3C//DTD SVG 20010904//EN"
 "http://www.w3.org/TR/2001/REC-SVG-20010904/DTD/svg10.dtd">
<svg version="1.0" xmlns="http://www.w3.org/2000/svg"
 width="949.000000pt" height="949.000000pt" viewBox="0 0 949.000000 949.000000"
 preserveAspectRatio="xMidYMid meet">

<g transform="translate(0.000000,949.000000) scale(0.100000,-0.100000)"
fill="#000000" stroke="none">
<path d="M4358 9469 c-601 -50 -1210 -222 -1748 -494 -472 -239 -873 -535
-1256 -926 -676 -692 -1119 -1563 -1278 -2514 -51 -303 -60 -427 -60 -790 0
-363 9 -487 60 -790 199 -1196 857 -2272 1836 -3005 725 -543 1563 -858 2481
-931 196 -15 706 -7 887 15 760 93 1445 340 2059 743 959 629 1653 1568 1966
2663 328 1148 212 2377 -327 3443 -618 1223 -1741 2123 -3068 2457 -255 64
-507 106 -785 130 -138 11 -623 11 -767 -1z m607 -239 c652 -36 1221 -185
1784 -466 448 -223 809 -483 1162 -834 180 -179 301 -319 446 -514 1176 -1584
1176 -3758 0 -5342 -309 -416 -689 -779 -1112 -1061 -989 -659 -2188 -902
-3347 -678 -1099 213 -2068 820 -2743 1720 -484 645 -773 1375 -872 2203 -25
209 -25 765 0 974 99 828 387 1558 872 2203 800 1067 2029 1725 3348 1794 221
12 263 12 462 1z"/>
<path d="M4445 8824 c-1530 -124 -2843 -1062 -3453 -2465 -150 -345 -260 -763
-309 -1174 -23 -195 -23 -685 0 -880 111 -931 498 -1752 1132 -2404 677 -696
1539 -1115 2510 -1223 160 -17 690 -17 850 0 1288 143 2416 861 3077 1962 717
1192 777 2671 161 3915 -324 653 -795 1188 -1398 1589 -204 136 -305 193 -507
290 -402 193 -816 313 -1278 372 -120 15 -666 27 -785 18z m-878 -998 c4 -7
27 -23 50 -35 23 -11 48 -31 54 -44 6 -12 23 -34 36 -49 14 -14 22 -31 19 -37
-4 -5 2 -15 13 -20 18 -10 56 -99 46 -109 -2 -2 3 -18 11 -35 20 -37 28 -227
10 -227 -6 0 -5 -4 3 -9 8 -5 12 -19 9 -35 -3 -14 -1 -26 4 -26 5 0 6 -4 3
-10 -3 -5 -1 -10 6 -10 8 0 8 -4 -1 -15 -9 -10 -9 -15 -1 -15 25 0 9 -36 -21
-49 -18 -8 -27 -16 -21 -18 7 -3 22 1 34 7 17 10 20 9 17 -2 -3 -7 -15 -19
-29 -26 -24 -13 -24 -13 6 -8 26 5 28 4 11 -7 -10 -6 -28 -20 -40 -29 -21 -16
-21 -17 -1 -23 11 -4 28 -11 38 -16 10 -6 26 -7 37 -4 10 3 25 -1 33 -10 9 -8
23 -15 32 -15 12 0 16 -6 12 -20 -3 -13 0 -20 10 -20 8 0 12 -4 8 -9 -3 -5 -1
-12 5 -16 6 -4 8 -10 5 -15 -9 -15 14 -50 32 -50 13 0 14 -3 6 -11 -13 -13 -7
-36 14 -61 8 -9 12 -22 8 -27 -3 -6 -1 -11 6 -11 9 0 9 -4 -1 -15 -6 -8 -9
-19 -5 -25 3 -6 8 -27 10 -48 2 -20 8 -58 13 -84 10 -49 2 -62 -18 -30 -9 14
-10 13 -4 -8 3 -14 10 -29 15 -35 13 -13 11 -28 -2 -19 -7 4 -10 -3 -8 -17 1
-13 -2 -32 -6 -42 -5 -12 -2 -22 10 -31 20 -15 4 -33 -17 -20 -7 4 -10 3 -5
-1 10 -12 -64 -36 -91 -30 -15 4 -21 2 -17 -5 3 -5 -2 -10 -12 -10 -10 0 -29
-7 -41 -16 -22 -15 -24 -14 -47 8 -13 14 -29 36 -34 51 -6 15 -17 27 -25 27
-9 0 -13 6 -10 14 3 9 -5 21 -20 31 -14 10 -23 21 -21 26 3 4 -6 26 -19 48
-18 28 -22 41 -13 44 7 3 4 6 -6 6 -13 1 -17 8 -15 29 2 32 -18 73 -34 69 -15
-3 -17 25 -3 35 6 5 2 8 -9 8 -11 0 -16 3 -13 7 4 3 2 12 -4 20 -8 9 -8 13 -1
13 7 0 6 13 -4 35 -8 19 -12 46 -9 60 3 14 8 37 11 52 3 15 10 30 15 34 6 3 0
9 -13 13 l-23 7 27 10 27 10 -20 22 c-14 15 -30 21 -58 20 -33 -2 -43 3 -58
25 -27 40 -126 223 -185 340 -51 102 -52 105 -56 212 -2 60 -2 120 2 134 9 38
62 94 120 127 44 25 61 29 128 29 55 0 79 -4 85 -14z m1083 -28 c0 -4 9 -8 20
-8 11 0 20 -5 20 -10 0 -6 16 -18 35 -27 19 -9 32 -19 30 -23 -3 -4 4 -15 15
-25 11 -10 20 -23 20 -30 0 -7 9 -20 20 -30 11 -10 17 -21 15 -25 -3 -4 3 -18
13 -31 30 -39 63 -171 62 -241 -1 -74 5 -146 14 -155 13 -13 5 -74 -14 -111
-16 -30 -30 -42 -60 -51 -52 -16 -53 -36 -1 -27 30 5 42 2 56 -14 10 -11 24
-20 31 -20 50 0 74 -35 109 -152 9 -31 21 -58 26 -60 16 -5 28 -75 16 -87 -8
-8 -8 -11 1 -11 7 0 11 -3 10 -7 -1 -5 5 -21 12 -38 7 -16 13 -45 14 -62 0
-18 6 -33 12 -33 15 0 24 -58 10 -64 -6 -2 -2 -5 9 -6 20 -1 20 -1 1 -15 -12
-9 -15 -15 -7 -15 11 0 11 -3 1 -15 -10 -12 -10 -15 1 -15 9 -1 7 -6 -6 -17
-18 -14 -18 -15 -1 -9 14 5 17 2 12 -10 -3 -8 -6 -19 -6 -24 0 -5 -17 -14 -37
-20 -39 -13 -66 -30 -46 -30 5 0 24 5 42 11 46 16 50 4 6 -22 -26 -16 -33 -24
-23 -30 7 -5 23 -6 35 -2 14 3 23 1 23 -6 0 -19 -31 -61 -45 -61 -16 0 -65
-38 -65 -51 0 -5 13 -3 29 5 37 20 111 36 111 26 0 -5 9 -11 20 -15 11 -3 19
-9 19 -13 -3 -21 2 -32 13 -26 7 4 8 3 4 -5 -4 -6 -3 -17 2 -24 8 -11 18 -61
27 -142 2 -16 6 -42 10 -56 4 -16 2 -30 -4 -33 -15 -10 -14 -53 2 -59 9 -3 9
-7 -1 -20 -8 -9 -11 -20 -8 -25 3 -5 -1 -18 -9 -28 -8 -10 -15 -30 -15 -43 0
-37 -62 -71 -72 -40 -2 5 -11 7 -21 4 -9 -4 -14 -11 -11 -16 3 -5 -4 -9 -15
-9 -11 0 -23 5 -26 10 -5 8 -11 7 -21 -1 -11 -9 -14 -7 -14 9 0 15 -5 19 -20
15 -11 -3 -20 0 -20 6 0 5 -6 8 -14 5 -9 -3 -16 6 -21 28 -5 21 -9 27 -12 16
-7 -26 -33 -10 -34 21 0 14 -3 20 -6 14 -2 -7 -8 -13 -13 -13 -12 0 -48 73
-55 114 -4 20 -11 36 -16 36 -5 0 -9 5 -9 11 0 5 5 7 10 4 6 -4 10 5 9 22 -1
17 -3 21 -6 11 -2 -10 -8 -18 -13 -18 -12 0 -40 47 -40 67 0 10 -7 29 -16 41
-15 22 -15 24 2 28 119 33 156 63 82 66 -23 1 -52 2 -63 2 -14 1 -20 9 -21 27
-1 14 -4 31 -8 37 -3 6 -2 13 4 17 24 15 9 42 -30 54 -33 10 -40 16 -42 39 -4
76 -18 142 -29 142 -5 0 -9 12 -9 26 0 14 -4 34 -10 44 -5 10 -12 37 -15 60
-3 24 -12 63 -20 88 -12 34 -13 48 -4 58 9 11 8 14 -3 14 -7 0 -14 8 -15 18
-8 121 -8 142 4 146 7 3 13 12 13 21 0 8 6 15 13 15 8 0 22 9 31 19 17 18 16
19 -25 26 -24 4 -37 10 -30 15 8 4 2 11 -17 19 -16 7 -34 23 -40 37 -7 13 -16
24 -22 24 -6 0 -9 4 -6 9 4 5 -5 23 -19 39 -15 18 -23 37 -19 46 4 11 1 16
-10 16 -9 0 -16 6 -16 13 0 7 -15 37 -34 66 -19 29 -44 89 -56 133 -18 68 -20
87 -11 125 7 24 9 49 5 54 -11 18 37 169 58 180 10 5 18 18 18 28 0 29 81 59
157 58 34 -1 63 -5 63 -9z m-1784 -744 c74 -44 91 -65 155 -190 47 -93 52
-110 61 -200 5 -55 7 -106 5 -116 -3 -10 3 -18 13 -21 15 -4 18 -14 18 -53 -1
-27 5 -72 12 -101 12 -47 12 -54 -3 -71 -9 -10 -17 -24 -17 -30 0 -7 -5 -12
-11 -12 -6 0 -33 -22 -59 -50 -37 -39 -55 -50 -78 -50 -17 0 -34 -4 -37 -10
-3 -5 -11 -10 -16 -10 -18 0 2 20 34 34 18 8 26 15 19 15 -6 1 -35 -10 -62
-23 -28 -13 -50 -20 -50 -15 0 5 -7 9 -16 9 -17 0 -53 38 -54 56 0 6 -12 29
-27 50 -14 21 -29 53 -33 69 -5 23 -11 29 -28 28 -16 -2 -26 6 -38 30 -9 17
-34 56 -55 85 -35 49 -56 104 -104 264 -21 67 -16 126 15 196 45 101 122 151
231 152 57 0 72 -4 125 -36z m240 -889 c-11 -8 -25 -15 -30 -15 -6 0 -2 7 8
15 11 8 25 15 30 15 6 0 2 -7 -8 -15z m61 -10 c8 -8 18 -13 22 -11 15 10 49
-77 54 -140 1 -11 10 -28 20 -38 15 -15 19 -29 16 -52 0 -4 5 -10 12 -15 10
-6 10 -10 0 -23 -17 -20 -6 -36 19 -29 11 3 20 0 20 -6 0 -17 2 -24 11 -48 5
-14 5 -23 -1 -23 -6 0 -3 -17 6 -37 9 -21 18 -47 19 -59 2 -11 17 -36 34 -55
36 -39 36 -62 1 -69 -14 -3 -37 -13 -53 -24 -21 -14 -30 -16 -41 -7 -10 8 -16
9 -21 1 -3 -5 -14 -10 -23 -10 -10 0 -29 -12 -42 -27 -31 -35 -79 -38 -91 -7
-9 25 -7 43 5 62 11 19 -1 27 -18 13 -10 -8 -16 -9 -21 -1 -3 5 3 14 15 18 25
9 25 22 -2 40 -10 7 -16 17 -13 22 11 17 -13 19 -44 4 -34 -17 -82 -12 -100
10 -21 25 -25 103 -7 131 10 15 14 34 11 45 -4 12 -2 20 5 20 6 0 9 4 5 10 -3
5 -13 6 -21 3 -12 -5 -15 -1 -10 13 4 13 -6 33 -29 63 -40 50 -44 76 -14 92
17 9 19 13 8 20 -11 6 -9 9 6 15 10 4 26 15 36 23 70 65 77 68 112 50 12 -7
19 -8 14 -4 -4 5 10 16 30 26 48 22 51 22 70 4z m1039 -103 c16 -11 34 -48 34
-71 0 -12 4 -21 8 -21 11 0 49 -95 56 -141 5 -26 2 -40 -9 -49 -11 -9 -14 -22
-9 -47 6 -33 5 -35 -15 -28 -16 5 -21 2 -22 -12 0 -16 -1 -16 -9 2 -5 11 -9
14 -9 8 -1 -19 -19 -16 -24 5 -3 10 -5 5 -7 -13 l-2 -30 -13 30 c-11 24 -14
26 -15 10 0 -13 -7 -21 -20 -23 -43 -4 -50 -6 -50 -14 0 -4 -7 -8 -15 -8 -8 0
-15 5 -15 11 0 5 -4 8 -9 4 -6 -3 -15 3 -21 12 -10 16 -10 15 -5 -4 5 -17 2
-23 -9 -23 -9 0 -16 8 -16 18 0 26 -16 46 -30 37 -9 -6 -10 -9 0 -15 9 -5 9
-9 1 -14 -12 -8 -54 72 -45 85 2 4 -5 9 -17 12 -16 4 -19 2 -14 -16 6 -21 6
-22 -9 -3 -22 27 -21 30 17 49 22 12 25 15 8 11 -19 -5 -23 -3 -18 10 4 9 2
16 -3 16 -6 0 -10 -7 -10 -15 0 -8 -4 -15 -9 -15 -15 0 -23 36 -16 73 4 20 2
37 -3 41 -17 11 17 68 38 63 9 -2 24 -1 32 4 8 4 30 11 49 14 18 3 36 9 39 13
3 4 14 8 25 10 65 9 92 15 105 23 19 10 41 11 56 1z m-281 -332 c3 -5 1 -10
-4 -10 -6 0 -11 5 -11 10 0 6 2 10 4 10 3 0 8 -4 11 -10z m25 -30 c0 -5 -4
-10 -10 -10 -5 0 -10 5 -10 10 0 6 5 10 10 10 6 0 10 -4 10 -10z m4061 -23
c31 -21 34 -28 37 -78 2 -47 -3 -66 -41 -144 -24 -50 -70 -160 -102 -245 -60
-162 -95 -239 -127 -279 -10 -14 -28 -45 -39 -70 -27 -61 -64 -108 -100 -127
-17 -8 -37 -30 -45 -49 -17 -42 -52 -69 -116 -91 -42 -14 -54 -14 -75 -3 -18
10 -31 10 -53 2 -21 -8 -30 -8 -34 1 -3 8 -7 7 -14 -2 -7 -10 -11 -10 -22 3
-7 8 -21 15 -31 15 -15 0 -19 8 -19 39 0 22 -5 41 -12 43 -10 4 -10 10 0 32 6
15 12 43 12 62 0 27 5 37 22 43 17 6 23 17 23 44 2 40 29 87 54 94 13 3 16 13
13 38 -4 33 36 136 58 150 13 8 13 45 0 45 -7 0 -6 8 2 23 7 12 11 27 9 32
-10 32 -8 45 4 45 10 0 14 9 11 30 -2 19 3 35 15 46 11 10 19 26 19 36 0 11 9
22 19 25 12 3 23 17 26 33 3 16 13 34 22 42 9 7 26 30 39 50 14 21 31 38 39
38 8 0 15 4 15 9 0 15 54 45 85 47 39 3 68 10 130 28 76 22 136 20 176 -7z
m-3856 -7 c3 -5 1 -10 -4 -10 -6 0 -11 5 -11 10 0 6 2 10 4 10 3 0 8 -4 11
-10z m-2203 -58 c31 -15 57 -31 58 -37 0 -5 14 -19 31 -30 65 -43 147 -224
154 -339 1 -26 8 -52 15 -56 9 -6 9 -13 1 -28 -16 -29 -4 -51 26 -49 22 2 26
-3 29 -31 4 -36 5 -35 -57 -104 -45 -52 -44 -59 5 -29 40 24 86 35 86 21 0 -6
5 -8 11 -4 8 5 8 8 0 14 -7 3 -9 13 -6 22 4 11 15 13 42 9 31 -5 38 -11 50
-46 7 -22 21 -46 30 -52 9 -7 14 -13 10 -13 -7 0 56 -123 74 -146 5 -6 6 -14
2 -17 -3 -4 0 -7 7 -7 27 0 80 -93 80 -142 0 -22 -9 -43 -25 -60 -33 -36 -32
-42 6 -22 44 22 62 4 29 -31 -27 -28 -21 -32 14 -9 23 14 25 14 40 -8 15 -21
14 -24 -9 -48 -14 -14 -25 -32 -25 -38 0 -14 -86 -59 -96 -50 -3 4 2 19 11 35
l17 28 -21 -25 c-11 -14 -21 -22 -21 -18 0 4 -16 0 -35 -8 -52 -22 -93 8 -135
98 -12 25 -28 49 -35 52 -8 3 -30 31 -51 63 -20 32 -60 90 -89 128 -29 39 -58
87 -64 107 -16 49 -5 103 22 116 21 10 21 11 -5 11 -31 1 -34 7 -15 31 6 9 2
6 -9 -6 -12 -13 -24 -28 -26 -34 -2 -7 -18 -9 -47 -4 -35 6 -47 13 -60 38 -9
17 -57 72 -108 121 -66 66 -100 108 -123 155 -18 36 -41 74 -51 86 -10 11 -23
44 -29 72 -5 29 -14 61 -20 71 -12 23 5 131 23 146 7 6 18 22 24 37 30 68 154
82 265 30z m1128 18 c0 -5 -5 -10 -11 -10 -5 0 -7 5 -4 10 3 6 8 10 11 10 2 0
4 -4 4 -10z m25 -40 c-3 -5 -11 -10 -16 -10 -6 0 -7 5 -4 10 3 6 11 10 16 10
6 0 7 -4 4 -10z m325 -110 c0 -5 -18 -19 -41 -30 -23 -12 -39 -24 -36 -27 3
-3 30 8 59 24 29 16 63 28 76 25 25 -4 26 -6 11 -34 -10 -19 -9 -20 7 -13 46
19 51 17 79 -30 15 -26 25 -55 22 -66 -3 -10 -1 -19 5 -19 6 0 8 -7 4 -15 -3
-9 3 -30 14 -48 24 -39 27 -72 5 -63 -19 7 -19 -13 0 -38 8 -10 12 -23 9 -27
-3 -5 0 -9 6 -9 6 0 9 -4 5 -9 -3 -5 -1 -12 4 -16 5 -3 9 -24 9 -48 -1 -31 -3
-37 -9 -22 -4 11 -8 15 -8 8 -1 -19 11 -43 19 -38 4 2 6 -6 6 -18 -1 -12 2
-28 7 -34 6 -8 6 -13 -1 -13 -6 0 -14 9 -17 20 -4 11 -10 18 -15 15 -5 -3 -11
1 -13 7 -3 7 -6 3 -6 -9 -1 -12 4 -25 9 -28 6 -4 7 -11 4 -17 -4 -6 0 -14 7
-19 10 -6 10 -9 2 -9 -7 0 -10 -6 -7 -14 3 -8 1 -17 -4 -20 -14 -8 -22 19 -28
94 -4 40 -2 60 3 52 7 -8 9 1 9 28 -1 22 -4 40 -8 40 -4 0 -10 9 -13 20 -4 14
-12 19 -24 15 -18 -5 -48 40 -54 82 -4 28 -17 42 -17 19 0 -10 14 -48 30 -86
34 -77 37 -93 14 -64 -14 18 -15 17 -9 -18 6 -40 -8 -51 -33 -26 -9 9 -12 8
-13 -8 0 -16 -2 -15 -10 5 -14 35 -23 17 -10 -20 9 -25 8 -35 -1 -42 -9 -6 -8
-7 5 -3 9 3 17 4 17 3 0 -1 4 -18 10 -37 9 -32 8 -33 -5 -16 -8 11 -15 25 -16
30 0 6 -4 1 -9 -12 -9 -22 -10 -22 -28 -5 -20 19 -22 30 -8 51 5 8 3 19 -3 25
-9 9 -11 8 -6 -5 5 -13 2 -18 -9 -18 -9 0 -16 -8 -16 -17 -1 -14 -4 -12 -15 7
-8 14 -14 19 -15 12 0 -28 -19 1 -35 53 -8 30 -20 55 -25 55 -9 0 -5 -21 8
-45 3 -5 7 -20 8 -33 2 -19 0 -21 -12 -11 -8 6 -14 17 -14 25 0 7 -9 18 -20
24 -15 8 -19 17 -15 31 5 15 1 22 -15 26 -16 4 -18 8 -8 14 10 7 10 9 1 9 -7
0 -13 9 -13 20 0 10 -11 30 -24 43 -14 14 -22 28 -19 31 4 3 1 6 -6 6 -21 0
-3 54 26 79 17 14 21 21 11 17 -28 -9 -22 19 7 34 33 18 32 28 -4 22 -28 -4
-57 18 -33 26 7 2 12 10 12 18 0 8 5 14 10 14 6 0 12 0 15 0 3 0 15 10 26 21
19 19 23 20 31 6 8 -14 12 -14 46 6 20 11 39 24 42 28 5 6 29 17 43 18 4 1 7
-3 7 -9z m-172 -22 c-3 -7 -13 -15 -24 -17 -16 -3 -17 -1 -5 13 16 19 34 21
29 4z m412 -238 c0 -5 -2 -10 -4 -10 -3 0 -8 5 -11 10 -3 6 -1 10 4 10 6 0 11
-4 11 -10z m3710 -37 c-1 -21 -28 -55 -34 -44 -4 6 -2 11 3 11 6 0 10 3 10 8
-3 18 2 32 11 32 6 0 10 -3 10 -7z m-2226 -10 c4 -4 23 -6 43 -4 23 2 33 -1
29 -8 -4 -6 0 -11 8 -11 9 0 15 5 14 12 -4 15 26 22 58 14 14 -4 26 -16 30
-31 3 -14 15 -30 25 -36 11 -5 18 -15 17 -22 -1 -7 8 -34 21 -60 13 -26 24
-59 25 -72 0 -14 4 -25 9 -25 13 0 7 -33 -10 -53 -10 -11 -12 -17 -5 -13 9 5
15 1 19 -13 3 -11 9 -18 14 -15 5 3 9 -11 9 -30 0 -20 4 -36 9 -36 4 0 8 -19
9 -42 0 -24 5 -56 10 -73 14 -47 -4 -122 -53 -222 -25 -51 -50 -95 -55 -98 -6
-3 -10 -15 -10 -25 0 -12 -13 -26 -30 -35 -31 -16 -39 -9 -17 15 6 8 -2 3 -19
-13 -34 -31 -52 -34 -61 -11 -5 13 -9 12 -28 -6 -12 -11 -25 -17 -30 -13 -4 5
-5 0 -2 -9 4 -11 1 -18 -6 -18 -7 0 -6 -4 3 -10 13 -8 13 -13 2 -30 -7 -12
-10 -30 -7 -40 4 -11 -1 -27 -12 -38 -28 -29 -40 -50 -83 -138 -25 -53 -46
-83 -59 -87 -12 -3 -24 -20 -32 -46 -7 -23 -21 -47 -31 -52 -19 -10 -27 4 -8
16 23 14 8 23 -17 9 -16 -7 -34 -14 -40 -14 -7 0 -13 -6 -14 -12 0 -10 -2 -10
-6 0 -9 22 -23 13 -23 -15 0 -27 -25 -63 -44 -63 -6 0 -20 -17 -31 -38 -24
-45 -39 -47 -65 -7 -22 33 -28 16 -10 -29 6 -16 6 -27 -1 -31 -5 -4 -7 -10 -4
-15 3 -4 -13 -11 -35 -15 -22 -4 -40 -11 -40 -16 0 -4 7 -6 15 -3 19 8 31 -22
17 -39 -6 -7 -8 -24 -5 -37 4 -15 2 -21 -5 -16 -6 3 -13 -6 -17 -24 -5 -24
-10 -29 -20 -20 -10 8 -13 6 -11 -7 0 -10 -5 -17 -12 -15 -9 1 -11 -6 -6 -25
5 -23 4 -26 -7 -15 -18 17 -30 15 -23 -3 4 -8 0 -23 -7 -32 -11 -12 -11 -17
-2 -20 7 -2 9 -11 6 -19 -3 -7 -9 -11 -14 -8 -5 3 -9 -6 -9 -20 0 -15 -6 -26
-13 -26 -7 0 -19 -21 -26 -47 -26 -88 -31 -99 -41 -83 -8 13 -10 12 -10 -2 0
-11 -14 -24 -36 -33 -47 -20 -47 -20 -40 13 5 27 5 27 -9 -3 -8 -16 -14 -24
-15 -17 0 7 -5 10 -11 7 -5 -4 -19 1 -30 11 -18 16 -19 16 -19 0 0 -9 4 -15 9
-12 12 8 23 -56 12 -67 -5 -5 -17 -1 -30 12 -12 12 -26 21 -32 21 -8 0 -7 5 1
15 11 13 10 14 -4 9 -11 -4 -26 5 -46 27 -16 19 -30 29 -30 23 0 -6 17 -29 38
-50 90 -96 112 -123 112 -139 0 -9 -4 -13 -10 -10 -6 4 -7 -1 -3 -11 4 -11 8
-13 11 -6 5 15 42 16 42 1 0 -5 4 -8 9 -4 14 8 25 -15 13 -27 -6 -6 -15 -2
-25 12 -10 14 -17 18 -22 10 -4 -6 0 -17 10 -23 13 -10 14 -18 6 -40 -12 -30
-31 -36 -31 -10 0 15 -2 14 -15 -3 -8 -10 -15 -14 -15 -7 0 6 10 19 22 27 20
14 18 21 -4 17 -5 0 -8 5 -9 11 0 7 -5 2 -10 -11 -13 -33 -16 -28 -28 49 -2
10 -41 9 -41 -1 0 -20 21 -49 31 -44 5 4 9 3 8 -2 -3 -12 12 -46 30 -67 15
-17 14 -18 -4 -15 -11 2 -23 11 -27 19 -5 12 -7 11 -7 -3 -1 -10 -5 -15 -11
-12 -5 3 -10 -1 -10 -9 0 -9 -5 -16 -11 -16 -6 0 -8 7 -5 16 8 20 -11 94 -24
94 -6 0 -10 10 -10 23 0 18 -2 19 -10 7 -7 -11 -10 -12 -10 -2 0 15 -24 42
-37 42 -5 0 -18 -7 -29 -16 -18 -15 -18 -15 2 -5 17 8 25 7 35 -5 10 -12 10
-15 -1 -12 -8 2 -16 -5 -18 -14 -2 -10 2 -18 8 -18 6 0 8 5 5 10 -3 6 -1 10 4
10 13 0 15 -17 3 -24 -15 -9 -12 -66 3 -66 9 0 12 -6 9 -15 -4 -8 -1 -15 5
-15 6 0 11 -6 11 -12 -1 -17 -50 43 -50 60 0 6 -5 12 -10 12 -6 0 -9 6 -8 13
2 6 -5 11 -14 9 -11 -2 -18 3 -18 14 0 11 -5 14 -16 10 -12 -5 -15 -2 -10 9 3
9 2 13 -4 10 -12 -7 -13 -32 -2 -37 11 -5 52 -66 52 -78 0 -5 4 -10 9 -10 5 0
13 -9 16 -20 4 -11 11 -17 17 -14 7 4 8 2 4 -5 -4 -6 -2 -19 5 -27 6 -8 9 -18
5 -21 -4 -4 -18 6 -32 22 l-25 30 17 -28 c15 -24 15 -30 4 -37 -8 -5 -18 -6
-22 -4 -4 3 -8 1 -8 -4 0 -5 -10 -8 -21 -8 -12 1 -24 -4 -26 -10 -6 -17 24
-25 39 -11 20 19 61 38 86 40 12 0 22 5 22 9 0 4 5 8 11 8 8 0 7 -5 -2 -16
-11 -14 -9 -19 11 -35 14 -10 20 -19 14 -19 -7 0 -14 -9 -17 -20 -3 -11 -1
-18 4 -14 14 8 11 -6 -5 -22 -8 -7 -16 -19 -19 -26 -3 -10 -10 -8 -26 6 -18
16 -21 17 -21 3 0 -9 5 -19 10 -22 6 -3 10 -19 10 -36 0 -16 -4 -29 -10 -29
-5 0 -10 -9 -10 -19 0 -11 -4 -23 -10 -26 -5 -3 -10 -1 -10 4 0 6 -6 11 -14
11 -9 0 -12 -7 -9 -20 9 -35 -7 -21 -23 21 -11 26 -21 38 -30 35 -17 -6 -17
-5 -4 30 9 23 8 25 -4 15 -11 -9 -15 -7 -20 14 -4 14 -10 23 -15 21 -5 -3 -14
1 -21 9 -10 12 -10 21 -1 41 12 28 14 41 4 31 -3 -4 -12 -2 -18 3 -9 7 -14 6
-18 -4 -7 -18 -47 -10 -47 10 0 7 -9 18 -21 25 -13 6 -19 17 -16 28 2 10 -2
26 -9 36 -8 10 -14 15 -14 10 0 -4 -9 0 -20 10 -23 21 -28 44 -5 25 8 -7 15
-8 15 -3 0 10 -65 73 -75 73 -21 0 -25 1 -25 11 0 6 9 9 20 6 17 -4 18 -3 8
16 -6 12 -17 28 -25 35 -11 11 -13 11 -13 -4 0 -13 -3 -14 -15 -4 -19 16 -19
30 0 30 9 0 12 6 8 18 -5 12 1 10 20 -8 15 -14 27 -31 27 -37 0 -18 17 -16 24
2 3 8 2 15 -2 15 -4 0 -13 12 -20 28 -10 23 -10 29 3 38 12 9 11 14 -10 32
-15 13 -27 17 -31 11 -3 -6 -11 -3 -20 8 -12 16 -11 20 6 35 12 9 18 23 14 32
-3 9 -2 16 4 16 5 0 13 -21 17 -47 5 -32 9 -42 15 -33 7 11 11 8 19 -13 6 -16
11 -33 11 -39 0 -6 3 -8 7 -4 4 3 12 -2 17 -12 11 -19 11 -19 31 0 16 16 17
18 2 13 -12 -5 -17 -2 -17 9 0 9 7 19 15 22 10 4 13 13 9 26 -3 12 1 28 13 41
18 22 18 22 -3 5 -11 -10 -26 -18 -32 -18 -7 0 -9 7 -5 18 6 15 5 15 -10 3 -9
-7 -17 -10 -18 -5 0 5 -4 0 -9 -11 -7 -19 -8 -19 -18 5 -5 14 -17 32 -26 39
-23 19 -20 38 8 45 13 3 37 20 52 38 16 18 64 55 107 81 42 27 77 51 77 54 0
2 -15 1 -32 -2 -18 -4 -31 -5 -28 -2 3 3 8 6 13 6 4 1 16 10 27 21 11 11 34
23 50 27 21 4 32 13 36 30 4 13 9 22 12 19 3 -3 11 3 19 14 8 11 18 20 23 20
10 0 60 44 60 53 0 10 -52 -16 -78 -39 -56 -50 -60 -52 -70 -42 -8 8 -9 5 -6
-8 7 -28 -25 -54 -72 -58 -47 -4 -74 -15 -74 -28 0 -5 -10 -8 -22 -6 -17 2
-23 -2 -21 -16 1 -12 -2 -15 -9 -8 -6 6 -16 8 -23 6 -9 -4 -11 3 -8 20 4 17 1
26 -7 26 -9 0 -10 3 -1 13 8 11 5 17 -14 27 -13 7 -22 17 -19 21 3 5 -2 6 -11
3 -13 -5 -13 -9 5 -24 17 -15 18 -19 5 -24 -8 -3 -15 0 -15 6 0 6 -3 9 -6 5
-4 -3 3 -18 15 -33 11 -14 18 -30 15 -35 -3 -5 -1 -9 4 -9 6 0 8 -9 5 -20 -4
-16 -7 -17 -19 -5 -8 7 -11 21 -8 29 3 9 1 16 -5 16 -6 0 -11 -4 -11 -8 0 -14
-36 -8 -55 10 -18 18 -18 18 4 18 12 0 20 4 16 10 -3 5 -12 7 -19 4 -8 -3 -17
-1 -21 5 -3 6 1 11 9 11 10 0 13 6 10 15 -4 8 -11 15 -17 15 -6 0 -7 -3 -4 -7
4 -3 2 -12 -5 -20 -6 -8 -11 -30 -10 -49 1 -21 -3 -32 -8 -29 -6 4 -8 11 -4
16 3 5 0 8 -7 7 -13 -3 -15 2 -18 40 -1 12 -3 14 -9 4 -5 -7 -7 -30 -5 -52 3
-36 1 -40 -19 -37 -12 2 -24 10 -26 17 -3 7 0 10 6 6 6 -4 8 2 4 16 -5 19 -7
20 -10 5 -3 -14 -7 -16 -18 -6 -11 9 -17 9 -29 -1 -20 -16 -19 -6 2 28 l16 27
-29 -28 c-24 -23 -26 -29 -14 -37 9 -6 20 -5 29 3 12 10 14 9 8 -6 -4 -11 -1
-20 8 -23 8 -4 12 -10 9 -16 -3 -5 -15 1 -27 13 l-21 22 -26 -31 c-15 -18 -30
-29 -34 -25 -4 5 -13 8 -19 8 -7 0 -13 10 -15 23 -2 12 -10 22 -18 22 -8 0
-13 4 -9 9 3 5 1 12 -5 16 -5 3 -10 17 -10 30 0 12 -7 26 -15 29 -9 3 -15 11
-14 18 3 24 -1 38 -10 38 -5 0 -8 -11 -5 -25 6 -35 -5 -31 -55 21 -31 32 -45
55 -47 79 -2 19 0 34 4 34 23 -4 42 2 37 11 -7 11 6 13 29 4 9 -3 13 -11 9
-18 -3 -6 3 -2 15 8 12 11 20 22 17 25 -4 3 -10 0 -14 -7 -6 -10 -10 -10 -19
1 -9 11 -9 23 3 52 9 20 11 34 6 30 -6 -3 -11 1 -11 9 0 8 5 18 10 21 6 4 8
11 5 16 -4 5 1 12 9 15 9 3 16 13 16 21 0 8 4 12 9 8 6 -3 13 16 17 42 5 36 9
43 14 28 6 -16 9 -11 14 23 4 23 12 40 17 36 5 -3 9 11 9 31 0 22 4 34 10 30
6 -3 10 1 10 9 0 9 5 16 10 16 6 0 10 9 10 20 0 25 8 25 27 3 14 -17 14 -17 9
1 -6 16 -4 17 9 6 14 -12 14 -9 -1 22 -9 20 -14 43 -11 51 7 20 44 11 60 -14
7 -11 16 -19 20 -19 5 0 -2 14 -14 32 -23 32 -32 68 -18 68 4 0 13 -8 18 -17
6 -10 11 -14 11 -9 0 5 -8 18 -17 29 -10 11 -13 17 -6 14 6 -4 13 -1 16 5 3
10 7 10 19 0 10 -8 19 -9 22 -3 4 5 -3 12 -14 16 -11 3 -20 11 -20 16 0 6 10
5 23 -2 20 -11 21 -11 8 4 -9 12 -10 17 -2 17 7 0 9 5 6 10 -8 13 -3 13 31 0
24 -9 25 -9 14 5 -7 8 -19 15 -27 15 -29 0 15 31 53 37 l37 6 -24 18 c-13 10
-18 19 -11 19 6 0 12 7 12 15 0 8 5 15 11 15 5 0 8 -4 5 -9 -6 -10 24 -25 32
-16 3 3 0 5 -6 5 -19 0 -14 18 6 23 10 3 5 5 -13 7 -16 1 -24 4 -17 7 6 2 10
9 6 14 -3 5 2 9 10 9 10 0 13 6 10 15 -4 8 -1 15 5 15 6 0 11 -4 11 -10 0 -5
5 -10 10 -10 7 0 7 6 0 19 -13 24 -13 44 -1 36 5 -3 12 4 16 15 3 11 11 20 16
20 6 0 9 10 8 23 -4 35 12 108 22 101 5 -3 7 -10 4 -15 -4 -5 -1 -9 4 -9 6 0
11 9 11 20 0 11 5 20 11 20 5 0 8 4 5 8 -3 5 -6 27 -7 50 -2 22 -6 39 -11 36
-4 -3 -8 0 -8 6 0 7 -7 5 -16 -4 -21 -21 -41 -20 -54 3 -17 32 -13 54 10 48
10 -3 24 1 31 9 15 19 49 18 49 -1 0 -8 7 -15 15 -15 10 0 15 -10 16 -27 0
-27 1 -27 9 -5 5 12 14 22 21 22 6 0 8 -7 5 -16 -3 -8 0 -22 7 -29 12 -11 16
-10 28 6 7 10 19 19 26 19 7 0 13 6 13 13 0 6 14 27 30 46 17 18 30 30 30 26
0 -4 7 -2 15 5 12 10 18 10 32 -1 15 -13 15 -12 5 8 -11 21 -9 23 30 33 24 6
49 19 56 28 6 9 12 12 12 8 0 -5 7 -3 16 5 12 10 17 10 23 0 11 -17 33 11 26
32 -6 15 -6 15 120 17 40 1 95 19 95 32 0 6 6 8 14 5 8 -3 17 1 20 9 4 10 13
13 31 8 19 -5 25 -2 25 10 0 19 11 21 28 4 9 -9 12 -9 12 1 0 7 4 10 9 7 5 -3
12 2 16 12 6 16 7 16 19 0 12 -17 14 -17 30 5 13 16 27 22 47 21 16 -1 29 2
29 8 0 5 5 6 10 3 6 -3 10 2 11 12 1 10 7 -2 15 -26 7 -24 12 -46 10 -50 -2
-3 3 -13 12 -21 14 -13 15 -12 8 5 -18 48 -18 73 0 83 19 10 26 12 44 12 7 0
7 6 1 19 -12 22 7 35 36 24 12 -5 15 -2 10 9 -7 20 20 33 38 18 8 -7 15 -7 19
-1 3 5 22 8 41 6 19 -2 35 1 35 7 0 24 25 -2 36 -38 l13 -39 -3 43 c-2 23 -1
42 1 42 2 0 17 -7 33 -15 17 -9 30 -11 30 -6 0 5 -6 11 -12 14 -7 2 3 9 22 15
44 13 55 14 64 5z m-1494 -19 c0 -8 -4 -12 -10 -9 -5 3 -10 10 -10 16 0 5 5 9
10 9 6 0 10 -7 10 -16z m-110 -189 c0 -8 4 -15 9 -15 5 0 8 -8 6 -17 -2 -10
-4 -22 -4 -27 -1 -13 -14 2 -17 18 -1 7 -5 23 -9 35 -4 12 -2 21 4 21 6 0 11
-7 11 -15z m-30 -30 c0 -5 -5 -3 -10 5 -5 8 -10 20 -10 25 0 6 5 3 10 -5 5 -8
10 -19 10 -25z m187 -7 c-3 -8 -6 -5 -6 6 -1 11 2 17 5 13 3 -3 4 -12 1 -19z
m-107 -24 c0 -8 -4 -12 -10 -9 -5 3 -10 10 -10 16 0 5 5 9 10 9 6 0 10 -7 10
-16z m-63 -26 c-3 -8 -6 -5 -6 6 -1 11 2 17 5 13 3 -3 4 -12 1 -19z m2122
-508 c7 -11 24 -20 37 -20 13 0 24 -5 24 -10 0 -6 6 -10 13 -8 6 1 28 -12 47
-30 19 -18 29 -32 22 -32 -6 0 -12 -5 -12 -11 0 -7 10 -5 25 5 27 18 30 15 14
-15 -10 -19 -9 -20 10 -9 26 13 124 7 129 -9 2 -6 15 -11 28 -11 13 0 24 -5
24 -10 0 -13 61 -69 75 -70 13 0 35 -57 35 -87 0 -12 7 -28 15 -37 9 -9 17
-36 18 -66 2 -43 4 -49 20 -44 18 6 18 5 0 -23 l-18 -28 25 16 c23 15 27 15
57 0 17 -9 34 -25 37 -37 7 -26 41 -66 50 -57 3 3 6 -1 6 -11 0 -9 4 -15 9
-12 5 3 23 3 40 0 26 -5 30 -10 25 -27 -5 -14 -3 -17 7 -11 7 4 42 9 77 10 34
1 70 8 79 15 8 7 25 13 37 14 14 0 22 7 24 22 4 25 78 84 96 77 7 -3 20 4 30
15 10 11 24 17 32 14 17 -6 84 15 106 34 10 9 25 12 37 8 11 -3 30 0 43 9 13
8 36 16 53 18 36 4 50 -21 68 -113 9 -49 8 -65 -3 -82 -7 -12 -14 -43 -16 -68
-3 -63 -14 -109 -25 -109 -5 0 -9 -7 -9 -15 0 -9 -16 -57 -35 -106 -19 -50
-35 -107 -35 -128 0 -20 -7 -57 -15 -83 -9 -32 -12 -70 -8 -118 5 -59 3 -73
-12 -90 -13 -15 -14 -20 -5 -20 11 0 11 -3 2 -12 -6 -6 -8 -18 -3 -27 25 -49
-30 -241 -83 -286 -13 -11 -26 -35 -30 -54 -7 -38 -89 -165 -121 -187 -11 -8
-29 -14 -41 -14 -14 0 -30 -12 -43 -32 -11 -18 -31 -44 -44 -58 -13 -14 -26
-43 -30 -64 -5 -32 -3 -39 13 -43 28 -7 34 -38 14 -68 -14 -21 -15 -28 -5 -35
8 -4 11 -16 6 -29 -3 -12 -10 -19 -14 -16 -5 2 -6 -7 -3 -20 2 -14 0 -25 -4
-25 -5 0 -9 -16 -10 -35 0 -21 4 -35 11 -35 18 0 41 -168 28 -193 -8 -14 -33
15 -33 39 0 29 -19 71 -34 77 -6 3 -16 -5 -22 -17 -9 -20 -8 -22 13 -18 19 4
23 0 23 -20 0 -13 -8 -34 -17 -48 -12 -17 -13 -25 -5 -28 7 -2 12 -12 12 -22
0 -10 7 -25 15 -33 18 -19 33 -73 16 -63 -6 4 -11 1 -11 -6 0 -7 -11 -1 -25
14 -20 24 -26 26 -38 14 -11 -12 -17 -9 -35 18 -17 24 -21 43 -18 75 4 35 2
40 -10 30 -8 -6 -18 -9 -22 -5 -4 4 1 13 11 21 15 11 15 14 3 24 -8 7 -18 27
-22 44 -3 18 -9 34 -13 37 -3 3 -19 24 -34 48 l-27 42 -50 -25 c-27 -14 -65
-25 -84 -25 -30 0 -40 7 -80 58 -100 125 -143 201 -160 283 -7 33 -49 54 -66
33 -16 -18 -46 -18 -57 0 -11 18 -55 41 -73 38 -12 -2 -13 -1 -1 7 11 7 11 15
2 42 -6 18 -19 41 -28 51 -9 10 -11 18 -6 18 6 0 13 -7 17 -15 6 -18 32 -20
42 -3 4 6 -2 19 -14 29 -12 9 -31 39 -43 66 -16 38 -22 45 -29 32 -10 -17 -7
-79 4 -98 4 -6 3 -11 -3 -11 -5 0 -15 17 -22 38 -6 20 -21 50 -32 66 -11 16
-21 39 -22 50 -1 12 -6 30 -10 41 l-8 20 16 -20 c15 -19 16 -18 11 20 l-5 40
21 -35 21 -35 -7 30 c-4 17 -8 55 -9 86 -1 31 -5 61 -9 68 -4 6 -3 11 3 11 6
0 5 16 -3 43 -23 74 -38 99 -57 94 -10 -3 -27 4 -38 15 -25 23 -27 16 -5 -17
19 -28 8 -34 -12 -7 -13 16 -14 16 -7 -2 4 -12 2 -17 -4 -13 -5 3 -9 -4 -9
-16 1 -13 -4 -21 -11 -20 -12 3 -18 -31 -15 -84 0 -17 -5 -23 -19 -23 -11 0
-19 -7 -19 -16 0 -9 -6 -14 -13 -11 -9 3 -12 -5 -10 -32 2 -22 0 -30 -4 -19
-5 9 -20 26 -35 38 l-28 21 -2 -33 c0 -18 -1 -39 -1 -45 1 -7 -3 -13 -7 -13
-13 0 -70 76 -70 94 0 9 -4 16 -9 16 -5 0 -13 9 -16 21 -4 11 -9 18 -12 16 -2
-3 7 -28 22 -57 19 -37 23 -55 16 -64 -6 -7 -8 -17 -4 -22 4 -5 1 -3 -7 4 -13
11 -13 14 0 22 14 9 7 14 -14 11 -4 -1 -17 9 -28 21 l-20 23 24 5 c19 5 20 7
6 13 -18 6 -48 67 -48 97 0 9 -9 29 -21 44 -11 15 -18 33 -15 41 3 8 -2 29
-10 47 l-15 33 7 -35 c4 -23 3 -32 -4 -25 -14 14 -27 79 -14 71 18 -11 22 24
7 57 l-14 32 4 -40 4 -40 -13 40 c-8 22 -15 47 -15 56 -1 9 -8 22 -16 29 -19
16 -19 30 1 30 8 0 12 5 9 10 -4 6 -11 8 -16 5 -5 -4 -9 1 -9 9 0 9 -4 16 -10
16 -5 0 -10 9 -10 21 0 11 5 17 10 14 6 -3 10 -1 10 4 0 6 -4 11 -9 11 -5 0
-9 10 -9 23 0 12 -3 65 -7 118 -5 55 -4 109 2 125 5 16 6 45 3 64 l-5 35 -15
-35 c-9 -22 -14 -67 -13 -125 0 -83 -3 -88 -21 -32 -3 9 -14 17 -25 17 -10 0
-21 9 -24 20 -8 30 7 126 22 144 11 13 11 16 1 16 -10 0 -10 3 0 15 20 24 30
17 25 -17 l-5 -33 11 35 c6 19 14 40 19 45 4 6 11 24 14 42 8 34 36 67 36 42
0 -7 16 19 35 59 25 53 39 72 54 72 11 0 21 -8 23 -17 2 -13 9 -7 21 20 10 20
22 37 27 37 5 0 27 19 50 42 38 40 40 41 41 18 0 -14 4 -34 9 -45 6 -13 8 4 7
52 -2 64 1 74 24 100 14 15 32 44 39 63 7 19 18 41 24 49 21 27 100 71 128 71
15 0 28 5 28 11 0 20 93 2 109 -21z m-2885 -17 c-12 -29 -7 -63 12 -85 12 -13
15 -22 8 -25 -16 -5 10 -78 42 -121 14 -17 23 -36 20 -41 -3 -4 5 -36 18 -70
14 -33 20 -61 15 -61 -5 0 -9 -7 -9 -16 0 -24 -50 -9 -78 24 -20 22 -22 23
-13 5 8 -15 8 -23 1 -23 -5 0 -10 3 -10 8 0 4 -20 28 -44 54 -24 25 -46 52
-48 59 -2 6 -17 13 -32 15 -16 2 -37 11 -48 21 -27 24 -58 91 -51 109 3 8 -1
14 -11 14 -9 0 -16 6 -16 14 0 16 135 102 175 112 14 3 28 10 31 15 3 5 14 9
26 9 15 0 18 -4 12 -17z m2386 -338 c0 -8 -4 -15 -10 -15 -5 0 -10 7 -10 15 0
8 5 15 10 15 6 0 10 -7 10 -15z m-203 -501 c-9 -9 -28 6 -21 18 4 6 10 6 17
-1 6 -6 8 -13 4 -17z m13 -24 c0 -5 -4 -10 -10 -10 -5 0 -10 5 -10 10 0 6 5
10 10 10 6 0 10 -4 10 -10z m10 -53 c0 -5 -4 -5 -10 -2 -5 3 -10 14 -10 23 0
15 2 15 10 2 5 -8 10 -19 10 -23z m-1841 -38 c-22 -14 -33 -10 -19 6 7 8 17
12 22 9 6 -4 5 -10 -3 -15z m-8 -66 c-12 -20 -14 -14 -5 12 4 9 9 14 11 11 3
-2 0 -13 -6 -23z m123 11 c3 -8 2 -12 -4 -9 -6 3 -10 10 -10 16 0 14 7 11 14
-7z m-84 -40 c-18 -21 -24 -10 -9 18 8 14 14 18 17 10 2 -7 -2 -19 -8 -28z
m36 -19 c13 -13 13 -15 1 -15 -8 0 -17 7 -21 15 -3 8 -3 15 0 15 3 0 12 -7 20
-15z m666 -2 c-7 -3 -19 -11 -26 -19 -16 -16 -26 -18 -26 -6 0 10 54 42 60 35
3 -3 -1 -8 -8 -10z m-642 -33 c8 -5 11 -10 5 -10 -5 0 -17 5 -25 10 -8 5 -10
10 -5 10 6 0 17 -5 25 -10z m50 -18 c0 -15 -2 -15 -10 -2 -13 20 -13 33 0 25
6 -3 10 -14 10 -23z m25 8 c3 -5 1 -10 -4 -10 -6 0 -11 5 -11 10 0 6 2 10 4
10 3 0 8 -4 11 -10z m340 0 c3 -6 -4 -10 -17 -10 -18 0 -20 2 -8 10 19 12 18
12 25 0z m160 -10 c-3 -5 -11 -10 -16 -10 -6 0 -7 5 -4 10 3 6 11 10 16 10 6
0 7 -4 4 -10z m-560 -30 c3 -5 1 -10 -4 -10 -6 0 -11 5 -11 10 0 6 2 10 4 10
3 0 8 -4 11 -10z m41 -10 c9 0 13 -4 9 -10 -9 -14 -35 0 -34 19 0 10 2 11 6 4
2 -7 11 -13 19 -13z m1248 -139 c17 -31 13 -43 -11 -34 -11 4 -14 2 -11 -8 3
-8 11 -13 17 -11 6 1 11 -6 11 -17 0 -10 6 -24 14 -30 12 -10 13 -8 9 11 -5
18 -3 21 7 11 7 -6 18 -9 25 -6 8 2 19 -5 25 -18 11 -20 10 -21 -10 -16 -21 5
-21 5 -5 -13 10 -11 26 -22 36 -25 12 -4 16 -12 12 -22 -4 -10 -2 -14 5 -9 6
3 13 2 17 -4 3 -5 1 -10 -5 -10 -7 0 -10 -6 -7 -12 2 -7 10 -13 18 -13 8 0 19
-16 26 -35 7 -19 12 -29 12 -22 1 20 21 3 21 -17 0 -10 9 -26 20 -36 11 -10
20 -26 20 -35 0 -19 23 -43 33 -34 3 3 8 -4 12 -15 3 -12 10 -19 15 -16 5 3
22 -8 38 -25 19 -18 32 -25 34 -18 3 7 7 6 11 -5 3 -9 2 -17 -3 -17 -6 0 1
-29 15 -65 13 -36 20 -65 15 -65 -6 0 -10 -5 -10 -11 0 -5 4 -8 9 -4 5 3 12 1
16 -5 4 -6 10 -8 14 -6 4 3 18 -27 32 -65 20 -58 25 -67 30 -47 5 19 8 15 14
-22 5 -25 10 -39 13 -32 2 6 8 10 13 6 13 -7 11 3 -5 34 -20 41 -58 153 -53
158 2 2 13 -17 24 -43 12 -27 37 -86 57 -132 27 -61 32 -80 19 -70 -10 8 -22
19 -26 24 -5 6 -6 1 -3 -10 2 -11 8 -44 11 -72 4 -29 12 -53 18 -53 7 0 4 -5
-6 -11 -10 -6 -14 -15 -10 -22 4 -7 0 -6 -10 2 -18 15 -23 26 -7 16 6 -3 10 3
10 14 0 22 -14 28 -25 11 -4 -6 -11 -8 -17 -4 -5 3 -22 -9 -38 -27 l-28 -34
-26 24 c-14 14 -26 31 -26 38 0 8 -4 12 -9 9 -14 -9 -46 34 -43 59 2 13 -2 26
-7 30 -15 8 -14 48 1 63 17 17 2 28 -17 12 -14 -12 -20 -7 -16 14 1 4 -3 14
-10 22 -8 10 -7 17 5 30 13 12 14 19 5 30 -6 7 -8 18 -4 24 3 5 1 10 -5 10 -6
0 -16 11 -22 25 -6 14 -19 25 -30 25 -10 0 -18 7 -18 15 0 9 -8 28 -17 42 -10
15 -12 24 -5 20 17 -11 15 1 -3 19 -12 12 -15 12 -15 2 0 -8 -4 -7 -11 5 -5 9
-17 17 -24 17 -8 0 -15 5 -15 10 0 6 4 10 10 10 5 0 7 7 4 15 -4 8 -10 12 -15
9 -5 -3 -6 2 -3 10 4 11 0 16 -10 16 -13 0 -16 -11 -16 -56 0 -34 -4 -53 -10
-49 -5 3 -9 16 -8 28 0 12 -3 31 -7 41 -6 14 -5 17 3 12 7 -4 12 -1 12 8 0 26
-17 18 -30 -15 -11 -25 -11 -35 -1 -51 18 -29 32 -70 22 -64 -4 3 -14 19 -21
36 -7 16 -19 30 -26 30 -8 0 -14 7 -14 16 0 9 5 12 13 8 6 -4 5 1 -4 12 -9 10
-24 33 -32 49 -9 17 -16 24 -17 16 0 -8 -7 -11 -17 -7 -16 5 -16 5 -2 -6 16
-13 43 -78 32 -78 -4 0 2 -10 13 -22 19 -22 36 -54 47 -88 4 -9 6 -7 6 7 1 12
-3 25 -9 28 -5 3 -10 12 -10 18 0 7 8 3 16 -8 11 -14 14 -34 11 -65 -5 -40 -4
-43 9 -25 8 10 12 27 8 37 -3 10 -1 18 5 18 6 0 11 -9 11 -20 0 -11 8 -29 17
-40 23 -26 28 -67 9 -67 -9 0 -17 6 -20 14 -3 7 -1 13 4 13 6 0 10 5 10 11 0
5 -4 7 -10 4 -5 -3 -10 -1 -10 6 0 10 -3 10 -11 2 -8 -8 -4 -25 16 -61 15 -28
25 -56 23 -64 -6 -15 -80 135 -77 154 1 7 -3 25 -10 39 -13 26 -32 32 -48 15
-4 -4 -1 -6 7 -4 9 2 15 -5 15 -17 1 -11 4 -26 8 -33 5 -6 5 -17 2 -22 -3 -6
0 -13 8 -16 15 -5 12 -39 -3 -49 -13 -8 -52 33 -49 52 1 10 -3 31 -9 46 -7 16
-12 33 -12 38 0 5 -4 9 -10 9 -5 0 -10 8 -11 18 0 10 -2 12 -6 4 -3 -7 2 -24
11 -37 9 -13 16 -30 16 -37 -1 -7 -8 -1 -16 15 -18 33 -38 36 -28 5 4 -13 10
-25 13 -28 8 -6 91 -156 91 -165 0 -3 -8 -5 -17 -5 -15 0 -16 -2 -3 -10 18
-11 23 -57 8 -66 -7 -5 -9 -1 -5 9 4 11 1 17 -8 17 -8 0 -15 7 -15 15 0 10 -7
15 -17 13 -12 -2 -21 8 -29 32 -7 19 -8 37 -4 40 5 3 2 16 -5 30 -8 14 -14 19
-15 13 0 -7 -4 -13 -9 -13 -4 0 -7 18 -6 40 1 24 -2 38 -9 37 -6 -1 -11 8 -10
20 0 13 -2 21 -4 18 -3 -3 -12 1 -20 8 -13 10 -15 9 -10 -5 11 -26 -22 -32
-45 -7 -17 18 -18 25 -8 41 9 15 9 22 -1 32 -7 7 -19 11 -26 8 -7 -2 -10 2 -6
11 7 20 -23 77 -41 77 -8 0 -15 -7 -15 -15 0 -8 -4 -15 -10 -15 -5 0 -2 15 8
34 l17 34 21 -25 c32 -40 48 -20 19 24 -14 20 -25 40 -25 46 0 18 94 167 105
167 20 0 78 -69 81 -96 2 -15 9 -31 16 -35 20 -13 21 -3 3 25 -15 22 -15 26
-2 26 8 0 21 -10 30 -22 l15 -23 -5 26 c-3 17 -18 34 -41 47 -21 11 -50 34
-65 50 -26 27 -28 32 -16 53 16 29 22 72 8 64 -5 -4 -9 -13 -9 -21 0 -9 -5
-12 -11 -8 -9 5 -10 -1 -5 -20 9 -36 -10 -33 -34 6 -21 35 -17 55 5 25 13 -19
32 -7 20 13 -3 6 -1 10 5 10 6 0 8 5 5 10 -3 6 -2 10 4 10 6 0 8 7 4 17 -5 14
-8 13 -14 -5 -5 -12 -13 -22 -19 -22 -7 0 -7 6 -1 18 5 9 12 25 15 36 5 14 9
16 20 7 11 -9 15 -7 19 9 7 25 27 26 27 1 0 -10 7 -24 15 -31 13 -11 15 -7 15
25 0 32 2 36 15 25 12 -10 16 -9 21 4 8 22 11 21 28 -13z m-748 -69 c-9 -9
-16 3 -21 34 l-5 29 16 -28 c8 -16 13 -31 10 -35z m-156 38 c0 -5 -5 -10 -11
-10 -5 0 -7 5 -4 10 3 6 8 10 11 10 2 0 4 -4 4 -10z m20 -19 c0 -5 -7 -17 -16
-26 -15 -15 -15 -18 6 -41 19 -19 20 -24 8 -24 -9 0 -18 5 -20 12 -3 7 -7 5
-11 -6 -4 -10 -3 -15 3 -11 6 3 10 1 10 -4 0 -13 -10 -14 -29 -2 -7 5 -10 14
-7 20 4 6 2 11 -4 11 -6 0 -8 5 -5 10 3 6 1 10 -5 10 -12 0 20 49 33 50 5 0 5
-4 2 -10 -3 -5 -2 -10 3 -10 6 0 12 7 16 15 6 17 16 20 16 6z m1450 -91 c0 -5
-2 -10 -4 -10 -3 0 -8 5 -11 10 -3 6 -1 10 4 10 6 0 11 -4 11 -10z m74 -36
c10 -25 -1 -29 -14 -5 -6 12 -7 21 -1 21 5 0 12 -7 15 -16z m-1009 -73 c5 -17
4 -22 -6 -19 -8 3 -13 15 -11 28 2 19 0 21 -12 11 -12 -10 -13 -8 -9 9 5 18 8
19 18 8 7 -7 16 -24 20 -37z m958 2 c3 6 6 3 6 -9 1 -11 4 -24 8 -28 4 -4 8
-13 8 -19 1 -20 29 -87 37 -87 4 0 5 7 2 15 -4 8 -2 15 3 15 5 0 10 -12 11
-26 l2 -26 -33 21 c-20 13 -32 29 -32 43 -1 27 -31 87 -54 107 -9 7 -4 6 11
-3 20 -12 28 -12 31 -3z m-1378 -33 c3 -5 1 -10 -4 -10 -6 0 -11 5 -11 10 0 6
2 10 4 10 3 0 8 -4 11 -10z m1735 -63 c0 -16 -38 13 -43 33 -5 20 -4 19 19 -2
13 -13 24 -27 24 -31z m5 43 c3 -5 2 -10 -4 -10 -5 0 -13 5 -16 10 -3 6 -2 10
4 10 5 0 13 -4 16 -10z m-1825 -61 c0 -6 -4 -7 -10 -4 -5 3 -10 11 -10 16 0 6
5 7 10 4 6 -3 10 -11 10 -16z m1735 1 c3 -5 1 -10 -4 -10 -6 0 -11 5 -11 10 0
6 2 10 4 10 3 0 8 -4 11 -10z m177 -54 c3 3 8 2 11 -3 3 -4 -1 -14 -9 -21 -11
-10 -16 -6 -30 20 -17 33 -17 33 3 15 11 -9 22 -14 25 -11z m-32 -46 c6 -22
15 -38 20 -35 6 4 10 2 10 -3 0 -5 11 -14 24 -20 19 -8 24 -18 24 -46 0 -20
-3 -36 -7 -36 -4 0 -17 19 -28 43 -12 23 -22 35 -22 26 -1 -9 5 -29 13 -44 8
-15 12 -33 10 -39 -3 -7 9 -25 25 -42 32 -30 38 -44 21 -44 -6 0 -23 22 -40
48 -16 26 -43 60 -60 75 -31 28 -34 35 -24 61 5 13 9 14 20 5 12 -10 13 -8 4
15 -10 28 -14 76 -5 76 2 0 9 -18 15 -40z m-560 -54 c0 -6 -7 -2 -15 8 -8 11
-15 25 -15 30 0 6 7 2 15 -8 8 -11 15 -25 15 -30z m520 25 c0 -6 -4 -13 -10
-16 -5 -3 -10 1 -10 9 0 9 5 16 10 16 6 0 10 -4 10 -9z m-1580 -11 c0 -5 -9
-10 -21 -10 -11 0 -17 5 -14 10 3 6 13 10 21 10 8 0 14 -4 14 -10z m314 -16
c4 -10 2 -13 -6 -8 -7 5 -9 2 -5 -8 3 -9 0 -21 -6 -27 -8 -8 -6 -11 7 -11 15
0 16 -3 6 -15 -10 -12 -10 -15 4 -15 8 0 18 11 22 26 7 28 18 22 29 -16 6 -20
5 -23 -5 -13 -10 9 -18 8 -36 -4 -30 -19 -30 -30 -2 -52 12 -11 18 -23 14 -30
-6 -9 -11 -9 -21 -1 -9 8 -14 7 -18 -4 -4 -10 -1 -13 9 -9 10 4 14 -2 14 -20
0 -14 7 -33 16 -41 10 -10 13 -24 9 -38 -5 -21 -5 -21 5 -5 11 18 13 18 31 1
11 -10 17 -25 14 -35 -4 -11 0 -19 12 -23 10 -3 24 -15 31 -27 8 -12 9 -18 4
-15 -9 5 -16 -3 -22 -29 -1 -5 -9 -19 -16 -30 -21 -29 -17 -41 5 -14 l19 24
-1 -28 c-1 -15 -6 -27 -12 -27 -5 0 -4 -5 3 -12 16 -16 15 -28 -3 -28 -8 0
-15 -5 -15 -10 0 -16 -33 -7 -52 14 -21 23 -21 23 -6 32 7 5 8 2 3 -7 -5 -8
-4 -11 0 -6 12 10 14 47 3 47 -4 0 -8 -5 -8 -11 0 -6 -7 -3 -16 6 -14 13 -14
18 -2 33 11 15 11 16 -3 4 -9 -7 -24 -10 -33 -6 -20 8 -20 9 2 41 11 18 12 24
3 19 -8 -5 -17 -3 -22 5 -8 11 -12 10 -25 -6 -16 -20 -16 -20 -10 0 5 17 1 21
-21 23 -15 1 -37 12 -48 23 l-20 21 23 -11 c12 -7 22 -9 22 -5 0 3 7 1 15 -6
9 -7 19 -10 22 -6 4 4 1 11 -6 15 -8 5 -10 14 -6 21 6 9 4 11 -5 5 -10 -6 -12
-3 -8 13 4 13 2 19 -6 16 -12 -5 -41 34 -32 44 3 3 6 0 6 -6 0 -7 4 -12 8 -12
4 0 6 15 4 33 -2 22 2 38 12 46 9 8 16 20 16 27 0 18 25 18 43 0 7 -8 19 -11
26 -7 8 5 6 13 -9 26 -21 19 -28 51 -8 39 8 -5 9 -2 5 10 -6 16 4 43 28 73 13
16 12 16 19 -3z m446 -4 c6 -11 8 -20 6 -20 -3 0 -10 9 -16 20 -6 11 -8 20 -6
20 3 0 10 -9 16 -20z m280 -54 c0 -18 -17 8 -24 34 l-7 25 15 -25 c9 -14 15
-29 16 -34z m34 28 c3 -8 2 -12 -4 -9 -6 3 -10 -2 -10 -12 0 -15 -2 -16 -10
-3 -13 20 -13 33 0 25 6 -3 10 -1 10 4 0 16 7 13 14 -5z m-996 -115 c7 -12 11
-24 8 -27 -6 -6 -35 27 -36 41 0 14 15 7 28 -14z m279 -4 c9 -24 -1 -27 -15
-5 -8 13 -8 20 -2 20 6 0 13 -7 17 -15z m36 0 c-3 -9 -8 -14 -10 -11 -3 3 -2
9 2 15 9 16 15 13 8 -4z m96 -29 c28 -45 26 -54 -4 -18 -22 27 -32 52 -21 52
2 0 14 -15 25 -34z m408 -8 c-3 -8 -6 -5 -6 6 -1 11 2 17 5 13 3 -3 4 -12 1
-19z m-503 -15 c7 -16 13 -39 12 -53 -1 -14 2 -28 7 -31 5 -4 8 -12 5 -19 -4
-14 -78 91 -77 111 0 8 4 6 9 -6 9 -19 9 -19 16 3 8 28 11 28 28 -5z m1354
-18 c-3 -3 -9 2 -12 12 -6 14 -5 15 5 6 7 -7 10 -15 7 -18z m-1308 -42 c0 -25
-15 -12 -17 14 -1 19 1 22 8 12 5 -8 9 -20 9 -26z m236 -10 c-10 -10 -19 5
-10 18 6 11 8 11 12 0 2 -7 1 -15 -2 -18z m19 -23 c3 -5 -1 -10 -9 -10 -9 0
-16 5 -16 10 0 6 4 10 9 10 6 0 13 -4 16 -10z m69 -26 c9 -23 7 -34 -4 -34 -5
0 -6 7 -3 17 4 11 3 14 -5 9 -7 -4 -12 -1 -12 8 0 21 16 21 24 0z m58 -17 c-5
-18 -7 -19 -10 -4 -2 9 -8 17 -13 17 -6 0 -8 4 -4 10 11 18 33 -1 27 -23z
m-372 3 c0 -5 -4 -10 -10 -10 -5 0 -10 5 -10 10 0 6 5 10 10 10 6 0 10 -4 10
-10z m343 -43 c-2 -4 1 -14 7 -22 9 -11 9 -15 1 -15 -6 0 -15 8 -18 18 -4 9
-11 20 -17 24 -6 4 -1 6 11 5 12 0 19 -5 16 -10z m1204 -19 c-3 -8 -6 -5 -6 6
-1 11 2 17 5 13 3 -3 4 -12 1 -19z m-1467 -18 c0 -5 -2 -10 -4 -10 -3 0 -8 5
-11 10 -3 6 -1 10 4 10 6 0 11 -4 11 -10z m160 -4 c0 -3 -4 -8 -10 -11 -5 -3
-10 -1 -10 4 0 6 5 11 10 11 6 0 10 -2 10 -4z m22 -91 c-4 -5 -8 -2 -10 8 -2
9 -8 15 -13 12 -10 -7 -12 8 -2 18 9 10 32 -26 25 -38z m527 -23 c-4 -2 -5
-11 -1 -20 5 -16 5 -16 -11 0 -9 9 -17 27 -17 39 0 22 0 22 19 3 10 -10 15
-20 10 -22z m1421 28 c0 -5 -4 -10 -10 -10 -5 0 -10 5 -10 10 0 6 5 10 10 10
6 0 10 -4 10 -10z m-2170 -20 c12 -8 11 -10 -7 -10 -12 0 -25 5 -28 10 -8 13
15 13 35 0z m1045 -71 c11 -17 -1 -21 -15 -4 -8 9 -8 15 -2 15 6 0 14 -5 17
-11z m1155 -33 c0 -3 -4 -8 -10 -11 -5 -3 -10 -1 -10 4 0 6 5 11 10 11 6 0 10
-2 10 -4z m-1403 -38 c-3 -8 -6 -5 -6 6 -1 11 2 17 5 13 3 -3 4 -12 1 -19z
m33 -44 c0 -8 -4 -12 -10 -9 -5 3 -10 10 -10 16 0 5 5 9 10 9 6 0 10 -7 10
-16z m1314 -65 c-3 -5 -10 -7 -15 -3 -5 3 -7 10 -3 15 3 5 10 7 15 3 5 -3 7
-10 3 -15z m-2104 -115 c0 -2 -7 -4 -15 -4 -8 0 -15 4 -15 10 0 5 7 7 15 4 8
-4 15 -8 15 -10z"/>
<path d="M3865 6869 c-4 -6 -4 -13 -1 -16 3 -4 -6 -15 -21 -25 -16 -10 -23
-18 -17 -18 5 0 16 6 22 12 10 10 15 10 23 -2 8 -11 9 -7 6 17 -2 18 1 35 7
37 7 3 7 5 -1 5 -6 1 -15 -4 -18 -10z"/>
<path d="M3810 6840 c-13 -8 -13 -10 2 -10 9 0 20 5 23 10 8 13 -5 13 -25 0z"/>
<path d="M3708 6803 c7 -3 16 -2 19 1 4 3 -2 6 -13 5 -11 0 -14 -3 -6 -6z"/>
<path d="M3957 6785 c-4 -8 -2 -17 2 -20 5 -2 11 4 14 15 6 23 -8 27 -16 5z"/>
<path d="M3805 6780 c3 -5 8 -10 11 -10 2 0 4 5 4 10 0 6 -5 10 -11 10 -5 0
-7 -4 -4 -10z"/>
<path d="M3886 6757 c3 -10 9 -15 12 -12 3 3 0 11 -7 18 -10 9 -11 8 -5 -6z"/>
<path d="M3996 6681 c-3 -5 1 -11 9 -14 9 -4 12 -1 8 9 -6 16 -10 17 -17 5z"/>
<path d="M3751 6664 c0 -11 3 -14 6 -6 3 7 2 16 -1 19 -3 4 -6 -2 -5 -13z"/>
<path d="M3912 6655 c0 -11 3 -33 7 -50 l7 -30 5 33 c3 17 2 32 -2 32 -4 0
-10 8 -12 18 -4 14 -5 13 -5 -3z"/>
<path d="M3825 6618 c6 -15 1 -18 -34 -18 -30 0 -41 -4 -41 -15 0 -8 5 -15 11
-15 5 0 7 5 4 10 -4 6 8 10 29 10 38 0 55 15 37 33 -9 9 -11 8 -6 -5z"/>
<path d="M3861 6524 c0 -11 3 -14 6 -6 3 7 2 16 -1 19 -3 4 -6 -2 -5 -13z"/>
<path d="M3784 6464 c3 -9 6 -18 6 -20 0 -2 5 -4 11 -4 8 0 9 4 0 13 -6 8 -8
17 -4 20 3 4 1 7 -6 7 -8 0 -11 -6 -7 -16z"/>
<path d="M3761 6420 c14 -31 19 -36 19 -24 0 6 -7 19 -16 30 -14 18 -14 18 -3
-6z"/>
<path d="M3800 6419 c0 -5 5 -7 10 -4 6 3 10 8 10 11 0 2 -4 4 -10 4 -5 0 -10
-5 -10 -11z"/>
<path d="M3860 6419 c0 -5 5 -7 10 -4 6 3 10 8 10 11 0 2 -4 4 -10 4 -5 0 -10
-5 -10 -11z"/>
<path d="M4785 6970 l-40 -7 43 -2 c23 0 42 4 42 9 0 6 -1 9 -2 9 -2 -1 -21
-5 -43 -9z"/>
<path d="M4767 6733 c-4 -3 -7 -18 -6 -32 1 -26 1 -25 10 3 9 31 7 41 -4 29z"/>
<path d="M4691 6710 c-13 -11 -19 -20 -14 -20 6 0 18 9 28 20 23 25 17 25 -14
0z"/>
<path d="M4727 6703 c-3 -5 -1 -17 4 -28 7 -17 8 -17 8 8 1 27 -4 34 -12 20z"/>
<path d="M4801 6674 c0 -11 3 -14 6 -6 3 7 2 16 -1 19 -3 4 -6 -2 -5 -13z"/>
<path d="M4970 6578 c0 -12 3 -18 7 -14 11 10 12 36 2 36 -5 0 -9 -10 -9 -22z"/>
<path d="M4895 5790 c3 -5 8 -10 11 -10 2 0 4 5 4 10 0 6 -5 10 -11 10 -5 0
-7 -4 -4 -10z"/>
<path d="M3140 6103 c0 -5 11 -30 25 -58 13 -27 25 -60 25 -72 0 -13 5 -23 10
-23 12 0 12 2 0 34 -7 19 -6 26 2 26 7 0 4 6 -5 13 -9 6 -23 29 -32 50 -14 34
-25 47 -25 30z"/>
<path d="M3055 6081 c4 -13 8 -31 9 -39 2 -9 9 -18 17 -20 8 -2 10 0 4 5 -5 4
-11 19 -13 33 -1 13 -7 29 -13 35 -8 7 -9 3 -4 -14z"/>
<path d="M3150 6019 c0 -6 -6 -9 -13 -6 -8 3 -14 -1 -14 -8 0 -7 8 -10 19 -7
15 4 27 32 13 32 -3 0 -5 -5 -5 -11z"/>
<path d="M3080 6003 c0 -4 5 -15 10 -23 8 -13 10 -13 10 2 0 9 -4 20 -10 23
-5 3 -10 3 -10 -2z"/>
<path d="M2960 5980 c0 -5 4 -10 9 -10 6 0 13 5 16 10 3 6 -1 10 -9 10 -9 0
-16 -4 -16 -10z"/>
<path d="M2941 5943 c42 -70 64 -98 79 -101 8 -2 12 0 8 4 -4 4 -3 13 4 21 8
11 7 12 -5 8 -8 -4 -18 -2 -22 4 -3 6 1 11 9 11 8 0 17 4 21 9 7 12 -15 61
-28 61 -5 0 -2 -12 8 -26 9 -14 14 -29 10 -32 -3 -4 -10 0 -15 8 -8 13 -10 12
-10 -2 0 -10 -4 -18 -10 -18 -5 0 -10 4 -10 9 0 14 -44 80 -53 81 -5 0 2 -17
14 -37z"/>
<path d="M3051 5975 c0 -5 6 -19 14 -29 8 -11 15 -15 15 -10 0 6 -7 19 -15 30
-8 10 -14 15 -14 9z"/>
<path d="M3107 5960 c-3 -11 -1 -20 4 -20 5 0 9 6 9 14 0 8 6 17 13 19 7 4 6
6 -4 6 -9 1 -19 -8 -22 -19z"/>
<path d="M3211 5900 c12 -22 25 -38 28 -35 2 3 -1 11 -7 17 -7 7 -12 22 -12
35 0 14 -6 23 -16 23 -13 0 -12 -7 7 -40z"/>
<path d="M3125 5900 c3 -14 7 -35 9 -46 3 -19 52 -94 62 -94 3 0 -15 40 -60
130 -12 24 -16 27 -11 10z"/>
<path d="M3162 5898 c3 -7 13 -15 24 -17 16 -3 17 -1 5 13 -16 19 -34 21 -29
4z"/>
<path d="M3190 5850 c9 -17 30 -20 30 -4 0 3 -4 2 -10 -1 -5 -3 -10 1 -10 9 0
9 -5 16 -10 16 -7 0 -7 -7 0 -20z"/>
<path d="M3111 5827 c-1 -10 -5 -15 -11 -12 -5 3 -10 4 -10 0 0 -3 11 -10 25
-15 14 -5 25 -14 25 -20 0 -6 -4 -8 -10 -5 -6 3 -7 -1 -4 -9 3 -9 10 -13 15
-10 11 7 12 44 1 44 -5 0 -14 10 -20 23 -9 18 -11 19 -11 4z"/>
<path d="M3030 5821 c0 -6 4 -13 10 -16 6 -3 7 1 4 9 -7 18 -14 21 -14 7z"/>
<path d="M3235 5770 c3 -5 8 -10 11 -10 2 0 4 5 4 10 0 6 -5 10 -11 10 -5 0
-7 -4 -4 -10z"/>
<path d="M3070 5760 c0 -5 7 -7 15 -4 8 4 15 8 15 10 0 2 -7 4 -15 4 -8 0 -15
-4 -15 -10z"/>
<path d="M3279 5743 c10 -19 9 -23 -3 -23 -8 0 -17 6 -19 13 -4 8 -6 7 -6 -3
-1 -17 17 -40 32 -40 4 0 5 5 1 12 -5 7 -2 9 8 5 20 -7 13 27 -10 45 -13 12
-14 10 -3 -9z"/>
<path d="M3206 5719 c17 -28 14 -48 -9 -52 -13 -3 -7 -5 16 -6 l37 -1 -13 32
c-7 17 -19 34 -26 36 -10 3 -11 0 -5 -9z"/>
<path d="M3122 5665 c6 -13 16 -21 21 -18 8 5 7 8 -1 11 -7 2 -12 10 -12 18 0
8 -4 14 -10 14 -6 0 -5 -10 2 -25z"/>
<path d="M3230 5639 c0 -5 5 -7 10 -4 6 3 10 8 10 11 0 2 -4 4 -10 4 -5 0 -10
-5 -10 -11z"/>
<path d="M3136 5622 c-3 -6 -1 -14 5 -17 15 -10 25 3 12 16 -7 7 -13 7 -17 1z"/>
<path d="M3190 5610 c-24 -8 -24 -8 5 -8 17 0 41 4 55 8 24 8 24 8 -5 8 -16 0
-41 -4 -55 -8z"/>
<path d="M3238 5593 c7 -3 16 -2 19 1 4 3 -2 6 -13 5 -11 0 -14 -3 -6 -6z"/>
<path d="M3195 5580 c-3 -5 -2 -10 4 -10 5 0 13 5 16 10 3 6 2 10 -4 10 -5 0
-13 -4 -16 -10z"/>
<path d="M3138 5523 c7 -3 16 -2 19 1 4 3 -2 6 -13 5 -11 0 -14 -3 -6 -6z"/>
<path d="M4160 5856 c0 -8 5 -18 10 -21 6 -3 10 1 10 9 0 8 -4 18 -10 21 -5 3
-10 -1 -10 -9z"/>
<path d="M3957 5823 c8 -52 20 -73 38 -67 11 5 17 -3 21 -24 5 -24 9 -28 19
-19 9 9 9 14 -2 25 -11 11 -11 17 -2 29 10 11 10 13 -1 11 -8 -2 -18 12 -24
34 -6 20 -14 40 -19 44 -4 4 -1 -14 7 -39 11 -38 12 -47 1 -47 -11 0 -21 29
-27 78 -1 6 -5 12 -9 12 -4 0 -5 -17 -2 -37z"/>
<path d="M4063 5785 c0 -22 2 -30 4 -17 2 12 2 30 0 40 -3 9 -5 -1 -4 -23z"/>
<path d="M3985 5730 c-3 -5 -1 -10 4 -10 6 0 11 5 11 10 0 6 -2 10 -4 10 -3 0
-8 -4 -11 -10z"/>
<path d="M2185 5060 c-3 -5 -1 -10 4 -10 6 0 11 5 11 10 0 6 -2 10 -4 10 -3 0
-8 -4 -11 -10z"/>
<path d="M2596 4374 c-23 -23 -20 -30 4 -9 11 10 20 20 20 22 0 7 -9 2 -24
-13z"/>
<path d="M3240 5370 c-8 -5 -10 -10 -5 -10 6 0 17 5 25 10 8 5 11 10 5 10 -5
0 -17 -5 -25 -10z"/>
<path d="M3550 5241 c0 -5 5 -13 10 -16 6 -3 10 -2 10 4 0 5 -4 13 -10 16 -5
3 -10 2 -10 -4z"/>
<path d="M3554 5199 c-4 -7 -3 -9 4 -5 5 3 13 0 15 -6 4 -9 6 -10 6 -1 1 17
-16 25 -25 12z"/>
<path d="M3566 5154 c-11 -7 -16 -17 -11 -21 4 -5 10 -2 13 6 3 10 10 8 24
-10 15 -18 17 -19 10 -4 -5 11 -11 25 -13 32 -3 8 -9 8 -23 -3z"/>
<path d="M3570 5099 c0 -5 5 -7 10 -4 6 3 10 8 10 11 0 2 -4 4 -10 4 -5 0 -10
-5 -10 -11z"/>
<path d="M3440 5060 c6 -11 8 -25 5 -30 -3 -6 1 -10 10 -10 14 0 14 3 0 30 -9
17 -18 30 -21 30 -2 0 0 -9 6 -20z"/>
<path d="M3640 5039 c0 -5 5 -7 10 -4 6 3 10 8 10 11 0 2 -4 4 -10 4 -5 0 -10
-5 -10 -11z"/>
<path d="M3490 5020 c0 -5 5 -10 10 -10 6 0 10 5 10 10 0 6 -4 10 -10 10 -5 0
-10 -4 -10 -10z"/>
<path d="M3375 5010 c-3 -5 1 -10 10 -10 9 0 13 5 10 10 -3 6 -8 10 -10 10 -2
0 -7 -4 -10 -10z"/>
<path d="M3400 4966 c0 -9 5 -16 10 -16 6 0 10 4 10 9 0 6 -4 13 -10 16 -5 3
-10 -1 -10 -9z"/>
<path d="M4020 4750 c6 -11 13 -20 16 -20 2 0 0 9 -6 20 -6 11 -13 20 -16 20
-2 0 0 -9 6 -20z"/>
<path d="M4050 4691 c0 -6 4 -13 10 -16 6 -3 7 1 4 9 -7 18 -14 21 -14 7z"/>
<path d="M3560 4116 c0 -3 9 -10 20 -16 11 -6 20 -8 20 -6 0 3 -9 10 -20 16
-11 6 -20 8 -20 6z"/>
<path d="M5135 4109 c-4 -6 -5 -12 -2 -15 2 -3 7 2 10 11 7 17 1 20 -8 4z"/>
<path d="M3546 4085 c19 -29 20 -30 27 -11 3 8 -5 18 -19 25 -24 11 -24 10 -8
-14z"/>
<path d="M3490 4042 c0 -6 9 -16 20 -22 11 -6 20 -15 20 -21 0 -6 -4 -7 -10
-4 -6 4 -7 -1 -3 -11 5 -12 3 -15 -6 -9 -10 6 -11 3 -1 -15 23 -43 2 -30 -25
15 -15 26 -29 44 -32 41 -3 -3 5 -19 17 -36 21 -30 22 -32 4 -45 -10 -7 -22
-11 -26 -9 -19 12 -16 -21 8 -68 23 -48 24 -51 5 -30 -25 26 -36 28 -27 7 10
-27 -9 -16 -27 16 -21 38 -29 34 -20 -11 5 -29 7 -31 14 -15 7 17 8 18 8 3 1
-10 6 -18 11 -18 6 0 10 -7 10 -15 0 -11 5 -12 25 -5 16 6 25 6 25 0 0 -6 7
-10 15 -10 8 0 15 -4 15 -9 0 -4 10 -19 23 -33 12 -14 28 -34 35 -44 7 -11 5
-3 -4 16 -9 19 -20 37 -24 40 -4 3 -15 21 -25 40 -17 34 -17 35 1 19 13 -11
27 -14 44 -8 14 4 19 7 12 8 -7 1 -10 6 -7 11 4 6 12 7 18 3 7 -3 3 3 -7 16
-11 12 -26 19 -33 17 -8 -4 -18 5 -23 20 -12 32 -12 37 0 29 6 -4 7 1 4 12 -5
17 -5 17 9 1 8 -10 18 -14 22 -10 5 4 6 0 3 -8 -4 -11 1 -16 14 -17 25 -2 37
-14 21 -20 -22 -8 -14 -21 11 -19 21 1 22 3 10 22 -8 11 -15 34 -16 50 -1 16
-6 35 -12 43 -6 7 -11 21 -11 29 0 8 -7 18 -15 20 -13 5 -13 3 0 -14 8 -10 -5
-1 -28 21 -23 21 -42 34 -42 27z m88 -85 c6 -5 12 -13 12 -18 0 -5 -11 -2 -25
7 -17 11 -25 12 -25 5 0 -7 -4 -9 -10 -6 -5 3 -10 10 -10 14 0 10 41 8 58 -2z
m-68 -38 c0 -6 -5 -7 -12 -3 -8 5 -9 1 -4 -12 5 -14 4 -16 -4 -8 -12 12 -3 47
11 38 5 -3 9 -10 9 -15z m-10 -66 c0 -20 -16 -8 -23 17 -4 17 -3 19 9 9 8 -6
14 -18 14 -26z"/>
<path d="M3580 4016 c0 -2 8 -10 18 -17 15 -13 16 -12 3 4 -13 16 -21 21 -21
13z"/>
<path d="M3430 4001 c0 -6 4 -13 10 -16 6 -3 7 1 4 9 -7 18 -14 21 -14 7z"/>
<path d="M3631 3987 c9 -7 14 -17 12 -23 -2 -6 8 -19 22 -28 26 -17 26 -17 14
6 -16 32 -40 58 -53 58 -6 0 -4 -6 5 -13z"/>
<path d="M4528 3933 c7 -3 16 -2 19 1 4 3 -2 6 -13 5 -11 0 -14 -3 -6 -6z"/>
<path d="M4491 3894 c-11 -15 -21 -32 -21 -39 0 -7 -7 -18 -15 -25 -25 -21
-17 -32 10 -14 14 9 25 26 25 37 0 11 7 29 17 39 9 10 14 21 11 24 -3 3 -15
-7 -27 -22z"/>
<path d="M3675 3890 c3 -5 10 -10 16 -10 5 0 9 5 9 10 0 6 -7 10 -16 10 -8 0
-12 -4 -9 -10z"/>
<path d="M3421 3874 c0 -11 3 -14 6 -6 3 7 2 16 -1 19 -3 4 -6 -2 -5 -13z"/>
<path d="M3645 3800 c-3 -6 1 -7 9 -4 18 7 21 14 7 14 -6 0 -13 -4 -16 -10z"/>
<path d="M3380 3769 c0 -17 3 -18 21 -9 22 12 19 22 -6 26 -9 1 -15 -6 -15
-17z"/>
<path d="M3555 3780 c3 -5 11 -10 16 -10 6 0 7 5 4 10 -3 6 -11 10 -16 10 -6
0 -7 -4 -4 -10z"/>
<path d="M3665 3780 c-3 -5 -2 -10 4 -10 5 0 13 5 16 10 3 6 2 10 -4 10 -5 0
-13 -4 -16 -10z"/>
<path d="M3350 3755 c1 -26 2 -28 11 -12 8 14 8 22 0 30 -8 8 -11 3 -11 -18z"/>
<path d="M4401 3754 c0 -11 3 -14 6 -6 3 7 2 16 -1 19 -3 4 -6 -2 -5 -13z"/>
<path d="M3584 3730 c1 -30 10 -38 21 -20 3 5 0 19 -8 30 -14 19 -14 19 -13
-10z"/>
<path d="M4360 3741 c0 -5 -3 -17 -6 -25 -5 -12 -2 -15 10 -10 17 7 22 44 6
44 -5 0 -10 -4 -10 -9z"/>
<path d="M3372 3720 c1 -14 -1 -31 -5 -37 -6 -9 -3 -11 8 -7 9 4 15 3 13 -2
-3 -12 25 -54 36 -54 4 0 4 6 -2 13 -6 7 -20 35 -31 62 -13 31 -20 41 -19 25z"/>
<path d="M3304 3692 c0 -10 -6 -17 -16 -16 -10 1 -18 -8 -21 -23 -3 -19 -1
-22 14 -18 11 4 21 -1 27 -11 6 -10 14 -14 22 -9 10 6 9 10 -4 17 -13 7 -16
17 -11 38 3 15 2 31 -3 34 -5 3 -9 -2 -8 -12z"/>
<path d="M3440 3699 c0 -5 5 -7 10 -4 6 3 10 8 10 11 0 2 -4 4 -10 4 -5 0 -10
-5 -10 -11z"/>
<path d="M4620 3698 c0 -9 5 -20 10 -23 13 -8 13 5 0 25 -8 13 -10 13 -10 -2z"/>
<path d="M4290 3655 c-19 -20 -40 -33 -46 -31 -7 3 -14 -7 -17 -22 -7 -34 -3
-37 16 -17 9 8 20 15 26 15 11 0 65 79 59 86 -3 2 -20 -12 -38 -31z"/>
<path d="M3450 3676 c0 -2 6 -9 13 -15 10 -8 14 -7 14 4 0 8 -6 15 -14 15 -7
0 -13 -2 -13 -4z"/>
<path d="M3447 3630 c3 -11 9 -17 15 -14 5 3 4 12 -3 20 -16 19 -18 18 -12 -6z"/>
<path d="M3331 3586 c-7 -8 -9 -25 -5 -41 6 -24 8 -25 16 -11 6 11 6 22 -2 31
-8 10 -8 14 2 18 7 2 10 7 7 11 -3 4 -11 0 -18 -8z"/>
<path d="M3890 3580 c0 -5 5 -10 11 -10 5 0 7 5 4 10 -3 6 -8 10 -11 10 -2 0
-4 -4 -4 -10z"/>
<path d="M3973 3561 c1 -12 6 -17 16 -13 10 4 11 7 3 10 -7 2 -10 8 -6 13 3 5
1 9 -5 9 -5 0 -9 -9 -8 -19z"/>
<path d="M4517 3573 c-12 -12 -7 -40 9 -54 13 -11 14 -9 9 14 -5 18 -3 27 5
27 6 0 14 -9 17 -20 3 -11 11 -20 18 -20 11 0 10 6 -1 30 -14 28 -42 39 -57
23z"/>
<path d="M3477 3523 c-4 -3 -7 -11 -7 -17 0 -6 5 -5 12 2 6 6 9 14 7 17 -3 3
-9 2 -12 -2z"/>
<path d="M3350 3505 c-7 -9 -11 -17 -9 -20 3 -2 10 5 17 15 14 24 10 26 -8 5z"/>
<path d="M3387 3513 c-4 -3 -7 -11 -7 -17 0 -6 5 -5 12 2 6 6 9 14 7 17 -3 3
-9 2 -12 -2z"/>
<path d="M3173 3488 c-20 -26 -26 -41 -15 -34 7 4 12 0 12 -10 0 -16 1 -16 20
1 11 10 20 25 19 34 0 14 -1 14 -7 1 -7 -16 -32 -25 -32 -12 0 4 5 13 12 20 7
7 9 12 6 12 -3 0 -10 -6 -15 -12z"/>
<path d="M3257 3483 c-4 -3 -7 -11 -7 -17 0 -6 5 -5 12 2 6 6 9 14 7 17 -3 3
-9 2 -12 -2z"/>
<path d="M3220 3459 c0 -5 4 -9 9 -9 5 0 11 -6 13 -14 2 -11 6 -11 14 -2 8 9
5 15 -13 23 -12 6 -23 7 -23 2z"/>
<path d="M3383 3463 c-15 -5 -17 -23 -4 -23 5 0 11 7 15 15 3 8 4 15 3 14 -1
0 -8 -3 -14 -6z"/>
<path d="M3560 3449 c0 -5 5 -7 10 -4 6 3 10 8 10 11 0 2 -4 4 -10 4 -5 0 -10
-5 -10 -11z"/>
<path d="M3899 3433 c-13 -16 -12 -17 4 -4 16 13 21 21 13 21 -2 0 -10 -8 -17
-17z"/>
<path d="M3214 3432 c4 -7 2 -12 -4 -12 -6 0 -8 -4 -5 -10 3 -5 10 -10 16 -10
13 0 11 27 -3 36 -7 4 -8 3 -4 -4z"/>
<path d="M3325 3430 c-3 -5 -1 -10 4 -10 6 0 11 5 11 10 0 6 -2 10 -4 10 -3 0
-8 -4 -11 -10z"/>
<path d="M3690 3430 c-8 -5 -12 -12 -9 -15 8 -8 39 5 39 16 0 11 -11 11 -30
-1z"/>
<path d="M3414 3408 l-19 -23 23 19 c21 18 27 26 19 26 -2 0 -12 -10 -23 -22z"/>
<path d="M3735 3410 c-3 -6 1 -7 9 -4 18 7 21 14 7 14 -6 0 -13 -4 -16 -10z"/>
<path d="M3865 3390 c-3 -6 1 -7 9 -4 18 7 21 14 7 14 -6 0 -13 -4 -16 -10z"/>
<path d="M3800 3381 c0 -6 4 -13 10 -16 6 -3 7 1 4 9 -7 18 -14 21 -14 7z"/>
<path d="M3565 3360 c-3 -6 1 -7 9 -4 18 7 21 14 7 14 -6 0 -13 -4 -16 -10z"/>
<path d="M4502 3332 c8 -21 16 -28 22 -22 7 7 3 18 -12 32 l-22 22 12 -32z"/>
<path d="M3770 3341 c0 -6 4 -13 10 -16 6 -3 7 1 4 9 -7 18 -14 21 -14 7z"/>
<path d="M3310 3315 c0 -8 5 -15 10 -15 6 0 10 7 10 15 0 8 -4 15 -10 15 -5 0
-10 -7 -10 -15z"/>
<path d="M4101 3299 c-1 -9 7 -23 17 -30 15 -12 16 -12 6 1 -6 8 -14 22 -17
30 -5 13 -6 12 -6 -1z"/>
<path d="M4060 3271 c13 -10 13 -12 0 -21 -13 -8 -13 -10 1 -10 9 0 22 7 29
15 8 9 8 15 2 15 -6 0 -19 3 -29 6 -15 5 -16 4 -3 -5z"/>
<path d="M4090 3239 c0 -5 5 -7 10 -4 6 3 10 8 10 11 0 2 -4 4 -10 4 -5 0 -10
-5 -10 -11z"/>
<path d="M3960 3228 c0 -5 1 -9 2 -10 1 -2 -4 -12 -10 -24 -10 -20 -9 -21 23
-18 22 1 33 -1 29 -8 -4 -5 5 -2 20 7 30 20 34 27 9 18 -11 -4 -14 -3 -9 5 4
7 1 12 -8 12 -8 0 -13 6 -11 13 3 7 -4 12 -20 12 -14 0 -25 -3 -25 -7z"/>
<path d="M4105 3219 c-4 -6 -5 -12 -2 -15 2 -3 7 2 10 11 7 17 1 20 -8 4z"/>
<path d="M4136 3212 c-2 -4 4 -8 14 -8 10 0 16 4 14 8 -3 4 -9 8 -14 8 -5 0
-11 -4 -14 -8z"/>
<path d="M3900 3183 c0 -4 5 -15 10 -23 8 -13 10 -13 10 2 0 9 -4 20 -10 23
-5 3 -10 3 -10 -2z"/>
<path d="M3823 3161 c1 -11 5 -21 10 -21 4 0 5 -4 2 -10 -3 -5 -1 -10 5 -10 7
0 9 8 5 23 -10 32 -24 44 -22 18z"/>
<path d="M4045 3170 c-3 -6 1 -7 9 -4 18 7 21 14 7 14 -6 0 -13 -4 -16 -10z"/>
<path d="M4280 3171 c0 -5 7 -12 16 -15 14 -5 15 -4 4 9 -14 17 -20 19 -20 6z"/>
<path d="M3955 3159 c-4 -5 0 -18 9 -28 18 -19 10 -37 -9 -21 -8 7 -19 2 -35
-15 -26 -28 -62 -37 -40 -10 11 13 10 14 -4 9 -9 -3 -16 -1 -16 5 0 6 5 11 10
11 6 0 10 5 10 12 0 6 -8 4 -20 -7 -19 -17 -19 -18 3 -55 21 -37 43 -46 30
-13 -5 12 -2 15 10 10 9 -3 19 -2 22 3 4 6 1 10 -6 10 -8 0 -8 4 1 15 9 11 16
12 25 5 6 -5 15 -7 18 -3 4 3 7 -1 7 -10 0 -9 -3 -17 -7 -17 -5 0 -24 -14 -43
-30 -19 -16 -30 -30 -25 -30 6 0 25 14 44 30 40 35 55 31 21 -5 -26 -27 -21
-35 5 -9 23 24 30 10 10 -20 -15 -23 -55 -40 -41 -18 3 5 -1 9 -8 9 -11 0 -12
-5 -3 -21 5 -12 13 -27 17 -35 11 -25 29 -24 40 3 5 14 14 26 19 26 6 0 7 7 4
17 -4 10 -2 14 5 9 6 -3 13 -2 17 4 4 6 11 8 16 4 6 -4 1 -16 -12 -30 -12 -13
-18 -24 -12 -24 6 0 16 7 23 15 21 25 23 9 4 -22 l-18 -28 24 20 c18 15 22 16
18 4 -4 -9 -1 -16 8 -16 19 0 26 24 9 31 -8 3 -12 12 -9 21 3 8 1 15 -5 15 -6
0 -10 3 -10 8 3 19 -2 33 -11 27 -5 -3 -10 -2 -10 4 0 5 10 12 23 14 l22 4
-23 8 c-17 6 -20 11 -12 20 12 14 -11 28 -32 20 -7 -3 -20 -1 -28 4 -12 9 -12
12 3 29 9 10 17 22 17 27 0 5 -7 0 -16 -11 -13 -15 -15 -16 -10 -2 3 12 1 15
-10 11 -10 -4 -12 0 -8 11 7 18 -1 22 -11 5z m39 -90 c-4 -8 1 -9 16 -4 20 6
21 5 9 -8 -10 -11 -18 -12 -26 -5 -16 13 -17 28 -2 28 5 0 7 -5 3 -11z m36
-53 c0 -2 -7 -7 -16 -10 -8 -3 -12 -2 -9 4 6 10 25 14 25 6z m-48 -59 c-5 -7
-12 -19 -14 -27 -5 -12 -7 -12 -13 3 -4 10 -2 24 5 32 14 17 36 9 22 -8z"/>
<path d="M4060 3150 c-9 -6 -10 -10 -3 -10 6 0 15 5 18 10 8 12 4 12 -15 0z"/>
<path d="M4207 3154 c-4 -4 -7 -12 -7 -17 0 -6 3 -7 7 -3 4 3 13 -4 21 -16 7
-13 11 -15 8 -5 -3 10 0 17 9 17 7 0 16 -8 18 -17 4 -14 5 -12 6 5 1 17 -4 22
-23 22 -13 0 -26 5 -28 11 -2 5 -7 7 -11 3z"/>
<path d="M4330 3153 c1 -14 30 -48 30 -34 0 7 -7 19 -15 27 -8 9 -15 12 -15 7z"/>
<path d="M3790 3140 c0 -5 5 -10 11 -10 5 0 7 5 4 10 -3 6 -8 10 -11 10 -2 0
-4 -4 -4 -10z"/>
<path d="M4021 3143 c0 -6 -3 -18 -6 -25 -4 -10 4 -14 30 -15 30 -1 34 1 23
14 -8 10 -14 11 -16 4 -6 -19 -20 -12 -25 12 -2 12 -5 17 -6 10z"/>
<path d="M3769 3073 c-13 -16 -12 -17 4 -4 16 13 21 21 13 21 -2 0 -10 -8 -17
-17z"/>
<path d="M4376 3063 c-6 -14 -5 -15 5 -6 7 7 10 15 7 18 -3 3 -9 -2 -12 -12z"/>
<path d="M3725 2930 c3 -5 8 -10 11 -10 2 0 4 5 4 10 0 6 -5 10 -11 10 -5 0
-7 -4 -4 -10z"/>
<path d="M3850 2931 c0 -10 19 -25 25 -20 1 2 -3 10 -11 17 -8 7 -14 8 -14 3z"/>
<path d="M4240 2914 c0 -8 5 -12 10 -9 6 4 8 11 5 16 -9 14 -15 11 -15 -7z"/>
<path d="M3974 2899 c-3 -6 -1 -16 5 -22 8 -8 15 -7 26 6 8 9 10 12 3 7 -18
-15 -31 -12 -24 5 6 17 0 20 -10 4z"/>
<path d="M3780 2850 c0 -5 5 -10 11 -10 5 0 7 5 4 10 -3 6 -8 10 -11 10 -2 0
-4 -4 -4 -10z"/>
<path d="M3951 2853 c0 -4 4 -17 8 -27 6 -15 9 -16 13 -5 3 8 -1 20 -8 27 -8
7 -14 9 -13 5z"/>
<path d="M3981 2794 c0 -11 3 -14 6 -6 3 7 2 16 -1 19 -3 4 -6 -2 -5 -13z"/>
<path d="M4200 2801 c0 -6 5 -13 10 -16 6 -3 10 1 10 9 0 9 -4 16 -10 16 -5 0
-10 -4 -10 -9z"/>
<path d="M3960 2592 c0 -12 19 -26 26 -19 2 2 -2 10 -11 17 -9 8 -15 8 -15 2z"/>
<path d="M5753 4193 c-24 -16 -31 -43 -12 -43 6 0 9 7 6 14 -4 9 2 17 14 21
10 4 19 11 19 16 0 11 0 11 -27 -8z"/>
<path d="M5687 4126 c-4 -9 -2 -16 3 -16 16 0 11 -19 -10 -37 -26 -22 -26 -43
0 -36 11 3 17 10 13 16 -3 5 1 15 9 21 12 9 13 16 3 40 -9 22 -13 25 -18 12z"/>
<path d="M5640 4000 c0 -11 4 -20 8 -20 4 0 8 9 8 20 0 11 -4 20 -8 20 -4 0
-8 -9 -8 -20z"/>
<path d="M5023 3784 c-6 -25 -7 -42 -3 -37 9 9 25 83 18 83 -3 0 -9 -21 -15
-46z"/>
<path d="M5291 3744 c0 -11 3 -14 6 -6 3 7 2 16 -1 19 -3 4 -6 -2 -5 -13z"/>
<path d="M4951 3664 c0 -11 3 -14 6 -6 3 7 2 16 -1 19 -3 4 -6 -2 -5 -13z"/>
<path d="M5308 3630 c-7 -24 -3 -38 8 -28 3 4 4 17 2 30 l-3 23 -7 -25z"/>
<path d="M5032 3535 c0 -16 2 -22 5 -12 2 9 2 23 0 30 -3 6 -5 -1 -5 -18z"/>
<path d="M5540 3095 c0 -5 5 -17 10 -25 5 -8 10 -10 10 -5 0 6 -5 17 -10 25
-5 8 -10 11 -10 5z"/>
<path d="M5567 3056 c-4 -10 0 -14 13 -13 14 1 16 4 8 14 -13 16 -15 16 -21
-1z"/>
<path d="M5830 2355 c0 -8 2 -15 4 -15 2 0 6 7 10 15 3 8 1 15 -4 15 -6 0 -10
-7 -10 -15z"/>
<path d="M4490 2988 c0 -9 5 -20 10 -23 13 -8 13 5 0 25 -8 13 -10 13 -10 -2z"/>
<path d="M4470 2899 c0 -5 5 -7 10 -4 6 3 10 8 10 11 0 2 -4 4 -10 4 -5 0 -10
-5 -10 -11z"/>
<path d="M4437 2850 c10 -11 19 -20 21 -20 1 0 -2 9 -8 20 -6 11 -15 20 -20
20 -6 0 -2 -9 7 -20z"/>
<path d="M4530 2747 c0 -7 9 -13 20 -13 11 0 20 1 20 3 0 1 -9 7 -20 13 -15 8
-20 8 -20 -3z"/>
<path d="M4380 2739 c0 -5 5 -7 10 -4 6 3 10 8 10 11 0 2 -4 4 -10 4 -5 0 -10
-5 -10 -11z"/>
<path d="M4444 2714 c3 -9 6 -20 6 -25 0 -5 4 -9 9 -9 4 0 6 11 3 25 -2 14 -9
25 -14 25 -6 0 -7 -7 -4 -16z"/>
<path d="M4670 2721 c0 -5 5 -13 10 -16 6 -3 10 -2 10 4 0 5 -4 13 -10 16 -5
3 -10 2 -10 -4z"/>
<path d="M4397 2700 c3 -11 7 -20 9 -20 2 0 4 9 4 20 0 11 -4 20 -9 20 -5 0
-7 -9 -4 -20z"/>
<path d="M4541 2694 c0 -11 3 -14 6 -6 3 7 2 16 -1 19 -3 4 -6 -2 -5 -13z"/>
<path d="M4571 2700 c0 -8 4 -22 9 -30 12 -18 12 -2 0 25 -6 13 -9 15 -9 5z"/>
<path d="M4320 2671 c0 -5 7 -15 17 -22 15 -13 15 -12 4 9 -12 23 -21 28 -21
13z"/>
<path d="M4676 2634 c-5 -14 -4 -15 9 -4 17 14 19 20 6 20 -5 0 -12 -7 -15
-16z"/>
<path d="M4470 2592 c0 -6 11 -27 24 -47 14 -20 27 -41 30 -48 3 -9 7 -8 15 3
7 11 6 17 -4 23 -8 4 -15 14 -15 21 0 7 -11 23 -25 36 -14 13 -25 18 -25 12z"/>
<path d="M4317 2545 c3 -8 9 -12 14 -9 12 7 11 11 -5 17 -10 4 -13 1 -9 -8z"/>
<path d="M4410 2540 c0 -5 5 -10 10 -10 6 0 10 5 10 10 0 6 -4 10 -10 10 -5 0
-10 -4 -10 -10z"/>
<path d="M4354 2454 c-5 -18 -1 -31 11 -42 19 -18 19 -18 -2 36 -6 15 -5 16
12 2 17 -14 18 -14 6 8 -15 28 -19 28 -27 -4z"/>
<path d="M4451 2464 c0 -11 3 -14 6 -6 3 7 2 16 -1 19 -3 4 -6 -2 -5 -13z"/>
<path d="M4820 2420 c0 -8 5 -22 10 -30 9 -13 10 -13 10 0 0 8 -5 22 -10 30
-9 13 -10 13 -10 0z"/>
<path d="M4470 2371 c0 -5 5 -13 10 -16 6 -3 10 -2 10 4 0 5 -4 13 -10 16 -5
3 -10 2 -10 -4z"/>
<path d="M4500 2240 c6 -11 13 -20 16 -20 2 0 0 9 -6 20 -6 11 -13 20 -16 20
-2 0 0 -9 6 -20z"/>
<path d="M4894 2213 c-7 -2 -10 -12 -7 -23 7 -25 33 -35 33 -12 0 23 -13 40
-26 35z"/>
<path d="M5065 2190 c-3 -5 -1 -10 4 -10 6 0 11 5 11 10 0 6 -2 10 -4 10 -3 0
-8 -4 -11 -10z"/>
<path d="M4960 2123 c0 -4 5 -15 10 -23 8 -13 10 -13 10 2 0 9 -4 20 -10 23
-5 3 -10 3 -10 -2z"/>
<path d="M4233 2245 c-3 -9 -3 -18 -1 -21 3 -3 8 4 11 16 6 23 -1 27 -10 5z"/>
<path d="M4187 2223 c-4 -3 -7 -11 -7 -17 0 -6 5 -5 12 2 6 6 9 14 7 17 -3 3
-9 2 -12 -2z"/>
<path d="M4281 2206 c-9 -11 -9 -19 1 -35 7 -12 17 -21 22 -21 4 0 0 -12 -9
-27 -18 -27 -18 -28 1 -12 10 9 26 14 34 11 16 -5 -9 30 -39 55 -11 10 -12 15
-1 28 7 8 10 15 7 15 -2 0 -10 -6 -16 -14z"/>
<path d="M4200 2194 c0 -11 29 -34 34 -26 2 4 -4 13 -15 20 -10 7 -19 10 -19
6z"/>
<path d="M4215 2109 c-4 -6 -5 -12 -2 -15 2 -3 7 2 10 11 7 17 1 20 -8 4z"/>
<path d="M4300 2089 c0 -6 -7 -9 -15 -6 -8 4 -17 1 -21 -6 -4 -7 -3 -8 1 -4 5
4 15 -3 22 -15 8 -13 12 -16 10 -8 -2 8 2 23 11 33 10 11 11 17 4 17 -7 0 -12
-5 -12 -11z"/>
</g>
</svg>
