<?xml version="1.0" standalone="no"?>
<!DOCTYPE svg PUBLIC "-//W3C//DTD SVG 20010904//EN"
 "http://www.w3.org/TR/2001/REC-SVG-20010904/DTD/svg10.dtd">
<svg version="1.0" xmlns="http://www.w3.org/2000/svg"
 width="949.000000pt" height="949.000000pt" viewBox="0 0 949.000000 949.000000"
 preserveAspectRatio="xMidYMid meet">

<g transform="translate(0.000000,949.000000) scale(0.100000,-0.100000)"
fill="#000000" stroke="none">
<path d="M4380 9470 c-1443 -124 -2703 -845 -3525 -2016 -853 -1215 -1081
-2792 -610 -4209 182 -546 470 -1065 847 -1525 131 -161 467 -497 628 -628
630 -516 1372 -865 2145 -1007 1023 -188 2045 -49 2970 405 1427 701 2407
2074 2609 3655 55 429 46 930 -24 1365 -80 489 -245 987 -472 1420 -546 1041
-1453 1844 -2548 2253 -364 136 -730 223 -1150 273 -159 18 -710 27 -870 14z
m870 -264 c1006 -122 1902 -547 2619 -1242 791 -766 1263 -1775 1352 -2888 15
-190 6 -674 -16 -846 -91 -727 -330 -1381 -718 -1965 -1110 -1671 -3168 -2402
-5087 -1808 -975 301 -1848 962 -2415 1827 -564 859 -815 1894 -709 2919 194
1886 1554 3447 3398 3902 170 42 444 89 606 104 63 6 131 13 150 15 94 11 693
-3 820 -18z"/>
<path d="M4425 8819 c-1145 -94 -2179 -646 -2889 -1542 -497 -627 -792 -1371
-866 -2182 -13 -142 -13 -568 0 -710 75 -823 376 -1563 904 -2225 128 -160
426 -458 586 -586 666 -532 1410 -833 2238 -905 179 -15 677 -7 840 15 1052
140 1953 627 2629 1423 841 990 1156 2342 843 3619 -244 994 -862 1866 -1720
2429 -192 126 -299 187 -482 274 -417 200 -829 318 -1308 376 -160 19 -614 28
-775 14z m601 -189 c902 -72 1739 -448 2387 -1070 70 -67 127 -125 127 -129 0
-3 -95 -57 -210 -120 l-211 -113 -392 121 c-216 66 -403 121 -416 121 -33 0
-61 -28 -61 -61 0 -36 19 -54 77 -73 140 -45 796 -246 804 -246 7 0 425 223
501 267 10 5 182 -208 276 -342 92 -131 212 -328 278 -459 l49 -95 -21 -23
c-12 -13 -65 -92 -119 -175 -54 -84 -105 -155 -114 -157 -9 -3 -104 -19 -211
-36 -107 -18 -205 -38 -217 -46 -44 -28 -20 -114 31 -114 34 0 449 70 473 80
12 5 68 79 129 172 123 189 102 191 182 -22 125 -334 202 -683 233 -1055 16
-196 6 -607 -20 -800 -21 -157 -55 -335 -91 -476 -23 -91 -125 -406 -138 -426
-5 -9 -60 43 -167 159 -88 94 -172 186 -188 204 l-27 33 25 313 c34 435 34
426 6 449 -29 24 -53 24 -81 1 -21 -17 -23 -36 -51 -381 -15 -200 -30 -365
-31 -366 -2 -1 -136 -53 -298 -114 -289 -110 -330 -131 -330 -171 0 -28 34
-63 61 -62 14 0 156 50 316 111 159 61 292 111 295 111 3 0 86 -87 184 -192
99 -106 189 -204 202 -217 28 -28 29 -25 -65 -214 -129 -259 -300 -523 -485
-745 -101 -121 -292 -322 -307 -322 -5 0 -39 90 -76 200 -37 110 -74 209 -83
220 -13 16 -98 45 -322 111 -167 49 -315 89 -327 89 -28 0 -63 -33 -63 -59 0
-47 27 -60 318 -145 156 -46 287 -87 292 -92 5 -5 41 -103 80 -219 l71 -210
-48 -44 c-26 -24 -97 -82 -158 -129 -483 -376 -1061 -633 -1677 -746 -233 -43
-420 -59 -693 -59 -256 0 -382 9 -610 45 -1522 238 -2763 1363 -3155 2858
-215 821 -151 1716 180 2497 l51 121 184 -109 184 -109 300 0 c296 0 301 0
321 22 26 28 25 56 -2 85 -21 23 -22 23 -300 23 l-279 0 -172 101 c-95 56
-173 103 -175 104 -1 1 21 44 49 96 495 913 1344 1600 2329 1884 241 69 524
123 748 141 l82 7 0 -25 c0 -13 36 -129 80 -257 44 -128 80 -239 80 -246 0 -8
-52 -93 -116 -190 -95 -145 -115 -181 -112 -208 4 -42 44 -66 82 -49 31 14
286 395 286 427 0 11 -40 141 -89 288 l-89 267 157 0 c87 0 216 -5 287 -10z"/>
<path d="M2572 7844 c-15 -10 -22 -25 -22 -48 0 -40 1 -41 253 -245 97 -79
177 -150 177 -157 0 -7 -25 -134 -55 -281 -30 -147 -52 -275 -49 -285 3 -10
16 -26 30 -34 20 -14 29 -14 53 -4 16 6 32 19 36 28 3 10 31 136 60 281 30
145 59 267 64 271 6 3 93 19 193 34 101 16 193 34 205 42 52 33 32 114 -28
114 -17 0 -114 -13 -216 -30 -101 -16 -188 -30 -193 -30 -5 0 -98 73 -207 163
-267 220 -256 213 -301 181z"/>
<path d="M4480 7163 c-461 -47 -881 -213 -1255 -497 -103 -77 -287 -256 -383
-371 -295 -352 -495 -829 -543 -1294 -17 -166 -7 -494 21 -650 186 -1054 1004
-1846 2065 -1997 177 -25 487 -23 670 5 792 120 1460 603 1816 1312 346 690
337 1529 -23 2209 -51 97 -207 340 -217 340 -3 -1 -22 -23 -41 -50 -72 -102
-197 -169 -330 -177 -180 -12 -341 78 -424 236 -94 179 -64 380 77 526 31 32
57 60 57 61 0 14 -270 147 -401 197 -290 112 -553 158 -874 155 -99 0 -196 -3
-215 -5z m350 -933 c526 -47 991 -368 1214 -840 102 -217 139 -383 140 -630 0
-199 -14 -296 -71 -470 -73 -227 -181 -400 -362 -581 -221 -221 -451 -346
-754 -411 -137 -29 -417 -31 -552 -5 -313 62 -562 194 -786 417 -313 312 -468
734 -429 1165 65 724 620 1285 1340 1354 122 12 133 12 260 1z"/>
<path d="M4520 5387 c-227 -69 -395 -243 -455 -472 -20 -79 -21 -232 -1 -319
50 -212 228 -403 440 -472 66 -22 101 -27 191 -28 130 -1 190 12 303 66 62 29
104 58 160 113 140 134 204 279 206 470 1 125 -16 201 -66 303 -29 58 -33 62
-39 41 -40 -153 -222 -225 -350 -140 -120 81 -142 238 -48 344 21 24 53 50 70
58 l32 13 -54 19 c-40 15 -88 21 -184 23 -114 4 -139 1 -205 -19z"/>
<path d="M1452 4548 c-12 -6 -25 -23 -29 -37 -5 -21 67 -428 84 -476 2 -6 -65
-105 -148 -220 -83 -116 -156 -220 -161 -232 -24 -50 20 -103 74 -90 34 9 368
475 368 514 0 53 -97 515 -111 528 -21 20 -51 25 -77 13z"/>
<path d="M2637 2702 c-10 -10 -17 -28 -17 -38 0 -11 20 -121 45 -244 25 -123
45 -231 45 -239 0 -9 -68 -67 -151 -130 -83 -63 -156 -125 -162 -139 -17 -37
9 -76 54 -80 32 -3 53 11 215 135 145 112 180 143 182 165 5 38 -96 538 -114
566 -18 28 -73 30 -97 4z"/>
<path d="M4537 2092 c-10 -10 -17 -29 -17 -41 0 -13 78 -161 173 -329 94 -169
171 -312 171 -318 -1 -6 -47 -85 -103 -177 -57 -93 -101 -177 -101 -191 0 -47
55 -78 93 -53 30 20 257 391 257 421 0 18 -311 584 -376 684 -18 28 -73 30
-97 4z"/>
</g>
</svg>
