<svg xmlns="http://www.w3.org/2000/svg" width="200" height="200" viewBox="0 0 200 200">
  <circle cx="100" cy="100" r="90" fill="none" stroke="#FF1493" stroke-width="6"/>
  <circle cx="100" cy="100" r="70" fill="none" stroke="#FF69B4" stroke-width="4"/>
  <!-- Brain outline -->
  <path d="M 70 80 Q 80 60 100 70 Q 120 60 130 80 Q 130 100 120 110 Q 110 120 100 116 Q 90 120 80 110 Q 70 100 70 80" fill="none" stroke="#00FFFF" stroke-width="4"/>
  <!-- Neural pathways -->
  <path d="M 80 84 L 90 76 L 100 84 L 110 76 L 120 84" fill="none" stroke="#00FFFF" stroke-width="2"/>
  <path d="M 80 96 L 90 104 L 100 96 L 110 104 L 120 96" fill="none" stroke="#00FFFF" stroke-width="2"/>
  <!-- Psi symbol (trident) -->
  <path d="M 100 50 L 100 70" stroke="#FFD700" stroke-width="4"/>
  <path d="M 92 58 L 100 50 L 108 58" fill="none" stroke="#FFD700" stroke-width="4"/>
  <!-- Energy waves -->
  <path d="M 50 90 Q 60 80 70 90 Q 60 100 50 90" fill="none" stroke="#FF1493" stroke-width="2"/>
  <path d="M 130 90 Q 140 80 150 90 Q 140 100 130 90" fill="none" stroke="#FF1493" stroke-width="2"/>
  <path d="M 90 150 Q 100 140 110 150 Q 100 160 90 150" fill="none" stroke="#FF1493" stroke-width="2"/>
</svg>