<svg xmlns="http://www.w3.org/2000/svg" width="200" height="200" viewBox="0 0 200 200">
  <circle cx="100" cy="100" r="90" fill="none" stroke="#9370DB" stroke-width="6"/>
  <circle cx="100" cy="100" r="70" fill="none" stroke="#DDA0DD" stroke-width="4"/>
  <!-- Pentagram -->
  <path d="M 100 50 L 124 120 L 50 84 L 150 84 L 76 120 Z" fill="none" stroke="#FFD700" stroke-width="4"/>
  <!-- Moon crescent -->
  <path d="M 60 60 Q 70 50 80 60 Q 70 80 60 60" fill="#C0C0C0"/>
  <!-- Stars -->
  <path d="M 140 50 L 144 60 L 154 60 L 146 66 L 150 76 L 140 70 L 130 76 L 134 66 L 126 60 L 136 60 Z" fill="#FFD700"/>
  <circle cx="50" cy="140" r="3" fill="#FFD700"/>
  <circle cx="150" cy="140" r="3" fill="#FFD700"/>
  <!-- Mystic swirls -->
  <path d="M 40 100 Q 50 90 60 100 Q 50 110 40 100" fill="none" stroke="#9370DB" stroke-width="2"/>
  <path d="M 140 100 Q 150 90 160 100 Q 150 110 140 100" fill="none" stroke="#9370DB" stroke-width="2"/>
</svg>