<svg xmlns="http://www.w3.org/2000/svg" width="150" viewBox="0 0 400 120" stroke-linejoin="round"><path d="M45 24l-2 1h-3l-1 1-3 1c-3 1-2 1 4 2l5 1 4 1 3 1 4 2 1 1 1 1 2 1 3 2 1 1 2 1 2 1 2 1 1 2 2 1 1 1 2 1 1 1 2 1 1-2 3-5 1 2 1 1 1 1v3c0 7 0 9 2 12l1 3 1 2 1 2 3 3 1 1 3 2 2 1 5 1c6 0 8-1 7-2l-1-2-1-1-1-4 1-1c0-2 1-2 3-3h1l1 1 2 1 1 1 2 3 1 2 1 2 1 3 2 2 1 3 1 2 1 1 1 2 2 2 3 4 1 1 1 1 1 1 2 1 2 2h1l1 1v-2l-1-1-2-3-1-1-1-2-2-3-1-2-1-3-1-4-1-6 1-3 1-2c1-1 3-2 5-1l1 1 2 2 1 2 1 1 1 2 1 2 1 2 1 1 2 4 1 1 3 4 2 1 1 1h6c1-1 1-2-1-3l-1-5c0-2 0-3 3-4l1-1 3-1h6c3 0 3 0 5 2h5v1c0 2 2 2 6 1l2-1c0-2-1-2-3-1h-2l-2-1-2-1-3-2 1-3v-2c-1-1-5-1-8 1l-4 1-3 1-5 1c-2 0-3 0-3-2l-1-1v-1l1-1 2-3c2-3 1-3-2-6l-2-1-2-1c-3-1-5 0-4 1 2 1 2 6 0 7-1 2-3 1-4-1l-1-1-1-3-1-2-1-2-1-2-1-2-1-2a45 45 0 00-5-9l-1-1-2-2h-4c-2 0-2 1-1 1l3 3 2 3 1 4v12l-1 5-1 1c-1 3-2 3-4 3l-4-6v-3l-2-7-3-5-2-1h-2l1 1 1 5c0 2-1 4-3 5l-2 1-1 1h-2c-5 1-9 0-10-1l-2-1-1-1-1-1-2-2-1-2c-1-2-2-7 0-9l1-1c1-2 3-2 6-3l3-1-4-4-2-1-4-2h-1l-3-2-3-1-4-1-3-1-7-2-4-1-3-1H45m300 0l-4 1-5 1-5 2-5 1-3 1-4 1-2 1-2 2-3 1-1 1-2 1-2 2c-1 1 0 2 2 2l4 1 2 1c2 2 2 11 0 12l-1 1-4 4-1 1-4 1c-4 1-8 0-9-1l-2-1-2-2-1-1v-5l1-1 1-1-1-1h-2l-2 2-1 2-1 3-1 4-1 5-1 2c0 2 0 2-3 4h-2l-1-1-2-5V49l2-6 1-1 2-2c1 0 2 0 1-1h-5l-2 1-4 5-1 1v1l-2 3-1 4-1 3-1 2-2 3-1 2c-1 2-3 4-4 3-3-2-3-5-1-7l1-1c0-2-5-2-7 0l-2 1-1 2-1 1v2l1 1 1 1 1 1v2c0 2 0 3-2 4l-4-1-4-1-5-1c-3-2-7-2-8-1l-1 1c1 3 0 6-1 6l-2 1-3 1c-3 0-4 1-3 2 2 1 6 1 8-1l2-1 2-1c2-2 11-2 13 0l2 1 2 2v1l1 2v1l-1 1v1l-3 2-4 1 8 1 4-1 2-1 5-6 1-1 1-2 1-3 1-2a24 24 0 013-4l1-1 1-1 1-2 2-1h1l1 1 2 2c1 5 1 12-1 14l-1 2-1 4-2 3-1 1-1 2-1 1-1 2-1 1c-2 1-1 1 1 1l1-1 2-1 1-1 1-1 2-2 1-1 1-1 1-2 2-2a12 12 0 012-3l1-1 1-2 1-3 2-2 1-3 1-2 1-2 2-2c1-3 2-3 4-4l3 1c2 2 3 6 1 7-1 1-2 2-1 3 0 2 8 2 11 0l3-1 2-1 1-1 2-2 1-1 1-2 1-3 2-2 1-7 1-2c-1-3 0-8 1-9h3l1 4c0 2 1 3 2 1l2-1 2-1 1-1 2-2 2-1 1-1 2-1 2-2 2-1 1-1 2-1 2-1 3-1 2-2 3-1 3-1 6-1c5-1 7-1 5-2l-3-1c-3-2-3-2-13-2h-10M199 74l-4 2-1 1-1 1 2 2 1 1 1 1h4l3-1h1l1 1 2 1 1-1 2-2-3-1c-2 0-3-2 0-2 2-1 3-2 0-3h-3l-2 2h-1l-1-2h-2m-12 1c-2 1-2 1 0 1s3 0 2-1h-2m31 0v1h2c1-1-1-2-2-1m-4 0v1l-1 1-2 1 1 1 2-1 1-2 1-1h-2m-15 2h2v1c-2 2-5 1-5 0s1-2 3-1m-33 12v1h2l-2-1" fill="#858585"/></svg>