<?xml version="1.0" encoding="UTF-8" standalone="no"?>
<!DOCTYPE svg PUBLIC "-//W3C//DTD SVG 1.1//EN" "http://www.w3.org/Graphics/SVG/1.1/DTD/svg11.dtd">
<svg width="100%" height="100%" viewBox="0 0 200 200" version="1.1" xmlns="http://www.w3.org/2000/svg" xmlns:xlink="http://www.w3.org/1999/xlink" xml:space="preserve" xmlns:serif="http://www.serif.com/" style="fill-rule:evenodd;clip-rule:evenodd;stroke-linejoin:round;stroke-miterlimit:2;">
    <g transform="matrix(0.1,0,0,-0.1,0,200)">
        <path d="M680,1967C592,1938 525,1866 482,1753C457,1689 448,1677 394,1637C282,1555 192,1420 154,1280C139,1226 127,1205 79,1154C-4,1067 -19,997 24,905C45,859 103,796 158,760C180,746 180,743 169,685C162,652 157,580 157,525C157,316 236,173 388,102C435,81 463,75 547,72C634,68 661,72 742,94L836,121L894,86C975,37 1046,24 1109,45C1136,54 1178,78 1202,99C1232,125 1262,140 1301,149C1428,176 1587,278 1668,382C1725,457 1779,574 1797,668C1810,735 1817,750 1840,763C1882,788 1950,860 1972,904C1987,934 1991,957 1988,1001C1981,1103 1908,1189 1770,1257C1740,1273 1712,1290 1708,1295C1704,1301 1700,1339 1700,1380C1700,1565 1620,1709 1482,1777C1432,1801 1411,1805 1315,1808C1230,1810 1188,1807 1130,1791L1055,1772L990,1837C916,1912 875,1940 806,1963C749,1982 729,1983 680,1967ZM850,1861C875,1849 914,1823 935,1804L975,1769L900,1773C805,1779 680,1766 599,1740C564,1730 534,1723 531,1725C529,1728 539,1748 554,1770C631,1886 736,1919 850,1861ZM1424,1770C1575,1713 1656,1592 1668,1408C1670,1359 1669,1320 1664,1320C1659,1321 1635,1348 1610,1381C1498,1532 1305,1670 1127,1726C1063,1746 1065,1751 1152,1774C1233,1796 1358,1794 1424,1770ZM900,1732L945,1725L890,1694C797,1641 679,1548 579,1447C526,1394 475,1350 465,1350C449,1350 448,1358 453,1423C456,1462 466,1530 476,1573C492,1646 496,1653 529,1670C629,1720 793,1748 900,1732ZM1059,1661C1099,1603 1190,1433 1190,1418C1190,1414 1108,1410 1007,1410C899,1410 776,1404 706,1395C641,1386 584,1380 579,1382C567,1386 697,1516 779,1580C847,1635 987,1720 1007,1720C1014,1720 1037,1693 1059,1661ZM1203,1649C1341,1579 1474,1476 1552,1377C1584,1337 1584,1337 1560,1342C1459,1364 1327,1389 1289,1395C1244,1401 1242,1403 1225,1448C1215,1474 1186,1537 1160,1588C1128,1650 1118,1680 1127,1680C1134,1680 1169,1666 1203,1649ZM417,1451L405,1337L310,1298C258,1277 209,1257 203,1253C178,1242 190,1289 236,1380C271,1451 299,1490 354,1544C438,1628 437,1629 417,1451ZM1178,1384C1207,1378 1211,1371 1239,1286C1296,1114 1340,877 1340,742C1340,683 1337,669 1322,661C1285,641 1085,627 920,633C716,640 564,664 545,694C511,746 450,1056 450,1174C450,1227 454,1238 490,1286C524,1331 536,1340 577,1348C636,1361 743,1379 790,1383C854,1390 1147,1390 1178,1384ZM1455,1339C1584,1307 1615,1293 1638,1252C1658,1215 1658,1214 1640,1150C1609,1037 1571,948 1509,840C1442,722 1398,664 1383,673C1378,676 1370,732 1367,797C1359,942 1331,1109 1290,1253C1274,1312 1260,1363 1260,1366C1260,1376 1366,1361 1455,1339ZM408,1273C410,1261 384,1204 348,1142C313,1082 267,990 245,936C219,872 204,844 198,853C186,876 160,1039 161,1089C164,1193 183,1213 329,1275C393,1302 404,1301 408,1273ZM1777,1208C1873,1140 1912,1085 1912,1015C1912,967 1884,907 1846,871C1817,843 1818,841 1801,948C1787,1040 1753,1141 1702,1243C1693,1260 1720,1247 1777,1208ZM479,810C495,747 506,693 504,691C489,676 250,772 250,793C250,841 314,1005 373,1105L414,1175L432,1050C442,981 463,873 479,810ZM1730,1039C1741,998 1753,928 1757,883L1763,802L1704,772C1636,738 1516,696 1502,701C1497,703 1509,734 1529,770C1585,870 1638,993 1663,1080C1683,1152 1686,1157 1697,1136C1704,1123 1718,1080 1730,1039ZM150,901C156,877 159,855 156,852C147,843 110,881 83,928C50,985 54,1051 96,1112L125,1155L131,1050C135,992 143,925 150,901ZM1730,614C1670,427 1514,268 1333,208C1302,198 1276,190 1274,190C1272,190 1282,214 1295,243C1317,289 1348,410 1365,510C1375,572 1408,597 1523,630C1580,647 1654,671 1686,684C1757,713 1761,708 1730,614ZM365,662C404,649 457,633 484,626L533,615L575,519C598,466 637,388 663,346C688,304 705,270 700,270C682,270 568,345 503,399C432,458 322,588 281,661C260,699 260,702 276,695C287,690 327,676 365,662ZM346,500C415,416 545,306 632,258C756,190 755,193 667,185C498,169 363,228 288,351C256,403 230,510 230,593L230,674L266,615C285,582 321,531 346,500ZM884,579C1054,571 1152,571 1224,578C1279,584 1326,587 1328,585C1336,578 1185,436 1108,379C977,282 833,211 792,224C757,236 580,540 580,590C580,598 590,600 613,596C630,593 753,585 884,579ZM1320,443C1320,401 1295,317 1262,246C1228,173 1220,170 1086,170C951,170 947,175 1029,229C1114,286 1255,405 1282,443C1293,458 1306,470 1311,470C1316,470 1320,458 1320,443ZM1053,133C1117,130 1170,124 1170,119C1170,114 1152,101 1130,90C1073,61 1006,64 940,98C879,129 859,157 906,146C922,142 988,136 1053,133Z" style="fill-rule:nonzero;"/>
    </g>
</svg>
