<?xml version="1.0" standalone="no"?>
<!DOCTYPE svg PUBLIC "-//W3C//DTD SVG 20010904//EN"
 "http://www.w3.org/TR/2001/REC-SVG-20010904/DTD/svg10.dtd">
<svg version="1.0" xmlns="http://www.w3.org/2000/svg"
 width="600.000000pt" height="600.000000pt" viewBox="0 0 600.000000 600.000000"
 preserveAspectRatio="xMidYMid meet">
<g transform="translate(0.000000,600.000000) scale(0.050000,-0.050000)"
fill="#000000" stroke="none">
<path d="M5630 11980 c-5100 -306 -7486 -6509 -3911 -10167 3348 -3425 9191
-1705 10148 2987 786 3853 -2309 7416 -6237 7180z m1108 -350 c3361 -459 5580
-3707 4773 -6983 -878 -3560 -4824 -5364 -8098 -3703 -3005 1525 -4020 5379
-2154 8179 995 1494 2489 2370 4341 2544 180 17 916 -7 1138 -37z"/>
<path d="M5367 11129 c-4303 -553 -6075 -5847 -2962 -8842 2879 -2768 7689
-1371 8615 2503 836 3495 -2107 6796 -5653 6339z m475 -1569 c-29 -133 -28
-147 8 -132 84 34 95 32 41 -5 l-60 -41 110 -48 c60 -27 123 -54 139 -61 28
-13 -1 -9 -188 21 -68 10 -77 8 -65 -21 33 -83 33 -99 0 -48 -49 74 -50 74
-113 -80 -40 -97 -52 -115 -44 -65 6 39 17 105 24 148 10 68 8 77 -21 65 -83
-33 -99 -33 -48 0 75 50 72 56 -66 107 -146 55 -142 72 11 40 132 -27 138 -24
110 52 l-21 58 47 -58 47 -58 46 124 c55 145 74 146 43 2z m-2557 -1077 c45
-24 45 -24 -5 -14 -58 11 -84 -2 -117 -59 -21 -36 -22 -35 -12 13 9 39 2 60
-30 82 -42 29 -42 30 18 42 39 8 62 25 63 48 1 19 10 7 20 -27 9 -34 38 -72
63 -85z m4684 7 c2495 -292 2562 -2085 129 -3462 -879 -498 -2064 -797 -2812
-710 -351 41 -468 83 -893 322 -150 84 -132 39 56 -137 459 -429 1334 -520
2426 -251 1483 364 2982 1335 3594 2329 102 166 109 161 49 -34 -272 -880
-1602 -1941 -3142 -2505 -2068 -758 -3749 -361 -3811 899 -34 716 445 1354
1385 1845 287 150 273 154 -70 21 -1068 -413 -1753 -1153 -1846 -1994 -111
-992 764 -1723 2076 -1734 252 -2 202 -27 -122 -60 -3043 -314 -3464 2767
-547 3999 1132 478 2463 558 3186 193 206 -105 206 -72 1 95 -1083 885 -4115
362 -5473 -943 -133 -128 -118 -81 35 111 1381 1726 5594 2229 6304 752 330
-686 -339 -1670 -1546 -2276 -142 -71 -253 -130 -247 -130 119 -2 860 323
1199 526 1554 931 1815 2156 589 2770 -378 189 -1122 344 -1656 344 -88 0
-155 5 -148 11 49 50 911 62 1284 19z m-3163 -107 c41 -21 41 -22 4 -20 -72 3
-87 -3 -96 -38 -7 -28 -10 -26 -12 8 -1 23 -22 57 -47 75 -25 19 -34 28 -20
22 39 -19 105 9 108 46 2 19 7 10 11 -18 5 -29 28 -63 52 -75z m5627 -687 c-2
-49 9 -70 47 -91 l50 -28 -56 9 c-40 6 -63 -3 -85 -33 l-29 -42 0 46 c0 29 -8
40 -23 31 -14 -9 -18 -5 -9 9 9 14 -4 31 -32 44 -43 19 -43 19 11 12 47 -7 64
3 90 49 41 71 40 71 36 -6z m-512 -3217 c14 -8 4 -18 -26 -26 -27 -7 -59 -33
-72 -58 -24 -45 -24 -45 -14 5 11 60 -3 84 -69 114 -48 23 -48 23 13 13 51 -9
69 -3 90 31 26 42 27 42 41 -11 8 -30 25 -60 37 -68z m-7749 -484 c-8 -47 -19
-106 -26 -132 -11 -47 -11 -47 56 -14 l68 33 -57 -44 -58 -45 138 -57 c75 -32
115 -53 87 -48 -215 40 -245 39 -222 -4 34 -64 26 -74 -16 -21 l-39 47 -19
-50 c-11 -27 -34 -81 -52 -120 l-32 -70 10 65 c5 36 16 93 23 128 12 59 10 63
-35 51 -46 -11 -46 -11 -9 17 46 34 49 31 -95 88 -144 58 -139 65 22 32 92
-19 124 -20 117 -4 -40 97 -39 103 2 53 l42 -50 41 97 c23 53 42 105 42 115 0
10 6 18 13 18 6 0 6 -38 -1 -85z m6836 -403 c-37 -180 -34 -186 55 -142 l67
32 -50 -40 c-27 -23 -57 -41 -66 -42 -44 -1 18 -38 146 -89 174 -68 171 -80
-11 -41 -173 37 -176 37 -161 0 35 -86 33 -95 -11 -44 l-47 56 -58 -151 c-70
-185 -80 -183 -43 10 33 173 33 172 -46 130 -87 -45 -105 -38 -28 11 90 58 85
65 -84 130 -184 70 -181 77 20 39 181 -35 182 -35 140 47 -42 81 -26 80 25 -2
l41 -63 28 68 c16 38 45 112 65 164 50 133 56 108 18 -73z m-2813 -161 c-11
-58 -1 -74 65 -107 48 -23 47 -24 -18 -12 -51 9 -63 6 -51 -13 10 -16 7 -20
-8 -11 -14 9 -31 -4 -43 -32 -18 -43 -19 -42 -15 13 4 46 -6 65 -45 85 l-50
25 50 3 c28 2 56 2 63 1 7 -1 19 21 25 48 16 64 40 64 27 0z m-3701 -371 c-6
-22 -1 -40 11 -40 12 0 15 -6 8 -14 -8 -8 6 -26 31 -41 46 -27 46 -27 -8 -16
-45 9 -60 2 -84 -44 l-30 -55 -1 62 c-1 44 -14 68 -46 84 l-45 21 50 4 c28 2
56 3 64 2 7 -1 19 16 26 37 17 52 38 52 24 0z"/>
</g>
</svg>
